<svg width="184" height="140" viewBox="0 0 184 140" fill="none" xmlns="http://www.w3.org/2000/svg">
<path fill-rule="evenodd" clip-rule="evenodd" d="M52 32C46.4772 32 42 36.4772 42 42C42 47.5228 46.4772 52 52 52H32.5C26.701 52 22 56.701 22 62.5C22 68.299 26.701 73 32.5 73H58C52.4772 73 48 77.4772 48 83C48 88.5228 52.4771 93 58 93H43.5C37.701 93 33 97.701 33 103.5C33 109.299 37.701 114 43.5 114H139.5C145.299 114 150 109.299 150 103.5C150 97.701 145.299 93 139.5 93H161C166.523 93 171 88.5228 171 83C171 77.4772 166.523 73 161 73H128.5C134.299 73 139 68.299 139 62.5C139 56.701 134.299 52 128.5 52H149C154.523 52 159 47.5228 159 42C159 36.4772 154.523 32 149 32H52Z" fill="#F6F9F9"/>
<path d="M122.474 116.129L109.147 112.558L115.04 90.5629L93.5825 84.8133L97.2429 71.1523L132.028 80.473L122.474 116.129Z" fill="black"/>
<path d="M103.515 47.9281C108.986 49.4015 113.673 52.9616 116.619 57.8804C119.564 62.7992 120.545 68.7051 119.36 74.3902L132.713 77.968C134.87 68.6537 133.412 58.8923 128.647 50.742C123.883 42.5917 116.183 36.6895 107.172 34.2799C98.1654 31.8687 88.5509 33.1344 80.3536 37.8106C72.1563 42.4867 66.016 50.2083 63.2259 59.349L76.5657 62.9234C78.3814 57.4078 82.1828 52.7833 87.1923 49.9959C92.2018 47.2085 98.0409 46.4688 103.515 47.9281Z" fill="#77CAF9"/>
<path d="M91.7441 91.8607C86.2789 90.3893 81.5953 86.8352 78.6496 81.9238C75.7039 77.0125 74.7182 71.1144 75.8938 65.4338L62.554 61.8594C60.3999 71.1705 61.8567 80.9277 66.6177 89.0761C71.3787 97.2244 79.0723 103.128 88.078 105.543C97.0865 107.962 106.706 106.7 114.907 102.024C123.109 97.3481 129.252 89.6232 132.041 80.4783L118.689 76.9006C116.865 82.4081 113.062 87.0229 108.054 89.8031C103.047 92.5833 97.2132 93.3192 91.7441 91.8607Z" fill="black"/>
<path d="M52.3201 84.8594L52.3201 55.1794C52.3201 53.4231 53.7438 51.9994 55.5001 51.9994C57.2563 51.9994 58.6801 53.4231 58.6801 55.1794L58.6801 84.8594L52.3201 84.8594Z" fill="white" stroke="#B4CFCC" stroke-width="1.83"/>
<path d="M62.9199 107.121L62.9199 112.421C62.9199 116.519 59.5979 119.841 55.4999 119.841C51.402 119.841 48.0799 116.519 48.0799 112.421L48.0799 107.121L62.9199 107.121Z" fill="white" stroke="#B4CFCC" stroke-width="1.83"/>
<path d="M33.24 106.059L34.402 81.6558C34.9383 70.3939 44.2253 61.5386 55.5 61.5386C66.7747 61.5386 76.0617 70.3939 76.598 81.6558L77.76 106.059L33.24 106.059Z" fill="white" stroke="#B4CFCC" stroke-width="1.83"/>
<rect x="29" y="106.059" width="53" height="8.48" rx="4.24" fill="white" stroke="#B4CFCC" stroke-width="1.83"/>
<ellipse cx="81.5" cy="133" rx="52.5" ry="5" fill="#F6F9F9"/>
<path fill-rule="evenodd" clip-rule="evenodd" d="M65.2432 31.7394C69.3872 28.6247 72 24.0717 72 19C72 9.61116 63.0457 2 52 2C40.9543 2 32 9.61116 32 19C32 28.3888 40.9543 36 52 36C54.112 36 56.1476 35.7217 58.0587 35.206L63.7335 37.4128C64.4599 37.6953 65.2432 37.1595 65.2432 36.3801V31.7394Z" fill="#DAE5E4"/>
<path fill-rule="evenodd" clip-rule="evenodd" d="M116.519 25.4313C113.774 22.9744 112.046 19.4037 112.046 15.4295C112.046 8.01907 118.053 2.01172 125.464 2.01172C132.874 2.01172 138.882 8.01907 138.882 15.4295C138.882 22.8399 132.874 28.8473 125.464 28.8473C123.782 28.8473 122.172 28.5377 120.688 27.9724L118.029 29.0064C117.303 29.2889 116.519 28.7531 116.519 27.9737L116.519 25.4313Z" fill="#EEF2F2"/>
<circle cx="44.5" cy="19.5" r="1.5" fill="white"/>
<circle cx="51.5" cy="19.5" r="1.5" fill="white"/>
<circle cx="58.5" cy="19.5" r="1.5" fill="white"/>
<path d="M49.7452 78.8192C50.4864 78.3243 51.4733 78.8941 51.4153 79.7834L51.1954 83.1541C51.1724 83.5072 51.3246 83.8491 51.6024 84.0683L54.2545 86.1603C54.9542 86.7123 54.7172 87.8269 53.8535 88.0466L50.5799 88.8791C50.2369 88.9663 49.9588 89.2167 49.8362 89.5487L48.6661 92.7174C48.3574 93.5534 47.224 93.6725 46.7482 92.9189L44.9449 90.0628C44.7559 89.7635 44.4319 89.5764 44.0782 89.5624L40.703 89.4287C39.8125 89.3935 39.349 88.3524 39.9187 87.6671L42.0778 85.0694C42.304 84.7972 42.3818 84.4312 42.2859 84.0905L41.37 80.8392C41.1283 79.9814 41.9752 79.2189 42.8031 79.5488L45.9408 80.7996C46.2696 80.9306 46.6418 80.8915 46.9361 80.695L49.7452 78.8192Z" fill="#EEF2F2"/>
<path d="M139.68 119.95C139.622 119.061 140.609 118.491 141.35 118.986L143.238 120.246C143.532 120.443 143.904 120.482 144.233 120.351L146.341 119.51C147.169 119.18 148.016 119.943 147.774 120.801L147.159 122.985C147.063 123.326 147.141 123.692 147.367 123.964L148.818 125.71C149.388 126.395 148.924 127.436 148.034 127.471L145.766 127.561C145.412 127.575 145.088 127.762 144.899 128.061L143.687 129.981C143.212 130.734 142.078 130.615 141.769 129.779L140.983 127.65C140.861 127.318 140.583 127.067 140.24 126.98L138.04 126.421C137.176 126.201 136.939 125.087 137.639 124.535L139.421 123.129C139.699 122.91 139.851 122.568 139.828 122.215L139.68 119.95Z" fill="#EEF2F2"/>
<path d="M42.5 41C43.5 45.5 39.1 49.5 35.5 47.5C31 45 35.5 41.5 38.5 46.5C41.5 51.5 35 53.5 32 50" stroke="#B4CFCC" stroke-width="1.83168" stroke-linecap="round"/>
<path d="M149.857 27.1079C147.639 30.7989 139.84 36.1059 131 34.7116" stroke="#B4CFCC" stroke-width="1.83168" stroke-linecap="round"/>
<path d="M28.2243 74.9812C26.1328 78.5195 19.2801 83.9434 12 83.3131" stroke="#B4CFCC" stroke-width="1.83168" stroke-linecap="round"/>
<path d="M165.079 20.0212C163.884 28.04 153.061 38.5805 142.974 38.2326" stroke="#B4CFCC" stroke-width="1.83168" stroke-linecap="round"/>
<path d="M31.4743 61.1475C30.7831 66.329 23.1661 72.938 15.8447 72.4919" stroke="#B4CFCC" stroke-width="1.83168" stroke-linecap="round"/>
<path d="M148.65 78.314C147.666 77.7459 147.329 76.4793 147.906 75.4807L148.698 74.1083C149.346 72.8573 150.132 71.8704 151.067 71.1536C151.996 70.4338 153.258 70.0288 154.843 69.9406L154.798 69.9143C156.254 69.7105 157.503 69.503 158.545 69.2918C159.586 69.0806 160.39 68.8481 160.956 68.5943C161.963 68.1724 162.859 67.3583 163.637 66.1409C164.087 65.4313 164.339 64.7026 164.416 63.9483C164.486 63.2173 164.434 62.4293 164.262 61.5791C164.25 61.5308 164.24 61.4774 164.227 61.4291C163.772 59.7805 162.725 58.4793 161.082 57.5307C159.505 56.6201 157.848 56.5033 156.114 57.1885C154.776 57.7135 153.457 58.8027 152.15 60.4582C151.46 61.3367 150.201 61.504 149.314 60.8489C148.395 60.1683 148.203 58.8622 148.898 57.939C149.594 57.0157 150.331 56.2191 151.118 55.5469C152.358 54.4877 153.648 53.73 154.98 53.284C156.313 52.838 157.663 52.689 159.031 52.8372C160.397 52.9904 161.727 53.4378 163.021 54.1844C165.749 55.7596 167.49 57.8505 168.247 60.4518C169.026 63.1416 168.697 65.7375 167.258 68.2315C166.722 69.1584 166.101 69.9536 165.399 70.6068C164.695 71.2651 163.956 71.7947 163.189 72.1984C162.374 72.6153 161.32 72.9765 160.036 73.2798C158.752 73.5831 157.241 73.8103 155.506 73.9694C154.699 74.0431 154.094 74.2259 153.693 74.5207C153.296 74.8103 152.861 75.3648 152.391 76.1791L151.572 77.5976C150.999 78.5911 149.735 78.9405 148.746 78.3696L148.65 78.314Z" fill="#DAE5E4"/>
<path d="M144.942 80.8074C144.676 81.2682 144.604 81.8157 144.742 82.3295C144.879 82.8434 145.215 83.2815 145.676 83.5475C146.137 83.8135 146.684 83.8856 147.198 83.7479C147.712 83.6102 148.15 83.274 148.416 82.8133C148.682 82.3526 148.754 81.8051 148.617 81.2912C148.479 80.7774 148.143 80.3392 147.682 80.0732C147.221 79.8073 146.674 79.7352 146.16 79.8729C145.646 80.0105 145.208 80.3467 144.942 80.8074Z" fill="#DAE5E4"/>
<g filter="url(#filter0_d_2091_1750)">
<circle cx="11.5585" cy="11.5585" r="11.5585" transform="matrix(-0.893012 -0.450032 -0.450032 0.893012 105.643 46.7617)" fill="white"/>
</g>
<path d="M89.4589 46.715L93.475 53.3623L85.5434 53.0475" stroke="black" stroke-width="2.84466" stroke-linecap="round"/>
<g filter="url(#filter1_d_2091_1750)">
<circle cx="111.589" cy="58.5893" r="12.8763" transform="rotate(30 111.589 58.5893)" fill="white"/>
</g>
<path d="M116.808 56.0449L108.162 56.3642L113.3 63.5609" stroke="black" stroke-width="3.16898" stroke-linecap="round"/>
<defs>
<filter id="filter0_d_2091_1750" x="74.7655" y="38.4239" width="30.7076" height="30.7068" filterUnits="userSpaceOnUse" color-interpolation-filters="sRGB">
<feFlood flood-opacity="0" result="BackgroundImageFix"/>
<feColorMatrix in="SourceAlpha" type="matrix" values="0 0 0 0 0 0 0 0 0 0 0 0 0 0 0 0 0 0 127 0" result="hardAlpha"/>
<feOffset dy="1.89644"/>
<feGaussianBlur stdDeviation="1.89644"/>
<feComposite in2="hardAlpha" operator="out"/>
<feColorMatrix type="matrix" values="0 0 0 0 0 0 0 0 0 0 0 0 0 0 0 0 0 0 0.2 0"/>
<feBlend mode="normal" in2="BackgroundImageFix" result="effect1_dropShadow_2091_1750"/>
<feBlend mode="normal" in="SourceGraphic" in2="effect1_dropShadow_2091_1750" result="shape"/>
</filter>
<filter id="filter1_d_2091_1750" x="94.4856" y="43.5983" width="34.2075" height="34.2084" filterUnits="userSpaceOnUse" color-interpolation-filters="sRGB">
<feFlood flood-opacity="0" result="BackgroundImageFix"/>
<feColorMatrix in="SourceAlpha" type="matrix" values="0 0 0 0 0 0 0 0 0 0 0 0 0 0 0 0 0 0 127 0" result="hardAlpha"/>
<feOffset dy="2.11266"/>
<feGaussianBlur stdDeviation="2.11266"/>
<feComposite in2="hardAlpha" operator="out"/>
<feColorMatrix type="matrix" values="0 0 0 0 0 0 0 0 0 0 0 0 0 0 0 0 0 0 0.2 0"/>
<feBlend mode="normal" in2="BackgroundImageFix" result="effect1_dropShadow_2091_1750"/>
<feBlend mode="normal" in="SourceGraphic" in2="effect1_dropShadow_2091_1750" result="shape"/>
</filter>
</defs>
</svg>
