<svg width="16" height="16" viewBox="0 0 16 16" fill="none" xmlns="http://www.w3.org/2000/svg">
<g opacity="0.6">
<path d="M8.00007 11.7C6.04027 11.7 4.47738 10.7174 3.36852 9.66878C2.81792 9.1481 2.39525 8.62549 2.11089 8.23346C2.05041 8.15009 1.99642 8.07293 1.94899 8.00332C1.99755 7.93295 2.0529 7.85485 2.1149 7.7704C2.40328 7.37764 2.8308 6.85417 3.38503 6.33266C4.50245 5.28122 6.06558 4.3 8.00007 4.3C9.93449 4.3 11.4976 5.28121 12.615 6.33266C13.1692 6.85416 13.5967 7.37763 13.8851 7.7704C13.9471 7.85485 14.0024 7.93295 14.051 8.00332C14.0036 8.07293 13.9496 8.1501 13.8891 8.23347C13.6048 8.6255 13.1821 9.14811 12.6315 9.66879C11.5227 10.7174 9.95984 11.7 8.00007 11.7ZM1.69769 7.60863C1.69748 7.60826 1.69741 7.60814 1.6975 7.6083L1.69769 7.60863Z" stroke="#112438" stroke-width="1.6"/>
<circle cx="8" cy="8" r="2" fill="#112438"/>
</g>
</svg>
