<svg width="20" height="20" viewBox="0 0 20 20" fill="none" xmlns="http://www.w3.org/2000/svg">
<path d="M10.0002 16.0112L13.5972 12.4142L15.5859 14.403L11.9889 18H10.0002V16.0112Z" stroke="#112438" stroke-width="2"/>
<path d="M15.5678 9.03125L19.0002 12.5317L17.8516 13.6804L14.3516 10.1799L15.5678 9.03125Z" fill="#112438"/>
<rect x="2" y="1" width="13" height="2" fill="#112438"/>
<rect x="16" y="8" width="4" height="2" transform="rotate(-90 16 8)" fill="#112438"/>
<path d="M16.5825 5.41797L13.5858 2.41353L15 0.99932L17.9967 4.00376L16.5825 5.41797Z" fill="#112438"/>
<rect x="2" y="17" width="5" height="2" fill="#112438"/>
<rect x="4" y="2" width="16" height="2" transform="rotate(90 4 2)" fill="#112438"/>
<path d="M7.00277 7.23831C7.00277 7.23831 6.81709 5 9.48868 5C12.1603 5 11.9981 7.21682 11.9981 7.21682C11.9981 7.21682 12.02 7.91517 11.1151 8.53044C10.2095 9.14642 10.023 9.10416 10.023 10.0289H8.79139C8.79139 10.0289 8.41031 8.67799 10.1843 7.89512C10.5573 7.73038 10.6976 7.54559 10.6976 6.93032C10.6976 6.31505 10.2549 5.94403 9.60462 5.94403C8.95436 5.94403 8.28059 6.04717 8.28059 7.21682L7.00277 7.23831ZM8.76869 11.5H10.023V12.6088H8.76869V11.5Z" fill="#112438" stroke="#112438" stroke-width="0.8"/>
</svg>
