<svg width="20" height="20" viewBox="0 0 20 20" fill="none" xmlns="http://www.w3.org/2000/svg">
<g clip-path="url(#clip0_2316_7479)">
<path d="M19.5115 9.42722L19.1923 9.05799C18.531 8.32569 17.8143 7.6378 17.0476 6.99953C16.8481 6.82415 16.6386 6.67645 16.4292 6.51953L15.0227 7.8303C15.2621 8.00569 15.5015 8.1903 15.7209 8.37492C16.3292 8.88254 16.9022 9.42515 17.4366 9.99953C16.9022 10.5739 16.3292 11.1165 15.7209 11.6241C14.3344 12.778 12.2097 14.1534 9.97529 14.1534C9.44131 14.1483 8.91076 14.0737 8.39923 13.9318L6.87305 15.3718C7.85305 15.7661 8.90689 15.9794 9.97529 15.9995C12.2297 15.9995 14.6735 14.9657 17.0277 12.9995C17.7943 12.3613 18.511 11.6734 19.1723 10.9411L19.4915 10.5718L19.9803 9.99953L19.5115 9.42722Z" fill="black"/>
<path d="M4.2793 11.6246C3.66863 11.1193 3.09543 10.5766 2.56359 10C3.09543 9.42343 3.66863 8.88066 4.2793 8.37538C5.66584 7.22154 7.78055 5.84615 9.97506 5.84615C10.4263 5.85027 10.8753 5.90608 11.3117 6.01231L12.9676 4.55385C12.0173 4.19456 11.0016 4.00658 9.97506 4C7.75062 4 5.30673 5.03385 2.99252 7C2.20911 7.63402 1.47883 8.32215 0.80798 9.05846L0.488778 9.42769L0 10L0.488778 10.5723L0.80798 10.9415C1.47883 11.6778 2.20911 12.366 2.99252 13C3.14215 13.1292 3.30175 13.24 3.45137 13.3508L4.80798 12.0492L4.2793 11.6246Z" fill="black"/>
<path d="M9.97489 12.7674C10.7686 12.7674 11.5297 12.4756 12.0909 11.9563C12.6521 11.437 12.9674 10.7326 12.9674 9.99816C12.9728 9.909 12.9728 9.81963 12.9674 9.73047L9.70557 12.7397C9.79482 12.7529 9.88469 12.7621 9.97489 12.7674Z" fill="black"/>
<path d="M6.98242 9.9997L9.97494 7.23047C9.18128 7.23047 8.42012 7.52223 7.85891 8.04156C7.2977 8.56089 6.98242 9.26525 6.98242 9.9997Z" fill="black"/>
<path d="M16.6087 5.05231C16.0625 4.66233 15.4857 4.31058 14.883 4L3.05233 14.9846C3.59571 15.3673 4.17301 15.707 4.77802 16L16.6087 5.05231Z" fill="black"/>
</g>
<defs>
<clipPath id="clip0_2316_7479">
<rect width="20" height="12" fill="white" transform="translate(0 4)"/>
</clipPath>
</defs>
</svg>
