<svg width="6" height="8" viewBox="0 0 6 8" fill="none" xmlns="http://www.w3.org/2000/svg">
<path d="M2.86651 0.150568C2.94541 0.0684868 3.07681 0.0687327 3.1554 0.151109L5.67747 2.79465C5.79891 2.92193 5.70869 3.13271 5.53277 3.13271H4.06517C3.95471 3.13271 3.86517 3.22225 3.86517 3.33271V7.69253C3.86517 7.77408 3.8338 7.85228 3.77796 7.90994C3.72212 7.96761 3.64639 8 3.56742 8H2.40449C2.33049 7.99276 2.26179 7.9572 2.21189 7.9003C2.16199 7.8434 2.1345 7.76929 2.13483 7.69253V3.33271C2.13483 3.22225 2.04529 3.13271 1.93483 3.13271H0.469658C0.293377 3.13271 0.203308 2.9212 0.325469 2.79411L2.86651 0.150568Z" fill="#34D026"/>
</svg>
