<svg width="6" height="8" viewBox="0 0 6 8" fill="none" xmlns="http://www.w3.org/2000/svg">
<path d="M3.13349 7.84943C3.05459 7.93151 2.92319 7.93127 2.8446 7.84889L0.322525 5.20535C0.201088 5.07807 0.291309 4.86729 0.467232 4.86729L1.93483 4.86729C2.04529 4.86729 2.13483 4.77775 2.13483 4.66729L2.13483 0.307468C2.13483 0.225922 2.1662 0.147717 2.22204 0.0900556C2.27788 0.0323941 2.35362 -3.18777e-07 2.43258 -3.11873e-07L3.59551 -2.10208e-07C3.66951 0.00724057 3.73821 0.0428045 3.78811 0.0997003C3.83801 0.156596 3.8655 0.230707 3.86517 0.307468L3.86517 4.66729C3.86517 4.77775 3.95471 4.86729 4.06517 4.86729L5.53034 4.86729C5.70662 4.86729 5.79669 5.0788 5.67453 5.20589L3.13349 7.84943Z" fill="#FFA404"/>
</svg>
