<svg width="57" height="57" viewBox="0 0 57 57" fill="none" xmlns="http://www.w3.org/2000/svg">
<g id="Group 40599">
<path id="Star 36" d="M23.8896 4.40659L31.7444 12.1412L42.0727 8.2879L42.1577 19.3113L52.1856 23.8898L44.451 31.7446L48.3043 42.0729L37.2809 42.1579L32.7024 52.1858L24.8476 44.4512L14.5193 48.3045L14.4343 37.2811L4.4064 32.7026L12.141 24.8478L8.28771 14.5195L19.3111 14.4345L23.8896 4.40659Z" fill="#FFDE30"/>
<path id="Rectangle 18773" d="M18.3631 31.4374C17.1996 30.6363 16.9058 29.0436 17.7069 27.8801C18.5081 26.7166 20.1007 26.4228 21.2643 27.2239L27.0549 31.2111C28.2185 32.0123 28.5122 33.6049 27.7111 34.7684C26.9099 35.932 25.3173 36.2257 24.1538 35.4246L18.3631 31.4374Z" fill="white"/>
<path id="Rectangle 18774" d="M30.8193 20.6394C31.6734 19.3991 33.3712 19.0859 34.6116 19.9399C35.8519 20.794 36.1651 22.4918 35.311 23.7322L27.8082 34.6287C26.9542 35.8691 25.2563 36.1822 24.016 35.3282C22.7756 34.4742 22.4625 32.7763 23.3165 31.536L30.8193 20.6394Z" fill="white"/>
</g>
</svg>
