<svg width="16" height="16" viewBox="0 0 16 16" fill="none" xmlns="http://www.w3.org/2000/svg">
<path d="M2.91028 5.83469C3.05081 5.69407 3.23868 5.61081 3.43725 5.60115C3.63583 5.59149 3.83088 5.65611 3.98441 5.78242L4.04148 5.83416L7.99774 9.79042L11.9273 5.80802C12.0671 5.66648 12.2545 5.58205 12.4531 5.5712C12.6517 5.56035 12.8472 5.62387 13.0015 5.74936L13.0591 5.80056C13.2006 5.94027 13.2851 6.1277 13.2959 6.32629C13.3068 6.52488 13.2432 6.72039 13.1177 6.87469L13.0665 6.93176L8.57054 11.4875C8.42982 11.63 8.24073 11.7146 8.04066 11.7245C7.84059 11.7344 7.64409 11.6688 7.49001 11.5408L7.43561 11.4912L2.91028 6.96589C2.83594 6.8916 2.77696 6.80338 2.73673 6.70629C2.69649 6.6092 2.67578 6.50513 2.67578 6.40002C2.67578 6.29492 2.69649 6.19085 2.73673 6.09376C2.77696 5.99667 2.83594 5.90845 2.91028 5.83416V5.83469Z" fill="#112438"/>
</svg>
