<?xml version="1.0" encoding="utf-8"?>
<!-- Generator: Adobe Illustrator 26.3.1, SVG Export Plug-In . SVG Version: 6.00 Build 0)  -->
<svg version="1.1" id="图层_1" xmlns="http://www.w3.org/2000/svg" xmlns:xlink="http://www.w3.org/1999/xlink" x="0px" y="0px"
	 viewBox="0 0 57 23" style="enable-background:new 0 0 57 23;" xml:space="preserve">
<style type="text/css">
	.st0{fill:#FFFFFF;}
</style>
<path d="M11.5,0h34C51.9,0,57,5.1,57,11.5l0,0C57,17.9,51.9,23,45.5,23h-34C5.1,23,0,17.9,0,11.5l0,0C0,5.1,5.1,0,11.5,0z"/>
<g>
	<path class="st0" d="M13.9,3.9h-1.7l-4.4,12h1.9l1.2-3.3h4.4l1.2,3.3h1.9L13.9,4L13.9,3.9z M11.4,11L13,6.4l1.6,4.6H11.4z"/>
	<rect x="19.4" y="3.9" class="st0" width="1.7" height="12"/>
	<path class="st0" d="M29.5,7.3c-0.6-0.4-1.3-0.6-2.1-0.6c-0.6,0-1.1,0.1-1.5,0.3c-0.4,0.2-0.6,0.4-0.8,0.7C25.1,7.8,25,7.9,24.9,8
		V6.8h-1.7v12.4H25v-4.3c0.1,0.1,0.1,0.2,0.2,0.2c0.2,0.3,0.5,0.5,0.8,0.7c0.4,0.2,0.9,0.3,1.4,0.3c0.8,0,1.4-0.2,2-0.6
		c0.6-0.4,1-0.9,1.4-1.7c0.3-0.7,0.5-1.5,0.5-2.5c0-0.9-0.2-1.8-0.5-2.5C30.5,8.2,30,7.7,29.5,7.3z M29.6,11.4
		c0,0.6-0.1,1.1-0.3,1.6c-0.2,0.5-0.4,0.8-0.8,1.1c-0.3,0.3-0.8,0.4-1.3,0.4c-0.5,0-0.9-0.1-1.2-0.4c-0.3-0.3-0.6-0.6-0.8-1.1
		c-0.2-0.5-0.3-1-0.3-1.7c0-0.6,0.1-1.2,0.3-1.6c0.2-0.5,0.4-0.8,0.8-1.1c0.3-0.2,0.8-0.4,1.3-0.4c0.5,0,1,0.1,1.3,0.4
		c0.3,0.3,0.6,0.6,0.8,1.1C29.5,10.2,29.6,10.8,29.6,11.4z"/>
	<path class="st0" d="M38.9,7.1c-0.5-0.3-1-0.4-1.7-0.4c-0.7,0-1.3,0.1-1.8,0.4c-0.3,0.2-0.5,0.4-0.7,0.7V3.9H33v12h1.7v-5.4
		c0-0.5,0.1-0.9,0.3-1.2c0.2-0.3,0.4-0.6,0.7-0.7c0.3-0.2,0.7-0.3,1.1-0.3c0.6,0,1,0.2,1.3,0.5c0.3,0.3,0.5,0.8,0.5,1.5v5.7h1.7
		v-5.7c0-0.8-0.1-1.4-0.4-1.9C39.7,7.7,39.3,7.3,38.9,7.1z"/>
	<path class="st0" d="M49,8.2c-0.2-0.4-0.6-0.8-0.9-1C47.7,7,47.4,6.9,47,6.8c-0.4-0.1-0.7-0.1-1-0.1c-0.5,0-0.9,0.1-1.4,0.2
		c-0.5,0.1-0.9,0.3-1.3,0.7c-0.4,0.3-0.7,0.8-1,1.3L42.2,9l1.6,0.6l0.1-0.2c0.1-0.3,0.4-0.6,0.7-0.8C45,8.4,45.4,8.3,46,8.3
		c0.6,0,1,0.1,1.2,0.4c0.3,0.3,0.4,0.7,0.4,1.2c0,0.2-0.1,0.2-0.1,0.3c-0.1,0-0.3,0.1-0.6,0.2c-0.3,0-0.8,0.1-1.3,0.2
		c-0.4,0.1-0.8,0.1-1.2,0.2c-0.4,0.1-0.8,0.2-1.1,0.4c-0.4,0.2-0.6,0.5-0.9,0.8c-0.2,0.3-0.3,0.8-0.3,1.3c0,0.6,0.1,1.1,0.4,1.6
		c0.3,0.4,0.7,0.8,1.2,1c0.5,0.2,1,0.3,1.6,0.3c0.5,0,1-0.1,1.4-0.2c0.4-0.2,0.7-0.4,0.9-0.6c0.1-0.1,0.1-0.1,0.2-0.2v0.8h1.7V10
		C49.4,9.3,49.3,8.7,49,8.2z M47.7,11.7v0.9c0,0.3-0.1,0.6-0.3,0.9c-0.2,0.3-0.4,0.5-0.8,0.7c-0.3,0.2-0.7,0.3-1.2,0.3
		c-0.5,0-0.9-0.1-1.2-0.3c-0.3-0.2-0.4-0.5-0.4-0.9c0-0.3,0.1-0.5,0.2-0.7c0.2-0.2,0.4-0.3,0.6-0.4c0.3-0.1,0.6-0.2,0.9-0.2
		c0.1,0,0.3,0,0.6-0.1c0.2,0,0.5-0.1,0.7-0.1c0.3,0,0.5-0.1,0.7-0.1C47.6,11.7,47.6,11.7,47.7,11.7z"/>
</g>
</svg>
