<svg width="48" height="48" viewBox="0 0 48 48" fill="none" xmlns="http://www.w3.org/2000/svg">
<circle cx="24" cy="24" r="24" fill="white"/>
<circle cx="24" cy="24" r="23.5" stroke="black" stroke-opacity="0.1"/>
<path d="M30.4524 33.561H17.1049C16.676 33.5606 16.2648 33.3957 15.9614 33.1026C15.658 32.8095 15.4872 32.412 15.4863 31.9973V16.001C15.4872 15.5862 15.658 15.1885 15.9613 14.8951C16.2647 14.6018 16.6759 14.4366 17.1049 14.4357V14.4374H30.4524C30.8809 14.4387 31.2915 14.6041 31.5942 14.8975C31.8969 15.1908 32.0671 15.5882 32.0676 16.0027V26.3267L33.5556 27.7689V16.1274C33.5551 15.2987 33.2147 14.5039 32.6091 13.9176C32.0035 13.3313 31.1821 13.0013 30.3251 13H17.2338C16.3764 13.0009 15.5544 13.3306 14.9482 13.9169C14.3419 14.5033 14.0009 15.2982 14 16.1274V31.8759C14.0018 32.7045 14.3432 33.4986 14.9493 34.0842C15.5555 34.6698 16.377 34.9991 17.2338 35H30.3234C31.3482 35 32.2576 34.5258 32.8464 33.8022L31.808 32.7964C31.6689 33.0256 31.4711 33.2164 31.2337 33.3503C30.9962 33.4842 30.7272 33.5568 30.4524 33.561Z" fill="black" stroke="black" stroke-width="0.2"/>
<path d="M27.1298 27.3544C27.1298 27.3544 26.1398 24.9355 26.377 24.7128C26.6142 24.4885 29.1855 25.4211 29.1855 25.4211L27.1298 27.3544ZM35.3278 31.1652L33.2408 33.1309L27.2566 27.5029L29.3453 25.5402L35.3278 31.1652ZM33.8717 33.7295C33.9056 33.7606 33.9511 33.7781 33.9985 33.7781C34.046 33.7781 34.0915 33.7606 34.1254 33.7295L35.9455 32.0205C35.9627 32.0051 35.9765 31.9867 35.9859 31.9662C35.9953 31.9457 36.0001 31.9237 36.0001 31.9014C36.0001 31.8791 35.9953 31.857 35.9859 31.8365C35.9765 31.8161 35.9627 31.7976 35.9455 31.7823L35.4118 31.2781L33.3331 33.2268L33.8717 33.7295Z" fill="black"/>
<rect x="18.8889" y="17.8889" width="8.55555" height="1.22222" rx="0.611111" fill="black" stroke="black" stroke-width="0.5"/>
<rect x="18.8889" y="21.5557" width="6.11111" height="1.22222" rx="0.611111" fill="black" stroke="black" stroke-width="0.5"/>
</svg>
