<svg width="48" height="48" viewBox="0 0 48 48" fill="none" xmlns="http://www.w3.org/2000/svg">
<circle cx="24" cy="24" r="24" fill="white"/>
<circle cx="24" cy="24" r="23.5" stroke="black" stroke-opacity="0.1"/>
<path d="M34.1604 19.8797C34.4439 20.6122 34.2828 21.465 33.7544 22.0342C32.7384 23.1319 32.7384 24.8783 33.7544 26.0168C34.2828 26.586 34.4461 27.4388 34.1604 28.1713C33.7952 29.1057 33.2668 29.9993 32.6567 30.7726C32.1691 31.3827 31.3572 31.6662 30.6247 31.5051C29.8922 31.344 29.1618 31.4643 28.511 31.8294C27.8601 32.1946 27.4133 32.8047 27.1706 33.4964C26.9257 34.2675 26.277 34.7959 25.5037 34.9184C25.0161 34.9592 24.4876 35 24 35C23.5124 35 22.984 34.9592 22.4964 34.8776C21.7252 34.7551 21.0743 34.2267 20.8295 33.4555C20.3827 31.9927 18.879 31.1399 17.3754 31.4643C16.6042 31.6275 15.8309 31.3418 15.3433 30.7318C14.7332 29.9198 14.2048 29.0649 13.8396 28.1305C13.5561 27.398 13.7172 26.5452 14.2456 25.976C15.2617 24.8783 15.2617 23.1319 14.2456 21.9934C13.7172 21.4242 13.5561 20.5714 13.8396 19.8389C14.2048 18.9045 14.7332 18.0109 15.3433 17.2376C15.8309 16.6276 16.6429 16.344 17.4162 16.5051C18.1487 16.6684 18.879 16.5459 19.5299 16.1808C20.1807 15.8156 20.6275 15.2055 20.8703 14.5139C21.1152 13.7427 21.7639 13.2143 22.5372 13.0918C23.5124 12.9694 24.5284 12.9694 25.5445 13.0918C26.3156 13.2143 26.9665 13.7427 27.2114 14.5139C27.4154 15.2055 27.9031 15.8134 28.5518 16.1808C29.2026 16.5459 29.933 16.6684 30.6655 16.5051C31.4366 16.3419 32.2508 16.6276 32.6976 17.2376C33.2668 18.0925 33.7952 18.9453 34.1604 19.8797ZM32.6567 20.4898C32.3324 19.7186 31.8856 18.9453 31.3572 18.2945C31.2755 18.172 31.1123 18.1312 30.9512 18.172C29.8535 18.4169 28.6764 18.2536 27.699 17.6844C26.683 17.1152 25.9505 16.1808 25.6261 15.0831C25.5853 14.9198 25.4629 14.7995 25.3017 14.7995C24.449 14.6771 23.594 14.6771 22.7412 14.7995C22.578 14.8404 22.4577 14.922 22.4169 15.0831C22.0904 16.1808 21.3579 17.1173 20.3419 17.6844C19.3666 18.2536 18.1873 18.4169 17.051 18.172C16.8878 18.1312 16.7266 18.2128 16.645 18.2945C16.1166 18.9861 15.6698 19.7165 15.3454 20.4898C15.3046 20.653 15.3046 20.8141 15.4271 20.9366C17.0123 22.6851 17.0123 25.3659 15.4271 27.1144C15.3046 27.2369 15.3046 27.398 15.3454 27.5204C15.6698 28.3324 16.1166 29.0649 16.6042 29.7157C16.6858 29.8382 16.8878 29.879 17.0102 29.879C19.3258 29.3506 21.6436 30.7318 22.3739 32.9679C22.4147 33.1312 22.5372 33.2128 22.6983 33.2515C23.1043 33.2923 23.5511 33.3331 23.9571 33.3331C24.4039 33.3331 24.8098 33.2923 25.2566 33.2515C25.4199 33.2107 25.5402 33.129 25.581 32.9679C25.9054 31.8703 26.6378 30.9359 27.6539 30.3666C28.6291 29.7974 29.8084 29.6341 30.9447 29.879C31.108 29.9198 31.2691 29.8382 31.3507 29.7566C31.8791 29.0649 32.3259 28.3345 32.6503 27.5612C32.6911 27.4388 32.6911 27.2369 32.5687 27.1144C30.9834 25.3659 30.9834 22.6851 32.5687 20.9366C32.6976 20.8141 32.6976 20.653 32.6567 20.4898ZM23.8368 28.0897C21.6006 28.0897 19.7726 26.2617 19.7726 24.0255C19.7726 21.7894 21.6028 19.9614 23.8368 19.9614C26.0708 19.9614 27.9009 21.7894 27.9009 24.0255C27.9009 26.2617 26.1137 28.0897 23.8368 28.0897ZM23.8368 26.4636C25.1772 26.4636 26.2748 25.3659 26.2748 24.0255C26.2748 22.6851 25.1772 21.5874 23.8368 21.5874C22.4964 21.5874 21.3987 22.6851 21.3987 24.0255C21.3987 25.3659 22.4964 26.4636 23.8368 26.4636Z" fill="black"/>
</svg>
