<svg viewBox="0 0 24 24" fill="none" xmlns="http://www.w3.org/2000/svg">
<path d="M5.29353 10.8039C4.82511 10.3558 4.40348 9.86125 4.03515 9.32783L3.11135 7.99014C3.06404 7.92159 3.03081 7.84433 3.01359 7.76283C2.99637 7.68134 2.99551 7.59724 3.01104 7.51541C3.02657 7.43358 3.0582 7.35565 3.10408 7.28614C3.14997 7.21662 3.2092 7.15691 3.27834 7.11047C3.41835 7.01572 3.59004 6.97993 3.75625 7.01085C3.92245 7.04177 4.06979 7.13691 4.16636 7.27567L5.09016 8.61277C7.68087 12.3628 12.8503 13.3224 16.6362 10.7568C17.4844 10.1824 18.2185 9.45539 18.8011 8.61277L19.7255 7.27567C19.9241 6.98702 20.3219 6.91366 20.6129 7.11047C20.9045 7.30787 20.9791 7.70208 20.7799 7.99014L19.8555 9.32783C19.4865 9.86198 19.0639 10.357 18.5941 10.8051L20.3594 14.5552C20.395 14.6308 20.4153 14.7127 20.4191 14.7962C20.4229 14.8796 20.4102 14.963 20.3816 15.0416C20.3531 15.1201 20.3093 15.1922 20.2528 15.2538C20.1963 15.3153 20.1281 15.3651 20.0523 15.4002L20.0493 15.4014C19.8962 15.4723 19.7213 15.4797 19.5627 15.4221C19.4042 15.3644 19.2749 15.2464 19.2031 15.0937L17.5803 11.6466C16.7138 12.2709 15.7493 12.7465 14.7266 13.0541L15.614 16.3366C15.6359 16.4174 15.6416 16.5018 15.6308 16.5848C15.62 16.6678 15.5929 16.7479 15.5511 16.8205C15.5092 16.893 15.4535 16.9566 15.387 17.0075C15.3205 17.0584 15.2447 17.0957 15.1637 17.1172H15.1613C14.998 17.1608 14.8241 17.1379 14.6777 17.0535C14.5312 16.9691 14.4242 16.8301 14.3801 16.667L13.4801 13.3391C12.4585 13.5031 11.4226 13.5002 10.4129 13.3379L9.51237 16.667C9.42053 17.0069 9.07104 17.2079 8.7311 17.1178L8.72872 17.1172C8.64779 17.0957 8.57191 17.0584 8.50543 17.0075C8.43896 16.9566 8.3832 16.893 8.34136 16.8205C8.29952 16.7479 8.27242 16.6678 8.26162 16.5848C8.25083 16.5018 8.25654 16.4174 8.27845 16.3366L9.16706 13.0529C8.14194 12.7465 7.17521 12.271 6.30679 11.646L4.68402 15.0931C4.53433 15.4104 4.15682 15.5481 3.83775 15.4008L3.83477 15.3996C3.75884 15.3646 3.6906 15.3149 3.63398 15.2534C3.57736 15.1919 3.53347 15.1198 3.50487 15.0412C3.47626 14.9626 3.46349 14.8792 3.46729 14.7957C3.4711 14.7121 3.4914 14.6302 3.52703 14.5546L5.29353 10.8033V10.8039Z" fill="#112438" stroke="#112438"/>
</svg>
