<svg viewBox="0 0 24 24" fill="none" xmlns="http://www.w3.org/2000/svg">
<path d="M12 4C4.14245 4 1 11.5 1 11.5C1 11.5 4.14245 19 12 19C19.8576 19 23 11.5 23 11.5C23 11.5 19.8547 4 12 4ZM12 15.9978C9.39618 15.9978 7.28489 13.9826 7.28489 11.4973C7.28489 9.01191 9.39618 6.9967 12 6.9967C14.6038 6.9967 16.7151 9.01191 16.7151 11.4973C16.7122 13.9853 14.6009 15.9978 12 15.9978ZM14.3561 11.5C14.3561 12.7427 13.299 13.7489 12 13.7489C10.701 13.7489 9.64101 12.7399 9.64101 11.5C9.64101 10.2573 10.6981 9.2511 11.9971 9.2511C13.3019 9.24835 14.3561 10.2573 14.3561 11.5Z" fill="#112438"/>
</svg>
