<svg viewBox="0 0 24 24" fill="none" xmlns="http://www.w3.org/2000/svg">
<path d="M15.6923 17.5125L14.6538 16.5H6.34615L5.30769 17.5125V18.75H15.6923V17.5125ZM18 16.5V21H3V16.5H3.11538L5.42308 14.25H15.5769L18 16.5ZM15.6923 8.0625C15.6923 10.875 13.3846 13.125 10.5 13.125C7.61538 13.125 5.30769 10.875 5.30769 8.0625C5.30769 5.25 7.61538 3 10.5 3C13.3846 3 15.6923 5.25 15.6923 8.0625ZM13.3846 8.0625C13.3846 6.4875 12.1154 5.25 10.5 5.25C8.88461 5.25 7.61538 6.4875 7.61538 8.0625C7.61538 9.6375 8.88461 10.875 10.5 10.875C12.1154 10.875 13.3846 9.6375 13.3846 8.0625Z" fill="#112438"/>
<rect x="17" y="6" width="4" height="2" fill="#112438"/>
<rect x="17" y="9" width="4" height="2" fill="#112438"/>
</svg>
