<svg viewBox="0 0 24 24" fill="none" xmlns="http://www.w3.org/2000/svg">
<path d="M17.0124 17.1894L16.6269 17.1654L16.3253 17.4066C15.8415 17.7936 15.1567 18.1812 14.6088 18.3638L14.1688 18.5105L13.9965 18.9411L13.573 20H10.427L10.0035 18.9411L9.84964 18.5565L9.46892 18.3934C8.70199 18.0647 8.12855 17.7697 7.6747 17.4066L7.31653 17.1201L6.86571 17.2046L5.76517 17.411L4.21275 14.6943L4.89322 13.8777L5.125 13.5996V13.2375V12C5.125 11.5146 5.13425 11.347 5.18618 11.1912L5.36234 10.6628L5.00572 10.2348L4.32525 9.41825L5.87767 6.70152L6.97821 6.90787L7.42903 6.9924L7.7872 6.70587C8.27097 6.31885 8.95583 5.93131 9.50373 5.74868L9.98931 5.58682L10.142 5.09827L10.4852 4H13.573L13.9965 5.05889L14.1504 5.44348L14.5311 5.60665C15.298 5.93533 15.8714 6.23028 16.3253 6.59337L16.6835 6.8799L17.1343 6.79537L18.2348 6.58902L19.7873 9.30575L19.1068 10.1223L18.7502 10.5503L18.9263 11.0787C18.9772 11.2313 18.9875 11.5033 18.9875 11.8875C18.9875 12.2717 18.9772 12.5437 18.9263 12.6963L18.7502 13.2247L19.1068 13.6527L19.7872 14.4692L18.1908 17.2631L17.0124 17.1894Z" stroke="#112438" stroke-width="2"/>
<circle cx="11.9993" cy="12.0003" r="2.33333" stroke="#112438" stroke-width="2"/>
</svg>
