<svg width="18" height="18" viewBox="0 0 18 18" fill="none" xmlns="http://www.w3.org/2000/svg">
<g clip-path="url(#clip0_3_25098)">
<circle cx="9" cy="9" r="8" fill="#34D026"/>
<path d="M9.16 4C8.18667 4 7.41333 4.28 6.85333 4.85333C6.28 5.41333 6 6.17333 6 7.14667H7.41333C7.41333 6.56 7.53333 6.09333 7.77333 5.77333C8.04 5.4 8.48 5.21333 9.08 5.21333C9.56 5.21333 9.93333 5.34667 10.2 5.61333C10.4533 5.88 10.5867 6.24 10.5867 6.70667C10.5867 7.05333 10.4667 7.37333 10.2267 7.68L10 7.93333C9.17333 8.66667 8.66667 9.21333 8.48 9.58667C8.30667 9.93333 8.22667 10.36 8.22667 10.8533V11.08H9.65333V10.8533C9.65333 10.52 9.72 10.2267 9.86667 9.96C9.98667 9.72 10.1733 9.49333 10.4133 9.28C11.0533 8.73333 11.4267 8.38667 11.5467 8.24C11.8667 7.81333 12.04 7.26667 12.04 6.61333C12.04 5.81333 11.7733 5.17333 11.2533 4.70667C10.72 4.22667 10.0267 4 9.16 4ZM8.93333 12C8.65333 12 8.42667 12.08 8.25333 12.2667C8.05333 12.44 7.96 12.6667 7.96 12.9467C7.96 13.2133 8.05333 13.44 8.25333 13.6267C8.42667 13.8133 8.65333 13.9067 8.93333 13.9067C9.2 13.9067 9.44 13.8133 9.64 13.64C9.82667 13.4533 9.92 13.2267 9.92 12.9467C9.92 12.6667 9.82667 12.44 9.64 12.2667C9.45333 12.08 9.21333 12 8.93333 12Z" fill="white" stroke="white" stroke-width="0.3"/>
</g>
<defs>
<clipPath id="clip0_3_25098">
<rect width="16" height="16" fill="white" transform="translate(1 1)"/>
</clipPath>
</defs>
</svg>
