<svg width="24" height="24" viewBox="0 0 24 24" fill="none" xmlns="http://www.w3.org/2000/svg">
<g>
<path d="M11.25 21.0682C11.25 21.0694 11.2498 21.0707 11.2495 21.0718L6.76013 18.1955C6.75759 18.1931 6.75544 18.1903 6.75378 18.1871C6.75159 18.183 6.7503 18.1785 6.75 18.1738V9V8.72846L6.57617 8.51986L2.01464 3.04602L2.31066 2.75H15.6893L15.9854 3.04602L11.4238 8.51986L11.25 8.72846V9V21.0682Z" stroke="#112438" stroke-width="1.5"/>
<path d="M20.5989 12.5523L20.5987 12.5528C20.552 12.7579 20.4862 12.9582 20.4023 13.1507L19.5249 15.1634L18.9876 13.0345C18.8876 12.6382 18.7394 12.173 18.4199 11.7617C18.116 11.3704 17.622 10.9832 16.743 10.7988C16.6949 10.7908 16.6198 10.7828 16.5092 10.7757C16.479 11.1004 16.4474 11.3587 16.4136 11.4972L16.4135 11.4975C16.267 12.0966 15.9141 12.6559 15.4424 13.215L15.4415 13.2161L15.4023 13.2624L15.3994 13.2661C14.985 13.8563 14.75 14.6088 14.75 15.4189C14.75 17.5673 16.4048 19.25 18.375 19.25C20.3459 19.25 22 17.5668 22 15.3937C22 14.2657 21.4869 13.2261 20.6235 12.5376L20.5989 12.5523ZM20.5989 12.5523C20.6009 12.5433 20.603 12.5338 20.6053 12.5237M20.5989 12.5523L20.3624 12.3742C20.486 12.4434 20.5617 12.4917 20.6053 12.5237M20.6053 12.5237C20.612 12.5287 20.618 12.5332 20.6233 12.5374L20.6053 12.5237Z" stroke="#112438" stroke-width="1.5"/>
</g>
</svg>
