<svg width="24" height="24" viewBox="0 0 24 24" fill="none" xmlns="http://www.w3.org/2000/svg">
<g>
<path d="M11.25 21.0682C11.25 21.0694 11.2498 21.0707 11.2495 21.0718L6.76013 18.1955C6.75759 18.1931 6.75544 18.1903 6.75378 18.1871C6.75159 18.183 6.7503 18.1785 6.75 18.1738V9V8.72846L6.57617 8.51986L2.01464 3.04602L2.31066 2.75H15.6893L15.9854 3.04602L11.4238 8.51986L11.25 8.72846V9V21.0682Z" stroke="#112438" stroke-width="1.5"/>
<path d="M22.1001 10.5C22.321 10.5 22.5001 10.6791 22.5001 10.9L22.5001 19.6C22.5001 19.8209 22.321 20 22.1001 20H21.4028C21.2802 20 21.1644 19.9438 21.0886 19.8474L16.1093 13.5233C16.0977 13.5086 16.08 13.5 16.0612 13.5V13.5C16.0274 13.5 16 13.5274 16 13.5612L16.0001 19.6C16.0001 19.8209 15.821 20 15.6001 20H14.6915C14.4706 20 14.2915 19.8209 14.2915 19.6L14.2914 10.9C14.2914 10.6791 14.4705 10.5 14.6914 10.5H15.5972C15.7198 10.5 15.8357 10.5563 15.9116 10.6527L20.8844 16.9753C20.8967 16.9909 20.9155 17 20.9353 17V17C20.9711 17 21.0001 16.971 21.0001 16.9352L21.0001 10.9C21.0001 10.6791 21.1791 10.5 21.4001 10.5H22.1001Z" fill="#112438"/>
</g>
</svg>
