<svg width="89" height="32" viewBox="0 0 89 32" fill="none" xmlns="http://www.w3.org/2000/svg">
<rect width="89" height="32" rx="6" fill="#34D026"/>
<path d="M35.1859 15.196V19.8392H34V12.1206H35.1457V13.3266H35.2462C35.4271 12.9347 35.7018 12.6198 36.0703 12.3819C36.4388 12.1407 36.9145 12.0201 37.4974 12.0201C38.02 12.0201 38.4772 12.1273 38.8692 12.3417C39.2611 12.5528 39.566 12.8744 39.7837 13.3065C40.0015 13.7353 40.1104 14.2781 40.1104 14.9347V19.8392H38.9245V15.0151C38.9245 14.4087 38.767 13.9363 38.4521 13.598C38.1372 13.2563 37.7051 13.0854 37.1557 13.0854C36.7771 13.0854 36.4388 13.1675 36.1406 13.3317C35.8458 13.4958 35.613 13.7353 35.4422 14.0503C35.2713 14.3652 35.1859 14.7471 35.1859 15.196Z" fill="white"/>
<path d="M47.7445 13.8492L46.6792 14.1508C46.6122 13.9732 46.5134 13.8007 46.3828 13.6332C46.2555 13.4623 46.0813 13.3216 45.8602 13.2111C45.6391 13.1005 45.356 13.0452 45.011 13.0452C44.5386 13.0452 44.145 13.1541 43.8301 13.3719C43.5185 13.5863 43.3628 13.8593 43.3628 14.191C43.3628 14.4858 43.47 14.7186 43.6844 14.8894C43.8988 15.0603 44.2338 15.2027 44.6894 15.3166L45.835 15.598C46.5251 15.7655 47.0394 16.0218 47.3777 16.3668C47.7161 16.7085 47.8852 17.1491 47.8852 17.6884C47.8852 18.1307 47.7579 18.526 47.5033 18.8744C47.2521 19.2228 46.9003 19.4975 46.4481 19.6985C45.9958 19.8995 45.4699 20 44.8703 20C44.083 20 43.4314 19.8291 42.9155 19.4874C42.3996 19.1457 42.073 18.6466 41.9357 17.9899L43.0613 17.7085C43.1685 18.124 43.3711 18.4355 43.6693 18.6432C43.9708 18.8509 44.3644 18.9548 44.8502 18.9548C45.4029 18.9548 45.8417 18.8375 46.1667 18.603C46.495 18.3652 46.6591 18.0804 46.6591 17.7487C46.6591 17.4807 46.5653 17.2563 46.3777 17.0754C46.1901 16.8911 45.902 16.7538 45.5134 16.6633L44.2271 16.3618C43.5202 16.1943 43.001 15.9347 42.6693 15.5829C42.341 15.2278 42.1769 14.7839 42.1769 14.2513C42.1769 13.8157 42.2991 13.4305 42.5437 13.0955C42.7916 12.7605 43.1283 12.4975 43.5537 12.3065C43.9825 12.1156 44.4683 12.0201 45.011 12.0201C45.7747 12.0201 46.3744 12.1876 46.8099 12.5226C47.2487 12.8576 47.5603 13.2998 47.7445 13.8492Z" fill="white"/>
<path d="M51.419 19.8392L49.0674 12.1206H50.3135L51.9818 18.0302H52.0622L53.7104 12.1206H54.9767L56.6048 18.0101H56.6852L58.3535 12.1206H59.5997L57.248 19.8392H56.0822L54.3938 13.9095H54.2732L52.5848 19.8392H51.419Z" fill="white"/>
<path d="M64.141 20C63.3973 20 62.7558 19.8358 62.2164 19.5075C61.6804 19.1759 61.2667 18.7136 60.9753 18.1206C60.6872 17.5243 60.5431 16.8308 60.5431 16.0402C60.5431 15.2496 60.6872 14.5528 60.9753 13.9497C61.2667 13.3434 61.6721 12.871 62.1913 12.5327C62.7139 12.191 63.3236 12.0201 64.0204 12.0201C64.4224 12.0201 64.8194 12.0871 65.2113 12.2211C65.6033 12.3551 65.96 12.5729 66.2816 12.8744C66.6032 13.1725 66.8595 13.5678 67.0504 14.0603C67.2414 14.5528 67.3369 15.1591 67.3369 15.8794V16.3819H61.3873V15.3568H66.1309C66.1309 14.9213 66.0438 14.5327 65.8696 14.191C65.6987 13.8492 65.4542 13.5796 65.1359 13.3819C64.821 13.1843 64.4492 13.0854 64.0204 13.0854C63.548 13.0854 63.1393 13.2027 62.7943 13.4372C62.4526 13.6683 62.1896 13.9698 62.0054 14.3417C61.8211 14.7136 61.729 15.1122 61.729 15.5377V16.2211C61.729 16.804 61.8295 17.2982 62.0305 17.7035C62.2349 18.1055 62.5179 18.4121 62.8797 18.6231C63.2415 18.8308 63.6619 18.9347 64.141 18.9347C64.4525 18.9347 64.7339 18.8911 64.9852 18.804C65.2398 18.7136 65.4592 18.5796 65.6435 18.402C65.8277 18.2211 65.9701 17.9967 66.0706 17.7286L67.2163 18.0503C67.0957 18.4389 66.893 18.7806 66.6082 19.0754C66.3235 19.3668 65.9718 19.5946 65.553 19.7588C65.1343 19.9196 64.6636 20 64.141 20Z" fill="white"/>
<path d="M69.1408 19.8392V12.1206H70.2865V13.2864H70.3669C70.5076 12.9045 70.7622 12.5946 71.1307 12.3568C71.4992 12.1189 71.9146 12 72.3769 12C72.464 12 72.5729 12.0017 72.7035 12.005C72.8342 12.0084 72.933 12.0134 73 12.0201V13.2261C72.9598 13.2161 72.8677 13.201 72.7236 13.1809C72.5829 13.1575 72.4339 13.1457 72.2764 13.1457C71.9012 13.1457 71.5662 13.2245 71.2714 13.3819C70.98 13.536 70.7488 13.7504 70.578 14.0251C70.4105 14.2965 70.3267 14.6064 70.3267 14.9548V19.8392H69.1408Z" fill="white"/>
<g clip-path="url(#clip0_370_3498)">
<path d="M26.4125 22.125H29.125V19.4125C29.65 18.45 30 17.225 30 16C30 12.15 26.85 9 23 9C19.15 9 16 12.15 16 16C16 19.85 19.15 23 23 23C24.225 23 25.3625 22.65 26.4125 22.125Z" fill="white"/>
<path d="M20.4148 20.1002H20.4854L20.509 20.0337L21.3628 17.6286H24.7509L25.6046 20.0337L25.6283 20.1002H25.6989H26.8068H26.9501L26.9007 19.9658L23.6962 11.2385L23.6721 11.1729H23.6023H22.5114H22.4416L22.4175 11.2385L19.213 19.9658L19.1636 20.1002H19.3068H20.4148ZM23.0568 12.8565L24.3471 16.4911H21.7666L23.0568 12.8565Z" fill="#34D026" stroke="#34D026" stroke-width="0.2"/>
</g>
<defs>
<clipPath id="clip0_370_3498">
<rect width="14" height="14" fill="white" transform="translate(16 9)"/>
</clipPath>
</defs>
</svg>
