<svg width="80" height="32" viewBox="0 0 80 32" fill="none" xmlns="http://www.w3.org/2000/svg">
<rect width="80" height="32" rx="6" fill="#34D026"/>
<path d="M30.2472 16.4062V21H29.0739V13.3636H30.2074V14.5568H30.3068C30.4858 14.169 30.7576 13.8575 31.1222 13.6222C31.4867 13.3835 31.9574 13.2642 32.5341 13.2642C33.0511 13.2642 33.5036 13.3703 33.8913 13.5824C34.2791 13.7912 34.5807 14.1094 34.7962 14.5369C35.0116 14.9612 35.1193 15.4981 35.1193 16.1477V21H33.946V16.2273C33.946 15.6274 33.7902 15.16 33.4787 14.8253C33.1671 14.4872 32.7396 14.3182 32.196 14.3182C31.8215 14.3182 31.4867 14.3994 31.1918 14.5618C30.9001 14.7242 30.6697 14.9612 30.5007 15.2727C30.3317 15.5843 30.2472 15.9621 30.2472 16.4062ZM42.6724 15.0739L41.6184 15.3722C41.5521 15.1965 41.4544 15.0258 41.3251 14.8601C41.1992 14.6911 41.0268 14.5518 40.8081 14.4425C40.5893 14.3331 40.3092 14.2784 39.9679 14.2784C39.5005 14.2784 39.1111 14.3861 38.7995 14.6016C38.4913 14.8137 38.3372 15.0838 38.3372 15.4119C38.3372 15.7036 38.4432 15.9339 38.6554 16.103C38.8675 16.272 39.1989 16.4129 39.6497 16.5256L40.7832 16.804C41.466 16.9697 41.9747 17.2232 42.3095 17.5646C42.6442 17.9027 42.8116 18.3385 42.8116 18.8722C42.8116 19.3097 42.6857 19.7008 42.4338 20.0455C42.1852 20.3902 41.8372 20.6619 41.3897 20.8608C40.9423 21.0597 40.4219 21.1591 39.8287 21.1591C39.0498 21.1591 38.4051 20.9901 37.8947 20.652C37.3843 20.3139 37.0611 19.8201 36.9252 19.1705L38.0389 18.892C38.1449 19.303 38.3455 19.6113 38.6404 19.8168C38.9387 20.0223 39.3282 20.125 39.8088 20.125C40.3556 20.125 40.7898 20.009 41.1113 19.777C41.4361 19.5417 41.5985 19.2599 41.5985 18.9318C41.5985 18.6667 41.5057 18.4446 41.3201 18.2656C41.1345 18.0833 40.8495 17.9474 40.465 17.858L39.1923 17.5597C38.493 17.3939 37.9792 17.1371 37.6511 16.7891C37.3263 16.4377 37.1639 15.9986 37.1639 15.4716C37.1639 15.0407 37.2849 14.6596 37.5268 14.3281C37.7721 13.9967 38.1052 13.7365 38.5261 13.5476C38.9503 13.3587 39.4309 13.2642 39.9679 13.2642C40.7235 13.2642 41.3168 13.4299 41.7477 13.7614C42.1819 14.0928 42.4901 14.5303 42.6724 15.0739ZM46.3079 21L43.9812 13.3636H45.2141L46.8647 19.2102H46.9442L48.5749 13.3636H49.8278L51.4386 19.1903H51.5181L53.1687 13.3636H54.4016L52.0749 21H50.9215L49.2511 15.1335H49.1317L47.4613 21H46.3079ZM58.8947 21.1591C58.1589 21.1591 57.5242 20.9967 56.9906 20.6719C56.4603 20.3438 56.051 19.8864 55.7626 19.2997C55.4776 18.7098 55.335 18.0237 55.335 17.2415C55.335 16.4593 55.4776 15.7699 55.7626 15.1733C56.051 14.5734 56.452 14.1061 56.9657 13.7713C57.4828 13.4332 58.086 13.2642 58.7754 13.2642C59.1731 13.2642 59.5659 13.3305 59.9537 13.4631C60.3414 13.5956 60.6944 13.8111 61.0126 14.1094C61.3308 14.4044 61.5843 14.7955 61.7733 15.2827C61.9622 15.7699 62.0566 16.3698 62.0566 17.0824V17.5795H56.1703V16.5653H60.8635C60.8635 16.1345 60.7773 15.75 60.6049 15.4119C60.4359 15.0739 60.194 14.8071 59.8791 14.6115C59.5675 14.416 59.1996 14.3182 58.7754 14.3182C58.3081 14.3182 57.9037 14.4342 57.5623 14.6662C57.2243 14.8949 56.9641 15.1932 56.7818 15.5611C56.5995 15.929 56.5083 16.3234 56.5083 16.7443V17.4205C56.5083 17.9972 56.6078 18.486 56.8066 18.8871C57.0088 19.2848 57.2889 19.5881 57.6468 19.7969C58.0048 20.0024 58.4208 20.1051 58.8947 20.1051C59.2029 20.1051 59.4814 20.062 59.7299 19.9759C59.9818 19.8864 60.1989 19.7538 60.3812 19.5781C60.5635 19.3991 60.7044 19.1771 60.8038 18.9119L61.9373 19.2301C61.818 19.6146 61.6175 19.9527 61.3358 20.2443C61.054 20.5327 60.706 20.758 60.2917 20.9205C59.8774 21.0795 59.4118 21.1591 58.8947 21.1591ZM63.8414 21V13.3636H64.975V14.517H65.0545C65.1937 14.1392 65.4456 13.8326 65.8102 13.5973C66.1748 13.362 66.5858 13.2443 67.0431 13.2443C67.1293 13.2443 67.237 13.246 67.3663 13.2493C67.4956 13.2526 67.5933 13.2576 67.6596 13.2642V14.4574C67.6199 14.4474 67.5287 14.4325 67.3862 14.4126C67.247 14.3894 67.0995 14.3778 66.9437 14.3778C66.5725 14.3778 66.2411 14.4557 65.9494 14.6115C65.661 14.764 65.4324 14.9761 65.2633 15.2479C65.0976 15.5163 65.0147 15.8229 65.0147 16.1676V21H63.8414Z" fill="white"/>
<g clip-path="url(#clip0_224_7840)">
<path d="M22.4125 22.125H25.125V19.4125C25.65 18.45 26 17.225 26 16C26 12.15 22.85 9 19 9C15.15 9 12 12.15 12 16C12 19.85 15.15 23 19 23C20.225 23 21.3625 22.65 22.4125 22.125Z" fill="white"/>
<path d="M16.4148 20.1H16.4854L16.509 20.0335L17.3628 17.6284H20.7509L21.6046 20.0335L21.6283 20.1H21.6989H22.8068H22.9501L22.9007 19.9655L19.6962 11.2383L19.6721 11.1727H19.6023H18.5114H18.4416L18.4175 11.2383L15.213 19.9655L15.1636 20.1H15.3068H16.4148ZM19.0568 12.8563L20.3471 16.4909H17.7666L19.0568 12.8563Z" fill="#34D026" stroke="#34D026" stroke-width="0.2"/>
</g>
<defs>
<clipPath id="clip0_224_7840">
<rect width="14" height="14" fill="white" transform="translate(12 9)"/>
</clipPath>
</defs>
</svg>
