<svg width="184" height="140" viewBox="0 0 184 140" fill="none" xmlns="http://www.w3.org/2000/svg">
<g clip-path="url(#clip0_1170_17274)">
<path d="M38.8981 41.6404C32.1829 50.0478 34.26 61.7633 36.138 66.5701C35.7695 72.7118 33.2806 75.219 30.869 79.0465C25.9258 86.8919 26.1605 97.1903 30.0235 105.62C37.5364 122.015 57.7271 130.357 111.541 127.786C165.135 125.225 156.052 92.0625 144.812 75.801C138.922 62.629 150.245 45.4351 133.897 35.0656C117.548 24.6962 109.931 40.3072 88.5204 33.0642C67.1096 25.8212 47.2922 31.1313 38.8981 41.6404Z" fill="#F6F9F9"/>
<path fill-rule="evenodd" clip-rule="evenodd" d="M161.525 120.766C168.705 120.766 174.525 114.945 174.525 107.766C174.525 100.586 168.705 94.7656 161.525 94.7656C154.346 94.7656 148.525 100.586 148.525 107.766C148.525 114.945 154.346 120.766 161.525 120.766ZM157.979 110.253L157.979 110.252L159.569 103.88C159.58 103.834 159.598 103.764 159.459 103.729L158.074 103.384L158.382 102.165L160.907 102.795L161.423 100.726L162.63 101.016L162.108 103.085L163.066 103.323L163.576 101.263L164.769 101.553L164.252 103.625C164.719 103.766 165.168 103.961 165.59 104.205C166.127 104.545 167.053 105.163 166.849 106.492C166.646 107.821 165.195 108.265 165.195 108.265C165.694 108.548 166.082 108.992 166.297 109.524C166.511 110.056 166.539 110.645 166.376 111.195C165.869 113.253 163.515 113.224 162.894 113.07L161.963 112.835L161.467 114.817L160.228 114.506L160.721 112.527L159.911 112.324L159.418 114.306L158.115 113.981L158.608 111.999L156.168 111.39L156.507 110.026L157.831 110.357C157.946 110.386 157.958 110.337 157.979 110.253ZM163.269 104.681L161.797 104.312L161.159 106.817L162.781 107.223C162.898 107.248 163.018 107.26 163.138 107.261C163.432 107.282 163.724 107.197 163.961 107.021C164.198 106.845 164.364 106.591 164.429 106.303C164.696 105.261 163.521 104.745 163.269 104.681ZM163.164 108.703L160.866 108.122L160.213 110.76L162.433 111.312C162.491 111.325 162.55 111.331 162.61 111.329C163.013 111.329 163.829 111.146 164.035 110.316C164.088 110.153 164.108 109.981 164.093 109.81C164.078 109.639 164.028 109.473 163.947 109.322C163.865 109.171 163.754 109.038 163.619 108.932C163.485 108.825 163.33 108.747 163.164 108.703Z" fill="#DAE5E4"/>
<path fill-rule="evenodd" clip-rule="evenodd" d="M76.7128 11.3564C81.1311 19.0091 78.5091 28.7945 70.8564 33.2128C63.2037 37.6311 53.4183 35.0091 49 27.3564C44.5817 19.7037 47.2037 9.91828 54.8564 5.5C62.5091 1.08172 72.2945 3.70372 76.7128 11.3564ZM57.3035 20.4069L57.5222 10.1199L66.5851 15.1511L64.6333 22.4365L57.3035 20.4069ZM67.2955 27.0534L68.1844 28.593L67.4729 16.6858L65.5177 23.9742L67.2955 27.0534ZM67.2936 27.0545L68.1825 28.5941L58.2263 22.0243L65.5158 23.9753L67.2936 27.0545Z" fill="#DAE5E4"/>
<path fill-rule="evenodd" clip-rule="evenodd" d="M150.054 32.5478C151.412 37.6157 148.404 42.8249 143.336 44.1829C138.268 45.5408 133.059 42.5333 131.701 37.4654C130.343 32.3974 133.351 27.1882 138.418 25.8303C143.486 24.4723 148.696 27.4799 150.054 32.5478ZM142.986 38.8026C144.072 38.4095 144.79 37.3732 144.551 36.4812L144.455 36.1244C144.264 35.4107 143.393 34.8791 142.423 34.884L139.755 34.8976C139.437 34.9191 139.147 34.7419 139.083 34.504L138.988 34.1471C138.892 33.7903 139.13 33.4714 139.583 33.35L141.094 32.9452C141.547 32.8238 141.913 32.9808 142.009 33.3376L143.519 32.9329C143.27 32.0024 142.243 31.4962 141.08 31.6896L140.803 30.6548L138.764 31.2012L139.039 32.2297C137.892 32.6288 137.222 33.6015 137.477 34.5519L137.573 34.9087C137.764 35.6224 138.635 36.154 139.605 36.1491L142.273 36.1355C142.591 36.114 142.881 36.2912 142.945 36.5291L143.04 36.886C143.136 37.2428 142.898 37.5617 142.444 37.6831L140.934 38.0878C140.481 38.2093 140.115 38.0523 140.019 37.6954L138.509 38.1002C138.758 39.03 139.784 39.5362 140.945 39.3439L141.222 40.3775L143.261 39.8311L142.986 38.8026Z" fill="#EEF2F2"/>
<path d="M136.587 124.436L121.469 120.385L128.154 95.4335L103.812 88.9111L107.965 73.4141L147.425 83.9874L136.587 124.436Z" fill="black"/>
<path d="M115.079 47.0681C121.286 48.7395 126.603 52.7781 129.944 58.358C133.285 63.9379 134.398 70.6375 133.054 77.0868L148.201 81.1454C150.648 70.5792 148.995 59.5058 143.59 50.2601C138.184 41.0144 129.45 34.3189 119.228 31.5855C109.011 28.8502 98.1038 30.2861 88.8048 35.5907C79.5057 40.8953 72.5402 49.6547 69.3751 60.024L84.5078 64.0788C86.5676 57.8219 90.8799 52.5758 96.5627 49.4138C102.245 46.2517 108.869 45.4126 115.079 47.0681Z" fill="#33E423"/>
<path d="M101.727 96.9047C95.5269 95.2356 90.2139 91.2037 86.8722 85.6323C83.5306 80.0609 82.4124 73.37 83.746 66.9259L68.6133 62.8711C66.1697 73.4337 67.8224 84.5023 73.2232 93.7458C78.6241 102.989 87.3517 109.686 97.5678 112.426C107.787 115.17 118.699 113.739 128.003 108.434C137.307 103.13 144.275 94.3665 147.439 83.9925L132.293 79.9339C130.224 86.1816 125.909 91.4167 120.229 94.5705C114.549 97.7244 107.931 98.5593 101.727 96.9047Z" fill="black"/>
<g filter="url(#filter0_d_1170_17274)">
<circle cx="137.885" cy="59.9622" r="12.6248" transform="rotate(-15 137.885 59.9622)" fill="white"/>
</g>
<circle cx="6.88625" cy="6.88625" r="6.88625" transform="matrix(-0.965926 0.258819 0.258819 0.965926 137.209 53.0156)" fill="black"/>
<circle cx="128.127" cy="59.6038" r="2.27853" transform="rotate(-28.5523 128.127 59.6038)" fill="white"/>
<circle cx="132.763" cy="60.9757" r="1.13927" transform="rotate(-28.5523 132.763 60.9757)" fill="white"/>
<g filter="url(#filter1_d_1170_17274)">
<circle cx="117.465" cy="44.4622" r="12.6248" transform="rotate(-15 117.465 44.4622)" fill="white"/>
</g>
<circle cx="6.88625" cy="6.88625" r="6.88625" transform="matrix(-0.965926 0.258819 0.258819 0.965926 116.789 37.5156)" fill="black"/>
<circle cx="107.707" cy="44.1038" r="2.27853" transform="rotate(-28.5523 107.707 44.1038)" fill="white"/>
<circle cx="112.343" cy="45.4757" r="1.13927" transform="rotate(-28.5523 112.343 45.4757)" fill="white"/>
<path d="M112.838 119.149L78.3126 130.511C77.6658 130.724 77 130.242 77 129.561V90.5391L112.838 92.8279V119.149Z" fill="white" stroke="#B4CFCC" stroke-width="1.83"/>
<path d="M42.2168 119.039V95.0391L77.0006 90.5391V129.714C77.0006 130.402 76.3223 130.885 75.6725 130.659L42.2168 119.039Z" fill="white" stroke="#B4CFCC" stroke-width="1.83"/>
<path d="M77 89.6067L41.8614 84.2148L38 93.4581L71.9802 104.242L77 89.6067Z" fill="white" stroke="#B4CFCC" stroke-width="1.83"/>
<path d="M77.1479 80L112.838 84.2943L77.1479 90.5405L42.2168 84.6847L77.1479 80Z" fill="white" stroke="#B4CFCC" stroke-width="1.83"/>
<path d="M77.5 80L77 91" stroke="#B4CFCC" stroke-width="1.83"/>
<path d="M81.6337 104.242L77 90.5392L113.297 84.2148L116 94.032L81.6337 104.242Z" fill="white" stroke="#B4CFCC" stroke-width="1.83"/>
<path d="M27.9991 41C29.5232 48.4142 33.7913 61.6609 46.7975 61.2655C56.9585 61.2655 52.0486 49.1399 43.2407 55.8284C33.2991 63.3778 43.8991 76.9223 52.7324 75.7445" stroke="#B4CFCC" stroke-width="1.83" stroke-dasharray="4.54 4.54"/>
<path d="M76.2207 82.2023C65.6207 91.0355 58.7503 82.7912 55.6096 78.0801C63.854 74.5468 67.9762 76.3134 70.3318 78.669C72.2163 80.5534 75.0429 81.8097 76.2207 82.2023Z" fill="#B4CFCC"/>
<mask id="mask0_1170_17274" style="mask-type:alpha" maskUnits="userSpaceOnUse" x="55" y="76" width="22" height="11">
<path opacity="0.67" d="M76.2207 82.2023C65.6207 91.0356 58.7503 82.7912 55.6096 78.08C63.854 74.5467 67.9762 76.3133 70.3318 78.6689C72.2163 80.5534 75.0429 81.8097 76.2207 82.2023Z" fill="#B4CFCC"/>
</mask>
<g mask="url(#mask0_1170_17274)">
<path d="M55.6086 78.082C65.0308 85.7376 72.0975 83.9709 76.2197 82.2043L76.8086 84.5598L72.6864 87.5043L62.0864 86.3265L54.4308 78.082L55.6086 78.082Z" fill="#EEF2F2"/>
</g>
<path d="M31.4666 21.6827C31.535 21.4747 31.8293 21.4747 31.8977 21.6827L32.7693 24.3331C32.7919 24.4016 32.8455 24.4552 32.914 24.4778L35.5644 25.3494C35.7724 25.4178 35.7724 25.7121 35.5644 25.7805L32.914 26.6522C32.8455 26.6747 32.7919 26.7284 32.7693 26.7968L31.8977 29.4472C31.8293 29.6552 31.535 29.6552 31.4666 29.4472L30.5949 26.7968C30.5724 26.7284 30.5187 26.6747 30.4503 26.6522L27.7999 25.7805C27.5919 25.7121 27.5919 25.4178 27.7999 25.3494L30.4503 24.4778C30.5187 24.4552 30.5724 24.4016 30.5949 24.3331L31.4666 21.6827Z" fill="#EEF2F2"/>
<path d="M19.5565 69.3272C19.6249 69.1192 19.9192 69.1192 19.9876 69.3272L21.5611 74.1118C21.5837 74.1802 21.6373 74.2339 21.7058 74.2564L26.4904 75.83C26.6984 75.8984 26.6984 76.1926 26.4904 76.261L21.7058 77.8346C21.6373 77.8571 21.5837 77.9108 21.5611 77.9792L19.9876 82.7638C19.9192 82.9718 19.6249 82.9718 19.5565 82.7638L17.983 77.9792C17.9605 77.9108 17.9068 77.8571 17.8383 77.8346L13.0538 76.261C12.8458 76.1926 12.8458 75.8984 13.0538 75.83L17.8383 74.2564C17.9068 74.2339 17.9605 74.1802 17.983 74.1118L19.5565 69.3272Z" fill="#EEF2F2"/>
<path d="M158.52 71.5967C158.588 71.3887 158.882 71.3887 158.951 71.5967L159.542 73.3935C159.564 73.462 159.618 73.5157 159.686 73.5382L161.483 74.1291C161.691 74.1975 161.691 74.4917 161.483 74.5601L159.686 75.1511C159.618 75.1736 159.564 75.2273 159.542 75.2957L158.951 77.0925C158.882 77.3005 158.588 77.3005 158.52 77.0925L157.929 75.2957C157.906 75.2273 157.853 75.1736 157.784 75.1511L155.987 74.5601C155.779 74.4917 155.779 74.1975 155.987 74.1291L157.784 73.5382C157.853 73.5157 157.906 73.462 157.929 73.3935L158.52 71.5967Z" fill="#EEF2F2"/>
</g>
<defs>
<filter id="filter0_d_1170_17274" x="122.186" y="45.8006" width="31.3971" height="31.3952" filterUnits="userSpaceOnUse" color-interpolation-filters="sRGB">
<feFlood flood-opacity="0" result="BackgroundImageFix"/>
<feColorMatrix in="SourceAlpha" type="matrix" values="0 0 0 0 0 0 0 0 0 0 0 0 0 0 0 0 0 0 127 0" result="hardAlpha"/>
<feOffset dy="1.53532"/>
<feGaussianBlur stdDeviation="1.53532"/>
<feComposite in2="hardAlpha" operator="out"/>
<feColorMatrix type="matrix" values="0 0 0 0 0 0 0 0 0 0 0 0 0 0 0 0 0 0 0.12 0"/>
<feBlend mode="normal" in2="BackgroundImageFix" result="effect1_dropShadow_1170_17274"/>
<feBlend mode="normal" in="SourceGraphic" in2="effect1_dropShadow_1170_17274" result="shape"/>
</filter>
<filter id="filter1_d_1170_17274" x="101.766" y="30.3006" width="31.3971" height="31.3952" filterUnits="userSpaceOnUse" color-interpolation-filters="sRGB">
<feFlood flood-opacity="0" result="BackgroundImageFix"/>
<feColorMatrix in="SourceAlpha" type="matrix" values="0 0 0 0 0 0 0 0 0 0 0 0 0 0 0 0 0 0 127 0" result="hardAlpha"/>
<feOffset dy="1.53532"/>
<feGaussianBlur stdDeviation="1.53532"/>
<feComposite in2="hardAlpha" operator="out"/>
<feColorMatrix type="matrix" values="0 0 0 0 0 0 0 0 0 0 0 0 0 0 0 0 0 0 0.12 0"/>
<feBlend mode="normal" in2="BackgroundImageFix" result="effect1_dropShadow_1170_17274"/>
<feBlend mode="normal" in="SourceGraphic" in2="effect1_dropShadow_1170_17274" result="shape"/>
</filter>
<clipPath id="clip0_1170_17274">
<rect width="184" height="140" fill="white"/>
</clipPath>
</defs>
</svg>
