<svg width="24" height="24" viewBox="0 0 24 24" fill="none" xmlns="http://www.w3.org/2000/svg">
<path d="M16.461 19.8226H5.54034C5.18947 19.8223 4.85305 19.6874 4.60481 19.4476C4.35657 19.2078 4.21677 18.8826 4.21603 18.5433V5.4554C4.21677 5.11595 4.35653 4.7906 4.60472 4.55057C4.85292 4.31054 5.18934 4.17538 5.54034 4.17467V4.17601H16.461C16.8117 4.17708 17.1476 4.31244 17.3953 4.55247C17.643 4.7925 17.7822 5.11765 17.7826 5.45674V13.9036L19 15.0837V5.55877C18.9996 4.88072 18.7211 4.2305 18.2256 3.75079C17.7301 3.27108 17.0581 3.00107 16.3569 3H5.64584C4.94435 3.00071 4.27179 3.27052 3.77576 3.75023C3.27973 4.22994 3.00073 4.88036 3 5.55877V18.4439C3.00147 19.1219 3.28079 19.7716 3.77674 20.2507C4.27269 20.7298 4.94483 20.9993 5.64584 21H16.3555C17.194 21 17.9381 20.612 18.4197 20.02L17.5702 19.197C17.4564 19.3846 17.2945 19.5407 17.1003 19.6502C16.906 19.7598 16.6859 19.8192 16.461 19.8226Z" fill="white" stroke="white" stroke-width="0.3"/>
<path d="M13.7425 14.7445C13.7425 14.7445 12.9325 12.7654 13.1266 12.5832C13.3207 12.3997 15.4244 13.1627 15.4244 13.1627L13.7425 14.7445ZM20.4499 17.8624L18.7424 19.4707L13.8463 14.8659L15.5551 13.2602L20.4499 17.8624ZM19.2586 19.9604C19.2863 19.9859 19.3236 20.0002 19.3624 20.0002C19.4012 20.0002 19.4384 19.9859 19.4661 19.9604L20.9553 18.5622C20.9694 18.5496 20.9807 18.5345 20.9884 18.5178C20.996 18.501 21 18.483 21 18.4647C21 18.4465 20.996 18.4285 20.9884 18.4117C20.9807 18.3949 20.9694 18.3798 20.9553 18.3673L20.5187 17.9548L18.8179 19.5492L19.2586 19.9604Z" fill="white"/>
<rect x="7" y="7" width="7" height="1" rx="0.5" fill="white" stroke="white" stroke-width="0.5"/>
<rect x="7" y="10" width="5" height="1" rx="0.5" fill="white" stroke="white" stroke-width="0.5"/>
</svg>
