<svg width="24" height="24" viewBox="0 0 24 24" fill="none" xmlns="http://www.w3.org/2000/svg">
<g clip-path="url(#clip0_288_187)">
<path d="M3.00003 12.85V4.40005C2.99871 4.17811 3.04112 3.95809 3.12484 3.75255C3.20855 3.547 3.33194 3.35996 3.48794 3.2021C3.64394 3.04424 3.82951 2.91865 4.03405 2.83251C4.23859 2.74637 4.45809 2.70136 4.68003 2.70005H6.24003V14.55H4.68003C4.45809 14.5487 4.23859 14.5037 4.03405 14.4176C3.82951 14.3314 3.64394 14.2059 3.48794 14.048C3.33194 13.8901 3.20855 13.7031 3.12484 13.4975C3.04112 13.292 2.99871 13.072 3.00003 12.85Z" fill="white"/>
<path d="M20.63 13.93C20.3288 14.3241 19.9416 14.6442 19.498 14.866C19.0544 15.0878 18.566 15.2055 18.07 15.21H15.62C15.7863 15.9951 15.8468 16.7989 15.8 17.6C15.764 18.3959 15.5041 19.1654 15.05 19.82C14.7603 20.2124 14.3793 20.5282 13.94 20.74C13.5931 20.9059 13.2144 20.9946 12.83 21C12.1182 21.0189 11.4279 20.7547 10.9106 20.2655C10.3932 19.7762 10.0909 19.1018 10.07 18.39C10.115 17.6466 9.94337 16.9061 9.57596 16.2582C9.20855 15.6104 8.66111 15.083 8 14.74V2.74003H16.6C17.3539 2.74352 18.0853 2.99671 18.68 3.46003C19.2792 3.92864 19.6993 4.58878 19.87 5.33003L21.23 11.27C21.328 11.7304 21.3251 12.2066 21.2215 12.6658C21.1179 13.125 20.9161 13.5563 20.63 13.93Z" fill="white"/>
</g>
<defs>
<clipPath id="clip0_288_187">
<rect width="18.3" height="18.3" fill="white" transform="matrix(1 0 0 -1 3 21)"/>
</clipPath>
</defs>
</svg>
