<svg width="16" height="16" viewBox="0 0 16 16" fill="none" xmlns="http://www.w3.org/2000/svg">
<g clip-path="url(#clip0_85_1513)">
<path d="M14.74 6.73C14.5962 6.48049 14.3914 6.2716 14.1448 6.12292C13.8981 5.97424 13.6178 5.89065 13.33 5.88H10C10.2268 5.20316 10.3417 4.49383 10.34 3.78C10.3398 3.31315 10.2929 2.8475 10.2 2.39C10.1232 1.96641 9.88758 1.58811 9.54132 1.33231C9.19506 1.07652 8.76423 0.962502 8.33677 1.01354C7.9093 1.06458 7.51743 1.27683 7.24114 1.60696C6.96484 1.9371 6.82494 2.36023 6.85 2.79C6.84503 2.84321 6.84503 2.89678 6.85 2.95C6.83199 3.67167 6.59861 4.37148 6.17986 4.95952C5.76111 5.54755 5.1761 5.99696 4.5 6.25V15H12.5C12.8308 15.0003 13.1543 14.9029 13.43 14.72C13.6787 14.533 13.8751 14.285 14 14C14.0368 13.9414 14.0638 13.8772 14.08 13.81L15 8C15.0098 7.93034 15.0098 7.85965 15 7.79C15.0189 7.41884 14.9285 7.0503 14.74 6.73Z" fill="white"/>
<path d="M1.6601 6.48H1.5901C1.51091 6.47995 1.43251 6.49585 1.3596 6.52674C1.28668 6.55763 1.22073 6.60289 1.16567 6.65981C1.11062 6.71674 1.06758 6.78416 1.03914 6.85807C1.01069 6.93197 0.997413 7.01085 1.0001 7.09V14.39C0.997431 14.4683 1.01039 14.5464 1.03822 14.6196C1.06605 14.6929 1.10819 14.7598 1.16218 14.8166C1.21617 14.8734 1.28094 14.9189 1.35269 14.9504C1.42444 14.9818 1.50175 14.9987 1.5801 15H3.3301V6.48H1.6601Z" fill="white"/>
</g>
<defs>
<clipPath id="clip0_85_1513">
<rect width="14" height="14" fill="white" transform="translate(1 1)"/>
</clipPath>
</defs>
</svg>
