<svg width="24" height="24" viewBox="0 0 24 24" fill="none" xmlns="http://www.w3.org/2000/svg">
<path d="M7.28456 14.7521C7.77824 15.0583 8.31142 15.3075 8.87563 15.4908L4.69258 20.3235H11.8479L11.4535 22H4.69258C4.3689 22 4.052 21.9081 3.77947 21.7351C3.50693 21.5621 3.29017 21.3154 3.1549 21.0242C3.01963 20.7329 2.97151 20.4093 3.01625 20.0918C3.06098 19.7743 3.1967 19.4762 3.40731 19.2327L7.28456 14.7521ZM16.2916 14.0736C16.5636 13.9374 16.879 13.9137 17.1686 14.0078C17.4582 14.1019 17.6982 14.3061 17.8358 14.5755L18.5129 15.9016L20.0126 16.1128C20.2366 16.1441 20.4459 16.2402 20.614 16.3883L20.6834 16.4554C20.8934 16.674 21.0072 16.9663 20.9996 17.268C20.9921 17.5697 20.864 17.8561 20.6433 18.0642L19.5753 19.0706L19.8292 20.4996C19.8659 20.7091 19.8433 20.9243 19.7637 21.1199L19.7192 21.2165C19.58 21.4851 19.3388 21.6878 19.0487 21.7803C18.7586 21.8727 18.4433 21.8472 18.1721 21.7094L16.8101 21.0165L15.4481 21.7094C15.2578 21.8061 15.044 21.8483 14.8309 21.8312L14.7248 21.8178C14.5761 21.792 14.434 21.7374 14.3067 21.6571C14.1793 21.5769 14.0692 21.4726 13.9825 21.3501C13.8958 21.2277 13.8344 21.0896 13.8016 20.9437C13.7689 20.7977 13.7655 20.6468 13.7916 20.4996L14.0444 19.0706L12.9774 18.0642C12.814 17.91 12.7 17.7116 12.6496 17.4936L12.6316 17.3992C12.5889 17.1004 12.6677 16.7971 12.8508 16.5559C13.0338 16.3147 13.306 16.1553 13.6077 16.1128L15.1073 15.9016L15.7844 14.5755C15.8797 14.3899 16.0236 14.2346 16.2008 14.1245L16.2916 14.0736ZM16.8107 15.7864L16.0716 17.2338L14.4636 17.4596L15.6258 18.5549L15.3466 20.1274L16.8101 19.3841L18.2731 20.1274L17.9944 18.5549L19.1567 17.4596L17.5487 17.2338L16.8107 15.7864ZM11.168 3C14.2836 3 16.8101 5.50185 16.8101 8.58823C16.8101 11.6746 14.2836 14.1765 11.168 14.1765C8.05132 14.1765 5.52592 11.6746 5.52592 8.58823C5.52592 5.50185 8.05132 3 11.168 3ZM11.168 4.67647C10.1205 4.67647 9.11599 5.0886 8.37532 5.8222C7.63465 6.5558 7.21855 7.55077 7.21855 8.58823C7.21855 9.6257 7.63465 10.6207 8.37532 11.3543C9.11599 12.0879 10.1205 12.5 11.168 12.5C12.2155 12.5 13.22 12.0879 13.9607 11.3543C14.7014 10.6207 15.1175 9.6257 15.1175 8.58823C15.1175 7.55077 14.7014 6.5558 13.9607 5.8222C13.22 5.0886 12.2155 4.67647 11.168 4.67647Z" fill="white"/>
</svg>
