<svg width="20" height="20" viewBox="0 0 20 20" fill="none" xmlns="http://www.w3.org/2000/svg">
<g opacity="0.6">
<path d="M10.5 3.00002C7.98626 3.00002 5.76583 4.23932 4.40624 6.13817V4.87502C4.40624 4.48667 4.09143 4.17189 3.70312 4.17189C3.31481 4.17189 3 4.48668 3 4.87502V7.68751C3 8.07577 3.31481 8.39064 3.70312 8.39064H6.74997C7.13828 8.39064 7.45309 8.07579 7.45309 7.68751C7.45309 7.29916 7.13828 6.98439 6.74997 6.98439H5.52693C6.63004 5.42529 8.44479 4.40628 10.5 4.40628C13.8654 4.40628 16.5937 7.13456 16.5937 10.5C16.5937 13.8654 13.8654 16.5938 10.5 16.5938C7.66346 16.5938 5.2866 14.6528 4.60734 12.0287L4.59513 12.0325C4.50039 11.7563 4.24591 11.5547 3.93748 11.5547C3.54917 11.5547 3.23436 11.8694 3.23436 12.2577C3.23436 12.327 3.25516 12.3898 3.27378 12.4529L3.26647 12.4553C3.27108 12.4723 3.27955 12.4875 3.28426 12.5044C3.28943 12.5181 3.29287 12.5317 3.29885 12.545C4.19101 15.69 7.06918 18 10.5001 18C14.6422 18 18 14.6421 18 10.5C18 6.35784 14.6421 3.00002 10.5 3.00002ZM10.5 6.16402C10.1117 6.16402 9.79689 6.4788 9.79689 6.86714V11.0859C9.79689 11.4742 10.1117 11.789 10.5 11.789H13.5468C13.9352 11.789 14.25 11.4742 14.25 11.086C14.25 10.6975 13.9352 10.3828 13.5468 10.3828H11.2031V6.86714C11.2031 6.47879 10.8883 6.16402 10.5 6.16402Z" fill="black" stroke="black" stroke-width="0.5"/>
</g>
</svg>
