<svg width="20" height="20" viewBox="0 0 20 20" fill="none" xmlns="http://www.w3.org/2000/svg">
<path d="M10 3.00001C7.65384 3.00001 5.58144 4.15669 4.31249 5.92896V4.75002C4.31249 4.38755 4.01867 4.09377 3.65624 4.09377C3.29382 4.09377 3 4.38757 3 4.75002V7.37501C3 7.73739 3.29382 8.03126 3.65624 8.03126H6.49997C6.8624 8.03126 7.15622 7.7374 7.15622 7.37501C7.15622 7.01255 6.8624 6.71876 6.49997 6.71876H5.35847C6.38804 5.26361 8.0818 4.31253 10 4.31253C13.141 4.31253 15.6875 6.85892 15.6875 10C15.6875 13.1411 13.141 15.6875 10 15.6875C7.35256 15.6875 5.13416 13.876 4.50018 11.4268L4.48879 11.4303C4.40037 11.1725 4.16285 10.9843 3.87498 10.9843C3.51256 10.9843 3.21874 11.2781 3.21874 11.6405C3.21874 11.7052 3.23815 11.7638 3.25553 11.8227L3.2487 11.8249C3.25301 11.8408 3.26091 11.855 3.26531 11.8708C3.27013 11.8836 3.27334 11.8963 3.27893 11.9087C4.1116 14.844 6.7979 17 10.0001 17C13.866 17 17 13.866 17 10C17 6.13398 13.866 3.00001 10 3.00001ZM10 5.95308C9.63758 5.95308 9.34376 6.24688 9.34376 6.60933V10.5468C9.34376 10.9093 9.63758 11.2031 10 11.2031H12.8437C13.2061 11.2031 13.5 10.9093 13.5 10.5469C13.5 10.1844 13.2061 9.89065 12.8437 9.89065H10.6563V6.60933C10.6563 6.24687 10.3624 5.95308 10 5.95308Z" fill="white" stroke="white" stroke-width="0.5"/>
</svg>
