<svg width="20" height="20" viewBox="0 0 20 20" fill="none" xmlns="http://www.w3.org/2000/svg">
<path d="M9.9999 18.1173C9.07773 18.1173 8.18305 17.9294 7.34071 17.5588C6.52916 17.2018 5.80088 16.6913 5.17609 16.0414C4.55303 15.3933 4.06399 14.6391 3.72259 13.7995C3.36964 12.9315 3.19067 12.0102 3.19067 11.061C3.19067 9.72198 3.55428 8.41875 4.24216 7.2922C4.42933 6.98564 4.82964 6.88886 5.13619 7.07606C5.44275 7.26325 5.53952 7.66352 5.35233 7.9701C4.78914 8.89245 4.49144 9.96127 4.49144 11.061C4.49144 14.2346 6.96252 16.8165 9.99988 16.8165C13.0372 16.8165 15.5083 14.2346 15.5083 11.061C15.5083 9.11829 14.5797 7.31971 13.0242 6.24979C12.7282 6.04621 12.6533 5.64128 12.8569 5.34534C13.0605 5.04939 13.4654 4.97449 13.7613 5.17807C15.6697 6.49075 16.8091 8.68998 16.8091 11.061C16.8091 12.0102 16.6301 12.9315 16.2772 13.7995C15.9358 14.6391 15.4467 15.3934 14.8237 16.0415C14.1989 16.6913 13.4706 17.2018 12.6591 17.5589C11.8168 17.9294 10.9221 18.1173 9.9999 18.1173Z" fill="white" stroke="white" stroke-width="0.5"/>
<path d="M6.18114 10.0886C6.14505 10.0886 6.1087 10.0856 6.07236 10.0795C5.66072 10.0097 5.28833 9.66632 4.78707 8.89422C4.4983 8.44942 4.27449 8.02102 4.2651 8.003C4.09917 7.68444 4.22288 7.29165 4.54145 7.1257C4.85995 6.95974 5.25273 7.08342 5.41869 7.40194C5.42241 7.40904 5.59227 7.73336 5.81405 8.08567C5.90045 8.22292 5.97639 8.3356 6.04238 8.42794C6.20826 8.13488 6.40999 7.74833 6.61249 7.28671C7.0502 6.2888 7.58245 4.72243 7.63233 2.92727C7.63528 2.8212 7.66413 2.71746 7.71637 2.62511C7.76861 2.53275 7.84265 2.45457 7.93204 2.3974C8.02143 2.34023 8.12345 2.3058 8.2292 2.29711C8.33496 2.28842 8.44123 2.30573 8.53875 2.34754C8.57431 2.36278 9.42029 2.73104 10.3322 3.60654C10.8642 4.11739 11.3158 4.7003 11.6744 5.33906C11.9317 5.79746 12.1409 6.2849 12.3004 6.79656C12.4368 6.52656 12.5779 6.14639 12.6946 5.61338C12.7714 5.2625 13.1181 5.04032 13.4691 5.11713C13.82 5.19395 14.0421 5.5407 13.9653 5.89157C13.4242 8.36297 12.2607 8.67199 12.0329 8.70885C11.9483 8.72255 11.8619 8.71939 11.7785 8.69956C11.6951 8.67974 11.6165 8.64363 11.5472 8.59332C11.4778 8.54301 11.419 8.47949 11.3743 8.40641C11.3296 8.33332 11.2997 8.25212 11.2865 8.16746C10.9412 5.96357 9.69806 4.68452 8.85048 4.05047C8.65993 5.60705 8.1887 6.93809 7.78804 7.84484C7.25448 9.05235 6.73153 9.78667 6.70954 9.81735C6.64932 9.90126 6.56999 9.96964 6.4781 10.0168C6.38622 10.064 6.28442 10.0886 6.18114 10.0886Z" fill="white" stroke="white" stroke-width="0.5"/>
</svg>
