<svg width="20" height="20" viewBox="0 0 20 20" fill="none" xmlns="http://www.w3.org/2000/svg">
<path d="M4.12623 14.6973L4.21503 14.3716L4.04372 14.0808C3.83614 13.7284 3.70911 13.507 3.65076 13.3982L3.65065 13.3979C3.09059 12.3534 2.79832 11.1863 2.80001 10.0011V10C2.80001 6.02364 6.02364 2.8 10 2.8C13.9764 2.8 17.2 6.02364 17.2 10C17.2 13.9764 13.9764 17.2 10 17.2L9.99882 17.2C8.69702 17.2019 7.41929 16.8491 6.30291 16.1795L6.29909 16.1772C6.17213 16.1021 6.04487 16.0274 5.9173 15.9533L5.62783 15.7851L5.30485 15.8732L3.68508 16.315L4.12623 14.6973Z" stroke="#FF7B3A" stroke-width="1.6"/>
<path d="M10.1806 13.7031L10.152 13.8774H10.3286H11.0429H11.1703L11.1909 13.7517L11.5031 11.8488H12.4571H12.5851L12.6053 11.7225L12.7195 11.0082L12.7473 10.8345H12.5714H11.6695L11.9203 9.30594H12.8857H13.0136L13.0338 9.17964L13.1481 8.46536L13.1759 8.29166H13H12.0867L12.3909 6.43737L12.4195 6.26309H12.2429H11.5286H11.4012L11.3806 6.3888L11.0684 8.29166H9.51523L9.81945 6.43737L9.84804 6.26309H9.67143H8.95714H8.82975L8.80912 6.3888L8.49693 8.29166H7.54286H7.41495L7.39474 8.41796L7.28046 9.13224L7.25266 9.30594H7.42857H8.33053L8.07975 10.8345H7.11429H6.98638L6.96617 10.9608L6.85188 11.6751L6.82409 11.8488H7H7.91334L7.60912 13.7031L7.58053 13.8774H7.75714H8.47143H8.59882L8.61945 13.7517L8.93164 11.8488H10.4848L10.1806 13.7031ZM9.34882 9.30594H10.902L10.6512 10.8345H9.09804L9.34882 9.30594Z" fill="#FF7B3A" stroke="#FF7B3A" stroke-width="0.3"/>
</svg>
