<svg width="20" height="20" viewBox="0 0 20 20" fill="none" xmlns="http://www.w3.org/2000/svg">
<path d="M13.363 6.04002L13.3632 6.03931C13.381 5.9606 13.4047 5.85174 13.434 5.71407C13.5748 5.79732 13.666 5.85894 13.7219 5.90347C15.1506 7.04244 16 8.76322 16 10.6299C16 14.2076 13.2734 17 10 17C6.72863 17 4 14.2093 4 10.6702C4 9.33429 4.38804 8.08809 5.07796 7.10712L5.0881 7.09398L5.15374 7.01649L5.15497 7.01504C5.90095 6.13089 6.44356 5.26382 6.66738 4.34843L6.66746 4.3481C6.72421 4.11569 6.77923 3.64133 6.83299 3.03076C7.13599 3.04511 7.32699 3.06378 7.43825 3.08357L7.4393 3.08375C9.32479 3.41698 10.7974 4.89309 11.1624 6.75405L11.7793 9.89988L13.0604 6.96121C13.1896 6.66461 13.2909 6.35611 13.363 6.04002Z" stroke="#FF7B3A" stroke-width="2"/>
</svg>
