<svg width="24" height="24" viewBox="0 0 24 24" fill="none" xmlns="http://www.w3.org/2000/svg">
<path d="M20.25 3.9L20.25 10.515C20.25 10.5978 20.1828 10.665 20.1 10.665L13.485 10.665C13.4022 10.665 13.335 10.5978 13.335 10.515L13.335 3.9C13.335 3.81717 13.4022 3.75 13.485 3.75L20.1 3.75C20.1828 3.75 20.25 3.81717 20.25 3.9ZM16.7925 13.335C18.702 13.335 20.25 14.883 20.25 16.7925C20.25 18.702 18.702 20.25 16.7925 20.25C14.883 20.25 13.335 18.702 13.335 16.7925C13.335 14.883 14.883 13.335 16.7925 13.335ZM3.75 10.515L3.75 3.9C3.75 3.81717 3.81717 3.75 3.9 3.75L10.515 3.75C10.5978 3.75 10.665 3.81717 10.665 3.9L10.665 10.515C10.665 10.5978 10.5978 10.665 10.515 10.665L3.9 10.665C3.81717 10.665 3.75 10.5978 3.75 10.515ZM3.75 13.485C3.75 13.4022 3.81716 13.335 3.9 13.335L10.515 13.335C10.5978 13.335 10.665 13.4022 10.665 13.485L10.665 20.1C10.665 20.1828 10.5978 20.25 10.515 20.25L3.9 20.25C3.81716 20.25 3.75 20.1828 3.75 20.1L3.75 13.485Z" stroke="white" stroke-width="1.5"/>
</svg>
