<svg width="184" height="140" viewBox="0 0 184 140" fill="none" xmlns="http://www.w3.org/2000/svg">
<g clip-path="url(#clip0_95_2326)">
<path d="M38.8981 41.6419C32.1829 50.0493 34.26 61.7647 36.138 66.5715C35.7695 72.7133 33.2806 75.2204 30.869 79.0479C25.9258 86.8934 26.1605 97.1918 30.0235 105.622C37.5364 122.016 57.7271 130.358 111.541 127.787C165.135 125.227 156.052 92.0639 144.812 75.8025C138.922 62.6305 150.245 45.4365 133.897 35.0671C117.548 24.6976 109.931 40.3087 88.5204 33.0657C67.1096 25.8227 47.2922 31.1327 38.8981 41.6419Z" fill="#F6F9F9"/>
<path fill-rule="evenodd" clip-rule="evenodd" d="M161.525 120.764C168.705 120.764 174.525 114.944 174.525 107.764C174.525 100.585 168.705 94.7644 161.525 94.7644C154.346 94.7644 148.525 100.585 148.525 107.764C148.525 114.944 154.346 120.764 161.525 120.764ZM157.979 110.252L157.979 110.251L159.569 103.879C159.58 103.832 159.598 103.763 159.459 103.728L158.074 103.383L158.382 102.164L160.907 102.794L161.423 100.725L162.63 101.015L162.108 103.084L163.066 103.322L163.576 101.261L164.769 101.552L164.252 103.623C164.719 103.765 165.168 103.96 165.59 104.204C166.127 104.543 167.053 105.161 166.849 106.49C166.646 107.819 165.195 108.263 165.195 108.263C165.694 108.547 166.082 108.991 166.297 109.523C166.511 110.055 166.539 110.644 166.376 111.194C165.869 113.252 163.515 113.223 162.894 113.069L161.963 112.834L161.467 114.816L160.228 114.505L160.721 112.526L159.911 112.323L159.418 114.305L158.115 113.98L158.608 111.998L156.168 111.389L156.507 110.025L157.831 110.356C157.946 110.385 157.958 110.336 157.979 110.252ZM163.269 104.68L161.797 104.311L161.159 106.815L162.781 107.222C162.898 107.247 163.018 107.259 163.138 107.259C163.432 107.281 163.724 107.196 163.961 107.02C164.198 106.844 164.364 106.589 164.429 106.302C164.696 105.26 163.521 104.744 163.269 104.68ZM163.164 108.702L160.866 108.121L160.213 110.759L162.433 111.31C162.491 111.324 162.55 111.33 162.61 111.328C163.013 111.328 163.829 111.145 164.035 110.315C164.088 110.152 164.108 109.98 164.093 109.809C164.078 109.638 164.028 109.472 163.947 109.321C163.865 109.17 163.754 109.037 163.619 108.931C163.485 108.824 163.33 108.746 163.164 108.702Z" fill="#DAE5E4"/>
<path fill-rule="evenodd" clip-rule="evenodd" d="M76.7128 11.3564C81.1311 19.0091 78.5091 28.7945 70.8564 33.2128C63.2037 37.6311 53.4183 35.0091 49 27.3564C44.5817 19.7037 47.2037 9.91828 54.8564 5.5C62.5091 1.08172 72.2945 3.70372 76.7128 11.3564ZM57.3035 20.4069L57.5222 10.1199L66.5851 15.1511L64.6333 22.4365L57.3035 20.4069ZM67.2955 27.0534L68.1844 28.593L67.4729 16.6858L65.5177 23.9742L67.2955 27.0534ZM67.2936 27.0545L68.1825 28.5941L58.2263 22.0243L65.5158 23.9753L67.2936 27.0545Z" fill="#DAE5E4"/>
<path fill-rule="evenodd" clip-rule="evenodd" d="M150.054 32.5468C151.412 37.6147 148.404 42.8239 143.336 44.1819C138.268 45.5398 133.059 42.5323 131.701 37.4644C130.343 32.3965 133.351 27.1873 138.418 25.8293C143.486 24.4714 148.696 27.4789 150.054 32.5468ZM142.986 38.8016C144.072 38.4085 144.79 37.3722 144.551 36.4802L144.455 36.1234C144.264 35.4097 143.393 34.8781 142.423 34.883L139.755 34.8966C139.437 34.9181 139.147 34.7409 139.083 34.503L138.988 34.1461C138.892 33.7893 139.13 33.4704 139.583 33.349L141.094 32.9443C141.547 32.8229 141.913 32.9798 142.009 33.3367L143.519 32.9319C143.27 32.0014 142.243 31.4952 141.08 31.6886L140.803 30.6538L138.764 31.2002L139.039 32.2288C137.892 32.6278 137.222 33.6005 137.477 34.5509L137.573 34.9077C137.764 35.6214 138.635 36.153 139.605 36.1481L142.273 36.1345C142.591 36.113 142.881 36.2902 142.945 36.5281L143.04 36.885C143.136 37.2418 142.898 37.5607 142.444 37.6821L140.934 38.0869C140.481 38.2083 140.115 38.0513 140.019 37.6945L138.509 38.0992C138.758 39.029 139.784 39.5352 140.945 39.3429L141.222 40.3765L143.261 39.8301L142.986 38.8016Z" fill="#EEF2F2"/>
<path d="M136.587 124.435L121.469 120.384L128.154 95.4328L103.812 88.9105L107.965 73.4135L147.425 83.9868L136.587 124.435Z" fill="black"/>
<path d="M115.079 47.0688C121.286 48.7402 126.603 52.7788 129.944 58.3587C133.285 63.9386 134.398 70.6383 133.054 77.0875L148.201 81.1461C150.648 70.58 148.995 59.5066 143.59 50.2609C138.184 41.0151 129.45 34.3197 119.228 31.5863C109.011 28.8509 98.1038 30.2868 88.8048 35.5914C79.5057 40.8961 72.5402 49.6554 69.3751 60.0247L84.5078 64.0795C86.5676 57.8226 90.8799 52.5766 96.5627 49.4145C102.245 46.2525 108.869 45.4133 115.079 47.0688Z" fill="#33E423"/>
<path d="M101.727 96.9042C95.5269 95.2351 90.2139 91.2032 86.8722 85.6318C83.5306 80.0604 82.4124 73.3696 83.746 66.9254L68.6133 62.8706C66.1697 73.4332 67.8224 84.5019 73.2232 93.7453C78.6241 102.989 87.3517 109.686 97.5678 112.425C107.787 115.169 118.699 113.738 128.003 108.434C137.307 103.129 144.275 94.3661 147.439 83.992L132.293 79.9334C130.224 86.1811 125.909 91.4162 120.229 94.5701C114.549 97.7239 107.931 98.5588 101.727 96.9042Z" fill="black"/>
<g filter="url(#filter0_d_95_2326)">
<circle cx="137.885" cy="59.9614" r="12.6248" transform="rotate(-15 137.885 59.9614)" fill="white"/>
</g>
<circle cx="6.88625" cy="6.88625" r="6.88625" transform="matrix(-0.965926 0.258819 0.258819 0.965926 137.209 53.0147)" fill="black"/>
<circle cx="128.127" cy="59.6053" r="2.27853" transform="rotate(-28.5523 128.127 59.6053)" fill="white"/>
<circle cx="132.763" cy="60.9743" r="1.13927" transform="rotate(-28.5523 132.763 60.9743)" fill="white"/>
<g filter="url(#filter1_d_95_2326)">
<circle cx="117.465" cy="44.4621" r="12.6248" transform="rotate(-15 117.465 44.4621)" fill="white"/>
</g>
<circle cx="6.88625" cy="6.88625" r="6.88625" transform="matrix(-0.965926 0.258819 0.258819 0.965926 116.789 37.5157)" fill="black"/>
<circle cx="107.707" cy="44.1062" r="2.27853" transform="rotate(-28.5523 107.707 44.1062)" fill="white"/>
<circle cx="112.343" cy="45.4753" r="1.13927" transform="rotate(-28.5523 112.343 45.4753)" fill="white"/>
<path d="M112.838 119.151L78.3126 130.513C77.6658 130.725 77 130.244 77 129.563V90.5405L112.838 92.8293V119.151Z" fill="white" stroke="#B4CFCC" stroke-width="1.83"/>
<path d="M42.2168 119.041V95.0405L77.0006 90.5405V129.716C77.0006 130.404 76.3223 130.886 75.6725 130.66L42.2168 119.041Z" fill="white" stroke="#B4CFCC" stroke-width="1.83"/>
<path d="M77 89.6082L41.8614 84.2163L38 93.4596L71.9802 104.243L77 89.6082Z" fill="white" stroke="#B4CFCC" stroke-width="1.83"/>
<path d="M77.1479 80L112.838 84.2943L77.1479 90.5405L42.2168 84.6847L77.1479 80Z" fill="white" stroke="#B4CFCC" stroke-width="1.83"/>
<path d="M77.5 80L77 91" stroke="#B4CFCC" stroke-width="1.83"/>
<path d="M81.6337 104.243L77 90.5406L113.297 84.2163L116 94.0335L81.6337 104.243Z" fill="white" stroke="#B4CFCC" stroke-width="1.83"/>
<path d="M27.9991 41C29.5232 48.4142 33.7913 61.6609 46.7975 61.2655C56.9585 61.2655 52.0486 49.1399 43.2407 55.8284C33.2991 63.3778 43.8991 76.9223 52.7324 75.7445" stroke="#B4CFCC" stroke-width="1.83" stroke-dasharray="4.54 4.54"/>
<path d="M76.2207 82.2006C65.6207 91.0338 58.7503 82.7895 55.6096 78.0784C63.854 74.5451 67.9762 76.3117 70.3318 78.6673C72.2163 80.5517 75.0429 81.808 76.2207 82.2006Z" fill="#B4CFCC"/>
<mask id="mask0_95_2326" style="mask-type:alpha" maskUnits="userSpaceOnUse" x="55" y="76" width="22" height="11">
<path opacity="0.67" d="M76.2207 82.2005C65.6207 91.0338 58.7503 82.7894 55.6096 78.0782C63.854 74.5449 67.9762 76.3115 70.3318 78.6671C72.2163 80.5516 75.0429 81.8079 76.2207 82.2005Z" fill="#B4CFCC"/>
</mask>
<g mask="url(#mask0_95_2326)">
<path d="M55.6086 78.0784C65.0308 85.734 72.0975 83.9673 76.2197 82.2006L76.8086 84.5562L72.6864 87.5006L62.0864 86.3229L54.4308 78.0784L55.6086 78.0784Z" fill="#EEF2F2"/>
</g>
<path d="M31.4666 21.6834C31.535 21.4754 31.8293 21.4754 31.8977 21.6834L32.7693 24.3338C32.7919 24.4023 32.8455 24.456 32.914 24.4785L35.5644 25.3502C35.7724 25.4186 35.7724 25.7128 35.5644 25.7812L32.914 26.6529C32.8455 26.6754 32.7919 26.7291 32.7693 26.7975L31.8977 29.448C31.8293 29.656 31.535 29.656 31.4666 29.448L30.5949 26.7975C30.5724 26.7291 30.5187 26.6754 30.4503 26.6529L27.7999 25.7812C27.5919 25.7128 27.5919 25.4186 27.7999 25.3502L30.4503 24.4785C30.5187 24.456 30.5724 24.4023 30.5949 24.3338L31.4666 21.6834Z" fill="#EEF2F2"/>
<path d="M19.5565 69.3284C19.6249 69.1204 19.9192 69.1204 19.9876 69.3284L21.5611 74.113C21.5837 74.1814 21.6373 74.2351 21.7058 74.2576L26.4904 75.8312C26.6984 75.8996 26.6984 76.1938 26.4904 76.2622L21.7058 77.8358C21.6373 77.8583 21.5837 77.912 21.5611 77.9804L19.9876 82.765C19.9192 82.973 19.6249 82.973 19.5565 82.765L17.983 77.9804C17.9605 77.912 17.9068 77.8583 17.8383 77.8358L13.0538 76.2622C12.8458 76.1938 12.8458 75.8996 13.0538 75.8312L17.8383 74.2576C17.9068 74.2351 17.9605 74.1814 17.983 74.113L19.5565 69.3284Z" fill="#EEF2F2"/>
<path d="M158.52 71.5972C158.588 71.3892 158.882 71.3892 158.951 71.5972L159.542 73.394C159.564 73.4625 159.618 73.5161 159.686 73.5387L161.483 74.1296C161.691 74.198 161.691 74.4922 161.483 74.5606L159.686 75.1516C159.618 75.1741 159.564 75.2278 159.542 75.2962L158.951 77.093C158.882 77.301 158.588 77.301 158.52 77.093L157.929 75.2962C157.906 75.2278 157.853 75.1741 157.784 75.1516L155.987 74.5606C155.779 74.4922 155.779 74.198 155.987 74.1296L157.784 73.5387C157.853 73.5161 157.906 73.4625 157.929 73.394L158.52 71.5972Z" fill="#EEF2F2"/>
</g>
<defs>
<filter id="filter0_d_95_2326" x="122.186" y="45.7982" width="31.3971" height="31.3971" filterUnits="userSpaceOnUse" color-interpolation-filters="sRGB">
<feFlood flood-opacity="0" result="BackgroundImageFix"/>
<feColorMatrix in="SourceAlpha" type="matrix" values="0 0 0 0 0 0 0 0 0 0 0 0 0 0 0 0 0 0 127 0" result="hardAlpha"/>
<feOffset dy="1.53532"/>
<feGaussianBlur stdDeviation="1.53532"/>
<feComposite in2="hardAlpha" operator="out"/>
<feColorMatrix type="matrix" values="0 0 0 0 0 0 0 0 0 0 0 0 0 0 0 0 0 0 0.12 0"/>
<feBlend mode="normal" in2="BackgroundImageFix" result="effect1_dropShadow_95_2326"/>
<feBlend mode="normal" in="SourceGraphic" in2="effect1_dropShadow_95_2326" result="shape"/>
</filter>
<filter id="filter1_d_95_2326" x="101.766" y="30.2989" width="31.3971" height="31.3971" filterUnits="userSpaceOnUse" color-interpolation-filters="sRGB">
<feFlood flood-opacity="0" result="BackgroundImageFix"/>
<feColorMatrix in="SourceAlpha" type="matrix" values="0 0 0 0 0 0 0 0 0 0 0 0 0 0 0 0 0 0 127 0" result="hardAlpha"/>
<feOffset dy="1.53532"/>
<feGaussianBlur stdDeviation="1.53532"/>
<feComposite in2="hardAlpha" operator="out"/>
<feColorMatrix type="matrix" values="0 0 0 0 0 0 0 0 0 0 0 0 0 0 0 0 0 0 0.12 0"/>
<feBlend mode="normal" in2="BackgroundImageFix" result="effect1_dropShadow_95_2326"/>
<feBlend mode="normal" in="SourceGraphic" in2="effect1_dropShadow_95_2326" result="shape"/>
</filter>
<clipPath id="clip0_95_2326">
<rect width="184" height="140" fill="white"/>
</clipPath>
</defs>
</svg>
