<svg width="183" height="132" viewBox="0 0 183 132" fill="none" xmlns="http://www.w3.org/2000/svg">
<path d="M30.9049 82.5981C21.6972 61.8808 33.574 41.3694 46.6981 28.3499C57.4492 17.6844 72.633 12.5328 87.7672 13.0757C116.415 14.1032 117.741 34.5202 150.411 56.5231C177.029 74.4497 167.154 112.912 117.275 104.327C51.0035 92.9191 48.2876 121.709 30.9049 82.5981Z" fill="#F6F9F9" fill-opacity="0.8"/>
<path d="M67.2438 15.2109H114.064C116.777 15.2109 118.901 17.5909 118.901 20.6295V95.5267H111.903V95.175L111.424 22.2485H69.4055V95.5267H62.4072V20.6295C62.4072 17.591 64.5319 15.2109 67.2438 15.2109Z" stroke="#B4CFCC" stroke-width="1.83"/>
<path d="M63.672 43.6313C66.1507 39.3507 70.212 36.2023 75.0254 34.83C79.8389 33.4577 85.0407 33.9651 89.5673 36.2486L95.6013 25.7973C88.2342 21.8737 79.6733 20.8972 71.7237 23.0736C63.7741 25.25 57.0572 30.4093 52.9892 37.4636C48.9207 44.5139 47.8156 52.9076 49.9067 60.8768C51.9978 68.846 57.1217 75.7687 64.1995 80.1869L70.2279 69.7454C65.9869 66.968 62.9462 62.7174 61.7275 57.8632C60.5089 53.009 61.2045 47.9179 63.672 43.6313Z" fill="#77CBFA"/>
<path d="M98.0586 63.4844C95.583 67.7606 91.5276 70.9071 86.7204 72.2814C81.9131 73.6557 76.7167 73.1542 72.192 70.8793L66.1636 81.3208C73.5287 85.2412 82.0859 86.2173 90.033 84.0437C97.98 81.87 99.7718 76.2409 103.843 69.1924C107.919 62.1422 105.933 57.2383 103.843 49.2655C101.753 41.2928 104.647 31.3495 97.5654 26.9312L91.5314 37.3825C95.7637 40.1645 98.7959 44.4147 100.009 49.2655C101.222 54.1163 100.524 59.202 98.0586 63.4844Z" fill="black"/>
<g filter="url(#filter0_d_12_6250)">
<circle cx="74.9264" cy="34.1605" r="8.79381" transform="rotate(-15 74.9264 34.1605)" fill="white"/>
</g>
<circle cx="4.79662" cy="4.79662" r="4.79662" transform="matrix(-0.5 0.866025 0.866025 0.5 72.2861 29.3574)" fill="black"/>
<circle cx="1.54544" cy="1.54544" r="1.54544" transform="matrix(-0.707107 0.707107 0.707107 0.707107 72.8398 31.4038)" fill="white"/>
<circle cx="0.737941" cy="0.737941" r="0.737941" transform="matrix(-0.707107 0.707107 0.707107 0.707107 72.8394 35.5798)" fill="white"/>
<path d="M72.6504 25.6664C67.9592 26.9234 65.1753 31.7454 66.4323 36.4365L80.9648 27.766C78.8194 25.744 75.7072 24.8473 72.6504 25.6664Z" fill="#CEF4FF"/>
<g filter="url(#filter1_d_12_6250)">
<circle cx="10.4575" cy="10.4575" r="10.4575" transform="matrix(-0.258819 0.965926 0.965926 0.258819 55.0063 33.7761)" fill="white"/>
</g>
<circle cx="61.311" cy="46.8349" r="6.15415" transform="rotate(-30 61.311 46.8349)" fill="black"/>
<circle cx="1.54544" cy="1.54544" r="1.54544" transform="matrix(-0.707107 0.707107 0.707107 0.707107 60.3145 43.9297)" fill="white"/>
<circle cx="0.737941" cy="0.737941" r="0.737941" transform="matrix(-0.707107 0.707107 0.707107 0.707107 60.3154 48.1047)" fill="white"/>
<path d="M52.2997 43.8773C53.7946 38.2986 59.5288 34.9879 65.1075 36.4827L54.7966 53.7647C52.392 51.2134 51.3257 47.5123 52.2997 43.8773Z" fill="#CEF4FF"/>
<path d="M83.0493 24.9861L118.358 21.1836V95.6033L83.0493 97.7762V24.9861Z" fill="white" stroke="#B4CFCC" stroke-width="1.83"/>
<ellipse cx="147.5" cy="127.5" rx="35.5" ry="4.5" fill="#F6F9F9"/>
<ellipse cx="31.5" cy="111.5" rx="31.5" ry="4.5" fill="#F6F9F9"/>
<path d="M155.401 3.38993C152.742 11.1716 146.326 24.8631 132.363 22.6543C121.412 21.2617 128.366 8.86642 136.942 17.2821C146.622 26.781 133.341 39.9255 123.983 37.4455" stroke="#B4CFCC" stroke-width="1.83" stroke-dasharray="4.93 4.93"/>
<path d="M101.424 46.4169C114.242 54.1886 120.287 44.2187 122.898 38.6488C113.469 36.189 109.326 38.7547 107.178 41.6669C105.458 43.9967 102.625 45.8043 101.424 46.4169Z" fill="#B4CFCC"/>
<mask id="mask0_12_6250" style="mask-type:alpha" maskUnits="userSpaceOnUse" x="101" y="37" width="22" height="13">
<path opacity="0.67" d="M101.424 46.4171C114.242 54.1889 120.287 44.2189 122.898 38.649C113.469 36.1892 109.326 38.7549 107.178 41.6671C105.458 43.9969 102.625 45.8045 101.424 46.4171Z" fill="#B4CFCC"/>
</mask>
<g mask="url(#mask0_12_6250)">
<path d="M122.899 38.6489C114.017 48.3997 106.14 47.6469 101.425 46.4169L101.174 49.0429L106.08 51.5381L117.276 48.5553L124.164 38.4581L122.899 38.6489Z" fill="#EEF2F2"/>
</g>
<path d="M8.08643 99.7951V63.9432H16.2346V69.9185C17.9728 61.6617 31.0823 62.4947 37.4198 63.9432V75.8938C28.2938 74.5901 25.2881 79.6963 25.4691 82.4124V99.7951H8.08643Z" fill="#EEF2F2"/>
<path d="M24.9258 82.9553L31.4443 89.4738" stroke="#B4CFCC" stroke-width="1.83"/>
<path d="M12.4321 99.7949V110.659H7" stroke="#B4CFCC" stroke-width="1.83"/>
<path d="M49.3701 99.7949V110.659H43.938" stroke="#B4CFCC" stroke-width="1.83"/>
<path d="M21.1235 99.7949V110.659H15.6914" stroke="#B4CFCC" stroke-width="1.83"/>
<path d="M54.8022 99.7949V110.659H49.3701" stroke="#B4CFCC" stroke-width="1.83"/>
<path d="M37.4194 84.0425L30.9009 90.561" stroke="#B4CFCC" stroke-width="1.83"/>
<path fill-rule="evenodd" clip-rule="evenodd" d="M52.0871 66.1152C43.3869 66.1152 36.334 73.1681 36.334 81.8683V84.0412C36.334 92.7414 43.3869 99.7942 52.0871 99.7942C60.7873 99.7942 67.8402 92.7414 67.8402 84.0412V81.8683C67.8402 73.1681 60.7873 66.1152 52.0871 66.1152ZM52.0873 79.1528C49.9872 79.1528 48.2848 80.8552 48.2848 82.9552C48.2848 85.0553 49.9872 86.7577 52.0873 86.7577C54.1873 86.7577 55.8897 85.0553 55.8897 82.9552C55.8897 80.8552 54.1873 79.1528 52.0873 79.1528Z" fill="#DAE5E4"/>
<ellipse cx="31.9878" cy="90.5605" rx="2.17284" ry="1.62963" fill="white" stroke="#B4CFCC" stroke-width="1.83"/>
<path d="M161.271 112.986V123.851L155.839 122.764" stroke="#B4CFCC" stroke-width="1.83"/>
<path d="M175.395 112.986V123.851L180.827 122.764" stroke="#B4CFCC" stroke-width="1.83"/>
<path d="M124.739 112.331L121.927 122.825L116.68 121.42" stroke="#B4CFCC" stroke-width="1.83"/>
<path d="M142.569 114.185L145.381 124.679L140.134 126.085" stroke="#B4CFCC" stroke-width="1.83"/>
<path d="M118.901 101.036L112.383 107.554" stroke="#B4CFCC" stroke-width="1.83"/>
<path d="M136.812 86.9252L140.631 96.1714L144.768 86.9252H152.58L145.205 114.073H138.589L133.092 102.961L127.724 114.059H120.975L113.469 86.9121H122.798L125.816 96.1714L129.701 86.9121L136.812 86.9252Z" fill="#DAE5E4"/>
<path d="M155.839 87.9995V112.987H165.045V105.551C165.045 103.493 166.714 101.825 168.772 101.825C170.83 101.825 172.498 103.493 172.498 105.551V112.987H180.827V100.616C180.827 94.6159 175.963 89.7518 169.963 89.7518H165.045V87.9995H155.839Z" fill="#EEF2F2"/>
<path d="M143.889 103.209L150.407 109.728" stroke="#B4CFCC" stroke-width="1.83"/>
<path d="M156.383 104.296L149.864 110.814" stroke="#B4CFCC" stroke-width="1.83"/>
<ellipse cx="150.95" cy="110.814" rx="2.17284" ry="1.62963" fill="white" stroke="#B4CFCC" stroke-width="1.83"/>
<path d="M49.8571 32.8524C48.134 33.3464 43.2108 34.7577 44.4294 40.4021C45.7111 46.3386 40.3185 45.5762 41.7487 51.9591" stroke="#B4CFCC" stroke-width="1.83"/>
<circle cx="89.5681" cy="59.2102" r="2.71605" fill="#B4CFCC"/>
<defs>
<filter id="filter0_d_12_6250" x="62.6978" y="23.6482" width="24.4569" height="24.4571" filterUnits="userSpaceOnUse" color-interpolation-filters="sRGB">
<feFlood flood-opacity="0" result="BackgroundImageFix"/>
<feColorMatrix in="SourceAlpha" type="matrix" values="0 0 0 0 0 0 0 0 0 0 0 0 0 0 0 0 0 0 127 0" result="hardAlpha"/>
<feOffset dy="1.71627"/>
<feGaussianBlur stdDeviation="1.71627"/>
<feComposite in2="hardAlpha" operator="out"/>
<feColorMatrix type="matrix" values="0 0 0 0 0 0 0 0 0 0 0 0 0 0 0 0 0 0 0.08 0"/>
<feBlend mode="normal" in2="BackgroundImageFix" result="effect1_dropShadow_12_6250"/>
<feBlend mode="normal" in="SourceGraphic" in2="effect1_dropShadow_12_6250" result="shape"/>
</filter>
<filter id="filter1_d_12_6250" x="48.5084" y="34.4075" width="27.785" height="27.7852" filterUnits="userSpaceOnUse" color-interpolation-filters="sRGB">
<feFlood flood-opacity="0" result="BackgroundImageFix"/>
<feColorMatrix in="SourceAlpha" type="matrix" values="0 0 0 0 0 0 0 0 0 0 0 0 0 0 0 0 0 0 127 0" result="hardAlpha"/>
<feOffset dy="1.71627"/>
<feGaussianBlur stdDeviation="1.71627"/>
<feComposite in2="hardAlpha" operator="out"/>
<feColorMatrix type="matrix" values="0 0 0 0 0 0 0 0 0 0 0 0 0 0 0 0 0 0 0.08 0"/>
<feBlend mode="normal" in2="BackgroundImageFix" result="effect1_dropShadow_12_6250"/>
<feBlend mode="normal" in="SourceGraphic" in2="effect1_dropShadow_12_6250" result="shape"/>
</filter>
</defs>
</svg>
