<svg width="24" height="24" viewBox="0 0 24 24" fill="none" xmlns="http://www.w3.org/2000/svg">
<g opacity="0.4">
<g clip-path="url(#clip0_216_2631)">
<path d="M21.5112 11.38L21.192 10.98C20.5307 10.1867 19.814 9.44144 19.0474 8.74998C18.8479 8.55998 18.6384 8.39998 18.4289 8.22998L17.0224 9.64998C17.2618 9.83998 17.5012 10.04 17.7207 10.24C18.3289 10.7899 18.902 11.3777 19.4364 12C18.902 12.6222 18.3289 13.2101 17.7207 13.76C16.3342 15.01 14.2095 16.5 11.975 16.5C11.4411 16.4944 10.9105 16.4137 10.399 16.26L8.8728 17.82C9.8528 18.2471 10.9066 18.4781 11.975 18.5C14.2294 18.5 16.6733 17.38 19.0274 15.25C19.7941 14.5585 20.5108 13.8133 21.1721 13.02L21.4913 12.62L21.98 12L21.5112 11.38Z" fill="#112438"/>
<path d="M6.2793 13.76C5.66863 13.2126 5.09543 12.6246 4.56359 12C5.09543 11.3754 5.66863 10.7874 6.2793 10.24C7.66584 8.99 9.78055 7.5 11.9751 7.5C12.4263 7.50446 12.8753 7.56492 13.3117 7.68L14.9676 6.1C14.0173 5.71078 13.0016 5.50713 11.9751 5.5C9.75062 5.5 7.30673 6.62 4.99252 8.75C4.20911 9.43686 3.47883 10.1823 2.80798 10.98L2.48878 11.38L2 12L2.48878 12.62L2.80798 13.02C3.47883 13.8177 4.20911 14.5631 4.99252 15.25C5.14214 15.39 5.30175 15.51 5.45137 15.63L6.80798 14.22L6.2793 13.76Z" fill="#112438"/>
<path d="M11.9751 15C12.7688 15 13.53 14.6839 14.0912 14.1213C14.6524 13.5587 14.9677 12.7956 14.9677 12C14.9731 11.9034 14.9731 11.8066 14.9677 11.71L11.7058 14.97C11.7951 14.9842 11.8849 14.9943 11.9751 15Z" fill="#112438"/>
<path d="M8.98242 12L11.9749 9C11.1813 9 10.4201 9.31607 9.85891 9.87868C9.2977 10.4413 8.98242 11.2044 8.98242 12Z" fill="#112438"/>
<path d="M18.6087 6.64C18.0625 6.21752 17.4857 5.83647 16.883 5.5L5.05233 17.4C5.59571 17.8146 6.17301 18.1826 6.77801 18.5L18.6087 6.64Z" fill="#112438"/>
</g>
</g>
<defs>
<clipPath id="clip0_216_2631">
<rect width="20" height="13" fill="white" transform="translate(2 5.5)"/>
</clipPath>
</defs>
</svg>
