<svg width="24" height="24" viewBox="0 0 24 24" fill="none" xmlns="http://www.w3.org/2000/svg">
<g opacity="0.6">
<path d="M4.75 4.5C4.75 4.08579 5.08579 3.75 5.5 3.75H18.5C18.9142 3.75 19.25 4.08579 19.25 4.5V18.5303C19.25 19.0929 18.6535 19.4552 18.1542 19.1958L13.0374 16.5373C12.3871 16.1994 11.6129 16.1994 10.9626 16.5373L5.84578 19.1958C5.34652 19.4552 4.75 19.0929 4.75 18.5303V4.5Z" stroke="black" stroke-width="1.5"/>
<path d="M13.5828 10.8478C13.6506 11.1833 13.7104 11.4869 13.7622 11.7587C13.7861 11.8734 13.808 11.9881 13.828 12.1027C13.8479 12.2174 13.8668 12.3215 13.8848 12.4149C13.9027 12.5083 13.9177 12.588 13.9296 12.6538C13.9416 12.7196 13.9496 12.761 13.9535 12.778C13.9655 12.863 13.9476 12.9192 13.8997 12.9468C13.8519 12.9744 13.7981 12.9882 13.7383 12.9882C13.7183 12.9882 13.6894 12.9808 13.6516 12.9659C13.6137 12.9511 13.5848 12.9394 13.5649 12.9309L12.0041 11.9626C11.7211 12.141 11.464 12.3002 11.2327 12.4404C11.1331 12.4998 11.0344 12.5593 10.9367 12.6188C10.8391 12.6782 10.7504 12.7334 10.6706 12.7844C10.5909 12.8353 10.5221 12.8778 10.4643 12.9118C10.4065 12.9458 10.3677 12.967 10.3477 12.9755C10.3079 12.9967 10.267 13.0042 10.2251 12.9978C10.1833 12.9914 10.1454 12.9755 10.1115 12.95C10.0776 12.9245 10.0527 12.8937 10.0368 12.8576C10.0208 12.8215 10.0168 12.7844 10.0248 12.7462C10.0288 12.7292 10.0388 12.6878 10.0547 12.6219C10.0707 12.5561 10.0886 12.4775 10.1085 12.3862C10.1285 12.2949 10.1514 12.1941 10.1773 12.0836C10.2032 11.9732 10.2301 11.8607 10.258 11.746C10.3178 11.4827 10.3856 11.1854 10.4613 10.8541C10.2261 10.6375 10.0149 10.4443 9.82749 10.2744C9.74776 10.2022 9.66902 10.1311 9.59129 10.061C9.51355 9.99093 9.44379 9.92723 9.38199 9.8699C9.3202 9.81256 9.26937 9.76584 9.22951 9.72975C9.18964 9.69365 9.16772 9.67347 9.16373 9.66923C9.11589 9.62251 9.07503 9.57048 9.04115 9.51315C9.00726 9.45581 8.9943 9.39742 9.00228 9.33796C9.01025 9.2785 9.03218 9.23179 9.06806 9.19781C9.10393 9.16384 9.1438 9.1426 9.18765 9.13411L11.0354 8.95573L11.7231 7.24845C11.747 7.1805 11.7809 7.1221 11.8247 7.07326C11.8686 7.02442 11.9284 7 12.0041 7C12.044 7 12.0789 7.00956 12.1088 7.02867C12.1387 7.04778 12.1636 7.07008 12.1835 7.09556C12.2035 7.12104 12.2204 7.14652 12.2344 7.172C12.2483 7.19748 12.2593 7.21872 12.2672 7.23571L12.937 8.94299L14.7847 9.12774C14.8645 9.14897 14.9203 9.17445 14.9522 9.20418C14.9841 9.23391 15 9.28063 15 9.34433C15 9.40379 14.9831 9.45582 14.9492 9.50041C14.9153 9.545 14.8724 9.59915 14.8206 9.66286L13.5828 10.8478Z" fill="black"/>
</g>
</svg>
