<?xml version="1.0" encoding="utf-8"?>
<!-- Generator: Adobe Illustrator 26.3.1, SVG Export Plug-In . SVG Version: 6.00 Build 0)  -->
<svg version="1.1" id="图层_1" xmlns="http://www.w3.org/2000/svg" xmlns:xlink="http://www.w3.org/1999/xlink" x="0px" y="0px"
	 viewBox="0 0 24 24" style="enable-background:new 0 0 24 24;" xml:space="preserve">
<style type="text/css">
	.st0{fill:#34D026;}
	.st1{fill-rule:evenodd;clip-rule:evenodd;fill:#FFFFFF;}
</style>
<path class="st0" d="M12,1C8.5,1,5.4,2.7,3.3,5.3h0v0C1.9,7.1,1,9.5,1,12c0,6,5,11,11,11s11-5,11-11S18,1,12,1z"/>
<path class="st1" d="M5.5,14c1.1-5.4,5.3-3.9,5.3-3.9c0.5,0.1,1.3,0.9,1.3,0.9c0.1,0,0.2,0,0.2-0.5c0-5.5,5.2-4.4,5.2-4.4
	c-0.2,0.1-0.5,0.5-0.5,1c-0.2,2.2-2.9,3.1-2.9,3.1c-0.7,0.2-1.4,0.7-1.1,1.5c1,2.5,0.5,6.3,0.5,6.3h-2c1.1-2.5,0.8-5.4,0.8-5.4
	C12.2,12,11.7,12,11.5,12C10.1,12,9,13.1,9,13.1c-0.7,0.5-1.2,0.8-2.2,0.6C5.8,13.5,5.5,13.8,5.5,14z"/>
</svg>
