<?xml version="1.0" encoding="utf-8"?>
<!-- Generator: Adobe Illustrator 24.0.0, SVG Export Plug-In . SVG Version: 6.00 Build 0)  -->
<svg version="1.1" id="图层_1" xmlns="http://www.w3.org/2000/svg" xmlns:xlink="http://www.w3.org/1999/xlink" x="0px" y="0px"
	 viewBox="0 0 16.7 17.7" style="enable-background:new 0 0 16.7 17.7;" xml:space="preserve">
<style type="text/css">
	.st0{fill:#34D026;}
</style>
<path class="st0" d="M9.4,6.4C9.4,7,9.2,7.1,9.1,7c0,0-1.1-1-1.7-1.2c0,0-5.6-2.1-7.1,5.2c0.1-0.3,0.5-0.6,1.7-0.3
	C3.4,10.9,4,10.6,5,9.8c0,0,1.5-1.5,3.3-1.5c0.3,0,1,0,1.1,0.8c0,0,0.2,2.7-0.5,5.6c-0.1,0.3,0,0.5,0,0.8c-0.1,0-0.1-0.1-0.2-0.1
	c-0.1-0.1-0.2-0.1-0.4,0c-0.4,0.1-0.7,0.2-1.1,0.3c-0.4,0.1-0.7,0.2-1.1,0.4c-0.3,0.1-0.5,0.2-0.7,0.3s-0.2,0.2-0.1,0.3
	c0.2,0.1,0.5,0.3,0.9,0.4c0.4,0.1,0.9,0.2,1.5,0.2c0.6,0.1,1.2,0.1,1.8,0.1c0.6,0,1.2,0,1.8-0.1c0.6,0,1.1-0.1,1.6-0.2
	c0.5-0.1,0.9-0.2,1.2-0.4c0.1-0.1,0.1-0.1-0.1-0.3c-0.2-0.1-0.4-0.2-0.7-0.3c-0.3-0.1-0.7-0.2-1.1-0.4c-0.4-0.1-0.5-0.2-0.8-0.3
	c-0.2,0-0.3,0-0.4,0c0,0-0.1,0.1-0.1,0.1c0,0,0-0.1,0-0.1c0.1-1.6,0.2-5-0.8-7.4c-0.5-1,0.5-1.8,1.5-2c0,0,3.6-1.2,3.9-4.1
	c0-0.7,0.4-1.2,0.6-1.4C16.4,0.5,9.4-1,9.4,6.4z"/>
</svg>
