<svg width="32" height="28" viewBox="0 0 32 28" fill="none" xmlns="http://www.w3.org/2000/svg">
<g opacity="0.3" filter="url(#filter0_f_164_19704)">
<ellipse cx="16" cy="22.5" rx="12" ry="1.5" fill="#CE4400"/>
</g>
<g clip-path="url(#clip0_164_19704)">
<g opacity="0.4">
<ellipse cx="11.3235" cy="6.14905" rx="3.27365" ry="3.27661" fill="#FFF24D"/>
<g filter="url(#filter1_f_164_19704)">
<path d="M11.3235 11.0386C14.0236 11.0386 16.21 8.84808 16.21 6.14905C16.21 3.45002 14.0236 1.25953 11.3235 1.25953C8.62331 1.25953 6.4369 3.45002 6.4369 6.14905C6.4369 8.84808 8.62331 11.0386 11.3235 11.0386Z" stroke="url(#paint0_linear_164_19704)" stroke-width="3.22581" stroke-linecap="round"/>
</g>
<g filter="url(#filter2_i_164_19704)">
<ellipse cx="11.3232" cy="6.14924" rx="2.81149" ry="2.81403" fill="#FBAF1B"/>
</g>
<path d="M9.95611 6.79937L9.81944 6.86119C9.94199 7.13206 10.1256 7.34541 10.371 7.49615C10.6172 7.64741 10.9078 7.71956 11.2363 7.71956C11.5059 7.71956 11.7466 7.67127 11.9537 7.57023L11.9537 7.57023L11.9544 7.56989C12.1558 7.47038 12.3167 7.33872 12.4287 7.17047C12.5374 7.00729 12.596 6.8331 12.596 6.65018V6.34034C12.596 5.95663 12.2849 5.64557 11.9012 5.64557H11.5762C11.372 5.64557 11.2065 5.8111 11.2065 6.01529C11.2065 6.21948 11.372 6.38502 11.5762 6.38502H11.8488C11.8475 6.63441 11.7809 6.76872 11.6908 6.83726C11.5775 6.92348 11.4287 6.97201 11.2351 6.97201C10.9621 6.97201 10.7805 6.88657 10.6618 6.73474C10.5376 6.57589 10.4631 6.3202 10.4631 5.94243C10.4631 5.58341 10.53 5.32834 10.6463 5.15706C10.7548 4.99734 10.9133 4.91401 11.1462 4.91401C11.346 4.91401 11.4847 4.94298 11.574 5.01989C11.6161 5.05615 11.6513 5.11448 11.6846 5.18113C11.6893 5.19041 11.6946 5.20137 11.7002 5.21276C11.7105 5.23402 11.7216 5.25674 11.7302 5.2727C11.7373 5.28591 11.748 5.30477 11.762 5.32215L11.7622 5.32247C11.7707 5.33308 11.8081 5.37976 11.8751 5.38815L11.8851 5.3894L11.8951 5.38931C12.0704 5.3877 12.2274 5.30064 12.3138 5.16927C12.404 5.03195 12.4136 4.84792 12.29 4.69329C12.218 4.6033 12.1346 4.52242 12.0401 4.45044L12.0398 4.45021C11.7867 4.25823 11.487 4.16531 11.1462 4.16531C10.8411 4.16531 10.57 4.24015 10.3378 4.39374C10.1073 4.54626 9.93225 4.76048 9.81422 5.02965C9.69566 5.29739 9.63857 5.60319 9.63857 5.94243C9.63857 6.28438 9.69695 6.59197 9.81958 6.86149L9.95611 6.79937ZM9.95611 6.79937C9.84403 6.55304 9.78857 6.2674 9.78857 5.94243C9.78857 5.61978 9.84288 5.3353 9.95149 5.09013C10.0589 4.84496 10.2161 4.65415 10.4206 4.51884C10.6251 4.38354 10.8666 4.31531 11.1462 4.31531C11.4581 4.31531 11.725 4.39973 11.9492 4.56973C12.0344 4.63466 12.1089 4.70703 12.1728 4.78694C12.3318 4.98591 12.1484 5.23698 11.8937 5.23931C11.8789 5.23746 11.8616 5.2019 11.8377 5.15258C11.802 5.079 11.7514 4.9748 11.6719 4.90625C11.539 4.79177 11.3518 4.76401 11.1462 4.76401C10.87 4.76401 10.6621 4.86693 10.5223 5.07278C10.3825 5.27863 10.3131 5.56774 10.3131 5.94243C10.3131 6.72882 10.6205 7.12201 11.2351 7.12201C11.4547 7.12201 11.6372 7.06651 11.7817 6.95664C11.9261 6.84678 11.9989 6.65365 11.9989 6.37726C11.9989 6.2987 11.9352 6.23502 11.8566 6.23502H11.5762C11.4548 6.23502 11.3565 6.13664 11.3565 6.01529C11.3565 5.89394 11.4548 5.79557 11.5762 5.79557H11.9012C12.2021 5.79557 12.446 6.03947 12.446 6.34034V6.65018C12.446 6.79937 12.3986 6.94508 12.3039 7.08732C12.2092 7.22956 12.0705 7.34521 11.8879 7.43541C11.7054 7.52446 11.4882 7.56956 11.2363 7.56956C10.9301 7.56956 10.6678 7.50249 10.4495 7.36834C10.2311 7.23419 10.067 7.04453 9.95611 6.79937Z" fill="white" stroke="white" stroke-width="0.3"/>
</g>
<g opacity="0.4">
<ellipse cx="21.1444" cy="6.617" rx="2.80599" ry="2.80853" fill="#FFF24D"/>
<g filter="url(#filter3_f_164_19704)">
<path d="M21.1444 11.0384C23.5862 11.0384 25.5633 9.05751 25.5633 6.617C25.5633 4.17648 23.5862 2.19557 21.1444 2.19557C18.7025 2.19557 16.7255 4.17648 16.7255 6.617C16.7255 9.05751 18.7025 11.0384 21.1444 11.0384Z" stroke="url(#paint1_linear_164_19704)" stroke-width="3.22581" stroke-linecap="round"/>
</g>
<g filter="url(#filter4_i_164_19704)">
<ellipse cx="21.1442" cy="6.61711" rx="2.40985" ry="2.41203" fill="#FBAF1B"/>
</g>
<path d="M19.545 7.12101L19.4083 7.18284C19.515 7.41868 19.6751 7.60494 19.8893 7.73652C20.1044 7.86861 20.3576 7.93118 20.6423 7.93118C20.8759 7.93118 21.0855 7.88934 21.2666 7.80101L21.2666 7.80102L21.2673 7.80068C21.4426 7.71405 21.5837 7.59891 21.6822 7.45099C21.7774 7.30813 21.8292 7.15475 21.8292 6.99314V6.72756C21.8292 6.38683 21.553 6.11061 21.2122 6.11061H20.9336C20.7467 6.11061 20.5953 6.26209 20.5953 6.44895C20.5953 6.63581 20.7467 6.78729 20.9336 6.78729H21.1456C21.1408 6.98367 21.0862 7.08527 21.0189 7.13644C20.9262 7.20697 20.8035 7.24757 20.6413 7.24757C20.4122 7.24757 20.2635 7.17617 20.1667 7.05243C20.0645 6.92166 20.001 6.7081 20.001 6.3865C20.001 6.081 20.058 5.86723 20.1543 5.72536C20.2428 5.59505 20.3716 5.52642 20.565 5.52642C20.7355 5.52642 20.8474 5.55143 20.9177 5.61198C20.9503 5.64006 20.9789 5.68666 21.0074 5.74355C21.0111 5.75095 21.0155 5.76002 21.0202 5.7696C21.0292 5.78814 21.0392 5.80859 21.0467 5.82263C21.053 5.83423 21.0629 5.85177 21.0761 5.86822L21.0764 5.86863C21.0844 5.87856 21.121 5.92439 21.1872 5.93266L21.1971 5.93391L21.2072 5.93382C21.3643 5.93238 21.5056 5.85437 21.5837 5.73556C21.6657 5.61081 21.6744 5.44285 21.5622 5.30243C21.4994 5.22385 21.4265 5.15332 21.3443 5.09061L21.344 5.09038C21.1229 4.92269 20.8613 4.84182 20.565 4.84182C20.2999 4.84182 20.0633 4.90692 19.8603 5.04118C19.659 5.17436 19.5064 5.36133 19.4037 5.59547C19.3007 5.82819 19.2514 6.09335 19.2514 6.3865C19.2514 6.68202 19.3018 6.94881 19.4084 7.18313L19.545 7.12101ZM19.545 7.12101C19.4489 6.90988 19.4014 6.66504 19.4014 6.3865C19.4014 6.10994 19.4479 5.8661 19.541 5.65595C19.6331 5.44581 19.7678 5.28226 19.9431 5.16628C20.1184 5.0503 20.3254 4.99182 20.565 4.99182C20.8324 4.99182 21.0612 5.06418 21.2533 5.2099C21.3263 5.26556 21.3902 5.32758 21.445 5.39608C21.5813 5.56663 21.4241 5.78183 21.2058 5.78383C21.1931 5.78223 21.1783 5.75175 21.1578 5.70949C21.1272 5.64642 21.0838 5.5571 21.0156 5.49835C20.9017 5.40021 20.7413 5.37642 20.565 5.37642C20.3283 5.37642 20.1501 5.46464 20.0302 5.64109C19.9104 5.81753 19.851 6.06534 19.851 6.3865C19.851 7.06055 20.1144 7.39757 20.6413 7.39757C20.8295 7.39757 20.9859 7.34999 21.1097 7.25582C21.2335 7.16165 21.2959 6.99612 21.2959 6.75921C21.2959 6.69187 21.2413 6.63729 21.174 6.63729H20.9336C20.8296 6.63729 20.7453 6.55297 20.7453 6.44895C20.7453 6.34493 20.8296 6.26061 20.9336 6.26061H21.2122C21.4701 6.26061 21.6792 6.46967 21.6792 6.72756V6.99314C21.6792 7.12101 21.6386 7.24591 21.5574 7.36783C21.4761 7.48976 21.3573 7.58888 21.2008 7.6662C21.0444 7.74252 20.8582 7.78118 20.6423 7.78118C20.3798 7.78118 20.155 7.72369 19.9678 7.60871C19.7807 7.49372 19.64 7.33116 19.545 7.12101Z" fill="white" stroke="white" stroke-width="0.3"/>
</g>
<ellipse cx="16" cy="5.21279" rx="4.20898" ry="4.21279" fill="#FFF24D"/>
<g filter="url(#filter5_f_164_19704)">
<path d="M16 11.0385C19.2167 11.0385 21.8219 8.42885 21.8219 5.21279C21.8219 1.99672 19.2167 -0.612903 16 -0.612903C12.7833 -0.612903 10.1781 1.99672 10.1781 5.21279C10.1781 8.42885 12.7833 11.0385 16 11.0385Z" stroke="url(#paint2_linear_164_19704)" stroke-width="3.22581" stroke-linecap="round"/>
</g>
<g filter="url(#filter6_i_164_19704)">
<ellipse cx="16.0005" cy="5.21313" rx="3.61477" ry="3.61804" fill="#FBAF1B"/>
</g>
<path d="M16.6741 7.10817L16.6748 7.10784C16.9284 6.98255 17.1289 6.81784 17.268 6.60896C17.4038 6.40514 17.4759 6.18932 17.4759 5.96377V5.5654C17.4759 5.09573 17.0951 4.71498 16.6255 4.71498H16.2075C15.9687 4.71498 15.775 4.90862 15.775 5.14749C15.775 5.38635 15.9687 5.57999 16.2075 5.57999H16.5681C16.5863 5.57999 16.601 5.59471 16.601 5.61287C16.601 5.94621 16.5132 6.13777 16.3809 6.23841C16.2263 6.35602 16.0253 6.42042 15.7691 6.42042C15.4082 6.42042 15.1607 6.30688 14.9982 6.09889C14.8301 5.88387 14.7336 5.54392 14.7336 5.05381C14.7336 4.58773 14.8203 4.25006 14.9766 4.01996C15.125 3.80144 15.3429 3.6887 15.6547 3.6887C15.9132 3.6887 16.1054 3.72559 16.2327 3.83522C16.2937 3.88783 16.3422 3.96962 16.3853 4.05581C16.3918 4.06887 16.399 4.0836 16.4063 4.09854C16.4192 4.1252 16.4325 4.15254 16.4432 4.17236C16.4521 4.18878 16.4644 4.21026 16.4798 4.2295L16.4799 4.22961C16.4895 4.24158 16.5283 4.29002 16.5972 4.29864L16.6071 4.29988L16.6172 4.29979C16.8289 4.29785 17.0171 4.19269 17.12 4.0362C17.2268 3.87376 17.2381 3.65758 17.0918 3.47453C17.0016 3.3617 16.8968 3.26015 16.778 3.16961L16.7778 3.16939C16.4606 2.92884 16.0847 2.81179 15.6547 2.81179C15.2697 2.81179 14.9296 2.90613 14.639 3.09838C14.35 3.2896 14.13 3.55844 13.9813 3.89778L14.1186 3.95799L13.9815 3.89724C13.8318 4.2351 13.7592 4.62227 13.7592 5.05381C13.7592 5.4886 13.8334 5.87781 13.988 6.2177L14.1246 6.15558L13.9879 6.21741C14.1422 6.55832 14.3726 6.82586 14.6804 7.01493C14.989 7.20452 15.3546 7.29583 15.7705 7.29583C16.1121 7.29583 16.4148 7.23466 16.6741 7.10817Z" fill="white" stroke="white" stroke-width="0.3"/>
<rect x="7.11426" y="6.23157" width="17.7713" height="3.13894" rx="1.56947" fill="url(#paint3_linear_164_19704)"/>
<path d="M8.12993 9.37061H23.8702L24.7052 17.884C24.8245 19.1 25.3355 20.2511 25.4823 21.464C25.5958 22.4011 25.1719 23 23.9503 23C22.0797 23 9.92048 23 8.04972 23C6.82793 23 6.40418 22.401 6.51775 21.4638C6.66473 20.251 7.17557 19.1 7.29484 17.8842L8.12993 9.37061Z" fill="url(#paint4_linear_164_19704)"/>
</g>
<defs>
<filter id="filter0_f_164_19704" x="0" y="17" width="32" height="11" filterUnits="userSpaceOnUse" color-interpolation-filters="sRGB">
<feFlood flood-opacity="0" result="BackgroundImageFix"/>
<feBlend mode="normal" in="SourceGraphic" in2="BackgroundImageFix" result="shape"/>
<feGaussianBlur stdDeviation="2" result="effect1_foregroundBlur_164_19704"/>
</filter>
<filter id="filter1_f_164_19704" x="-8.07901" y="-13.2566" width="38.805" height="38.8113" filterUnits="userSpaceOnUse" color-interpolation-filters="sRGB">
<feFlood flood-opacity="0" result="BackgroundImageFix"/>
<feBlend mode="normal" in="SourceGraphic" in2="BackgroundImageFix" result="shape"/>
<feGaussianBlur stdDeviation="6.45161" result="effect1_foregroundBlur_164_19704"/>
</filter>
<filter id="filter2_i_164_19704" x="8.51172" y="3.33521" width="8.0424" height="8.85386" filterUnits="userSpaceOnUse" color-interpolation-filters="sRGB">
<feFlood flood-opacity="0" result="BackgroundImageFix"/>
<feBlend mode="normal" in="SourceGraphic" in2="BackgroundImageFix" result="shape"/>
<feColorMatrix in="SourceAlpha" type="matrix" values="0 0 0 0 0 0 0 0 0 0 0 0 0 0 0 0 0 0 127 0" result="hardAlpha"/>
<feOffset dx="2.41935" dy="3.22581"/>
<feGaussianBlur stdDeviation="1.6129"/>
<feComposite in2="hardAlpha" operator="arithmetic" k2="-1" k3="1"/>
<feColorMatrix type="matrix" values="0 0 0 0 0.995833 0 0 0 0 0.5975 0 0 0 0 0 0 0 0 1 0"/>
<feBlend mode="normal" in2="shape" result="effect1_innerShadow_164_19704"/>
</filter>
<filter id="filter3_f_164_19704" x="2.20957" y="-12.3206" width="37.8699" height="37.8751" filterUnits="userSpaceOnUse" color-interpolation-filters="sRGB">
<feFlood flood-opacity="0" result="BackgroundImageFix"/>
<feBlend mode="normal" in="SourceGraphic" in2="BackgroundImageFix" result="shape"/>
<feGaussianBlur stdDeviation="6.45161" result="effect1_foregroundBlur_164_19704"/>
</filter>
<filter id="filter4_i_164_19704" x="18.7344" y="4.20508" width="7.23918" height="8.04987" filterUnits="userSpaceOnUse" color-interpolation-filters="sRGB">
<feFlood flood-opacity="0" result="BackgroundImageFix"/>
<feBlend mode="normal" in="SourceGraphic" in2="BackgroundImageFix" result="shape"/>
<feColorMatrix in="SourceAlpha" type="matrix" values="0 0 0 0 0 0 0 0 0 0 0 0 0 0 0 0 0 0 127 0" result="hardAlpha"/>
<feOffset dx="2.41935" dy="3.22581"/>
<feGaussianBlur stdDeviation="1.6129"/>
<feComposite in2="hardAlpha" operator="arithmetic" k2="-1" k3="1"/>
<feColorMatrix type="matrix" values="0 0 0 0 0.995833 0 0 0 0 0.5975 0 0 0 0 0 0 0 0 1 0"/>
<feBlend mode="normal" in2="shape" result="effect1_innerShadow_164_19704"/>
</filter>
<filter id="filter5_f_164_19704" x="-4.3378" y="-15.129" width="40.6756" height="40.6836" filterUnits="userSpaceOnUse" color-interpolation-filters="sRGB">
<feFlood flood-opacity="0" result="BackgroundImageFix"/>
<feBlend mode="normal" in="SourceGraphic" in2="BackgroundImageFix" result="shape"/>
<feGaussianBlur stdDeviation="6.45161" result="effect1_foregroundBlur_164_19704"/>
</filter>
<filter id="filter6_i_164_19704" x="12.3857" y="1.59509" width="9.64885" height="10.4619" filterUnits="userSpaceOnUse" color-interpolation-filters="sRGB">
<feFlood flood-opacity="0" result="BackgroundImageFix"/>
<feBlend mode="normal" in="SourceGraphic" in2="BackgroundImageFix" result="shape"/>
<feColorMatrix in="SourceAlpha" type="matrix" values="0 0 0 0 0 0 0 0 0 0 0 0 0 0 0 0 0 0 127 0" result="hardAlpha"/>
<feOffset dx="2.41935" dy="3.22581"/>
<feGaussianBlur stdDeviation="1.6129"/>
<feComposite in2="hardAlpha" operator="arithmetic" k2="-1" k3="1"/>
<feColorMatrix type="matrix" values="0 0 0 0 0.995833 0 0 0 0 0.5975 0 0 0 0 0 0 0 0 1 0"/>
<feBlend mode="normal" in2="shape" result="effect1_innerShadow_164_19704"/>
</filter>
<linearGradient id="paint0_linear_164_19704" x1="11.3235" y1="2.87244" x2="11.3235" y2="9.42566" gradientUnits="userSpaceOnUse">
<stop stop-color="#FFF27A" stop-opacity="0"/>
<stop offset="1" stop-color="#FFCA7A"/>
</linearGradient>
<linearGradient id="paint1_linear_164_19704" x1="21.1444" y1="3.80847" x2="21.1444" y2="9.42552" gradientUnits="userSpaceOnUse">
<stop stop-color="#FFF27A" stop-opacity="0"/>
<stop offset="1" stop-color="#FFCA7A"/>
</linearGradient>
<linearGradient id="paint2_linear_164_19704" x1="16" y1="1" x2="16" y2="9.42558" gradientUnits="userSpaceOnUse">
<stop stop-color="#FFF27A" stop-opacity="0"/>
<stop offset="1" stop-color="#FFCA7A"/>
</linearGradient>
<linearGradient id="paint3_linear_164_19704" x1="15.9999" y1="6.23157" x2="15.9999" y2="9.37051" gradientUnits="userSpaceOnUse">
<stop stop-color="white"/>
<stop offset="1" stop-color="#FFEAC6"/>
</linearGradient>
<linearGradient id="paint4_linear_164_19704" x1="16" y1="9.42546" x2="16" y2="22.5319" gradientUnits="userSpaceOnUse">
<stop stop-color="white"/>
<stop offset="1" stop-color="#FFE6BB"/>
</linearGradient>
<clipPath id="clip0_164_19704">
<rect width="24" height="24" fill="white" transform="translate(4)"/>
</clipPath>
</defs>
</svg>
