<?xml version="1.0" standalone="no"?><!DOCTYPE svg PUBLIC "-//W3C//DTD SVG 1.1//EN" "http://www.w3.org/Graphics/SVG/1.1/DTD/svg11.dtd"><svg t="1673665717259" class="icon" viewBox="0 0 1024 1024" version="1.1" xmlns="http://www.w3.org/2000/svg" p-id="5279" xmlns:xlink="http://www.w3.org/1999/xlink" width="200" height="200"><path d="M627.2 620.8l-12.8-128 89.6-96L576 377.6 512 262.4 448 377.6 326.4 403.2l89.6 96-12.8 128L512 569.6 627.2 620.8zM512 620.8l-172.8 83.2 25.6-192-128-140.8 185.6-38.4L512 166.4l89.6 166.4 185.6 38.4-128 140.8 25.6 192L512 620.8zM851.2 889.6 851.2 108.8 172.8 108.8l0 780.8L512 742.4 851.2 889.6zM512 793.6 128 960 128 64l768 0 0 896L512 793.6z" p-id="5280"></path></svg>