<?xml version="1.0" standalone="no"?><!DOCTYPE svg PUBLIC "-//W3C//DTD SVG 1.1//EN" "http://www.w3.org/Graphics/SVG/1.1/DTD/svg11.dtd"><svg t="1673666032121" class="icon" viewBox="0 0 1024 1024" version="1.1" xmlns="http://www.w3.org/2000/svg" p-id="10655" xmlns:xlink="http://www.w3.org/1999/xlink" width="200" height="200"><path d="M973.824 748.544c-3.072-8.192-9.216-13.312-17.408-14.336l-107.52-8.192-40.96-99.328c-3.072-7.168-10.24-12.288-18.432-12.288s-15.36 5.12-18.432 12.288l-40.96 99.328-107.52 8.192c-8.192 1.024-15.36 6.144-17.408 14.336-3.072 8.192 0 16.384 6.144 21.504l81.92 70.656-24.576 104.448c-2.048 8.192 1.024 16.384 8.192 21.504 7.168 5.12 15.36 5.12 22.528 1.024l92.16-56.32 92.16 56.32c3.072 2.048 7.168 3.072 10.24 3.072 4.096 0 8.192-1.024 12.288-4.096 7.168-5.12 10.24-13.312 8.192-21.504l-24.576-104.448 81.92-70.656c2.048-5.12 5.12-14.336 2.048-21.504zM849.92 818.176c-6.144 5.12-8.192 12.288-6.144 20.48l16.384 68.608-61.44-36.864c-3.072-2.048-7.168-3.072-10.24-3.072s-7.168 1.024-10.24 3.072l-60.416 36.864 16.384-68.608c2.048-7.168-1.024-15.36-6.144-20.48l-54.272-47.104 70.656-5.12c8.192-1.024 14.336-5.12 17.408-12.288l27.648-65.536 27.648 65.536c3.072 7.168 9.216 12.288 17.408 12.288l70.656 5.12-55.296 47.104z m-197.632-440.32c16.384-29.696 15.36-43.008 13.312-48.128-1.024-3.072-4.096-7.168-13.312-11.264-9.216-4.096-14.336-13.312-12.288-22.528 12.288-71.68 4.096-124.928-23.552-157.696-26.624-30.72-70.656-46.08-133.12-46.08s-105.472 15.36-129.024 45.056c-25.6 32.768-29.696 86.016-13.312 157.696 2.048 10.24-3.072 20.48-12.288 23.552-13.312 5.12-15.36 11.264-16.384 13.312-2.048 5.12-3.072 18.432 12.288 47.104 9.216 17.408 23.552 35.84 36.864 53.248 39.936 53.248 84.992 113.664 39.936 176.128C368.64 655.36 336.896 663.552 296.96 673.792c-27.648 7.168-61.44 16.384-107.52 39.936C122.88 746.496 90.112 820.224 92.16 931.84h479.232c11.264 0 20.48 9.216 20.48 20.48s-9.216 20.48-20.48 20.48H72.704c-11.264 0-19.456-8.192-20.48-19.456-7.168-140.288 32.768-233.472 118.784-276.48 50.176-25.6 87.04-34.816 115.712-43.008 37.888-10.24 57.344-15.36 81.92-50.176 25.6-36.864 2.048-72.704-39.936-129.024-14.336-18.432-28.672-37.888-38.912-57.344-18.432-32.768-23.552-59.392-15.36-80.896 4.096-12.288 12.288-21.504 24.576-28.672-15.36-76.8-7.168-136.192 24.576-176.128C354.304 71.68 408.576 51.2 483.328 51.2s130.048 20.48 163.84 60.416 45.056 99.328 34.816 177.152c13.312 9.216 19.456 19.456 21.504 27.648 8.192 21.504 2.048 49.152-16.384 81.92-11.264 20.48-23.552 36.864-34.816 51.2-27.648 36.864-47.104 63.488-40.96 134.144 1.024 11.264-7.168 21.504-18.432 22.528-11.264 1.024-21.504-7.168-22.528-18.432-8.192-87.04 19.456-123.904 49.152-162.816 11.264-14.336 22.528-28.672 32.768-47.104z" p-id="10656"></path></svg>