<svg width="32" height="32" viewBox="0 0 32 32" fill="none" xmlns="http://www.w3.org/2000/svg">
<g opacity="0.6">
<circle cx="16" cy="16" r="10.25" stroke="#112438" stroke-width="1.5"/>
<path d="M10.041 13.1157C10.041 13.5375 10.2086 13.9421 10.5069 14.2404C10.8052 14.5387 11.2098 14.7063 11.6316 14.7063C12.0535 14.7063 12.4581 14.5387 12.7564 14.2404C13.0547 13.9421 13.2223 13.5375 13.2223 13.1157C13.2223 12.6938 13.0547 12.2892 12.7564 11.9909C12.4581 11.6926 12.0535 11.525 11.6316 11.525C11.2098 11.525 10.8052 11.6926 10.5069 11.9909C10.2086 12.2892 10.041 12.6938 10.041 13.1157Z" fill="#112438"/>
<path d="M18.8125 13.1157C18.8125 13.3245 18.8536 13.5314 18.9336 13.7244C19.0135 13.9173 19.1307 14.0927 19.2784 14.2404C19.4261 14.3881 19.6014 14.5053 19.7944 14.5852C19.9874 14.6651 20.1942 14.7063 20.4031 14.7063C20.612 14.7063 20.8188 14.6651 21.0118 14.5852C21.2048 14.5053 21.3802 14.3881 21.5279 14.2404C21.6756 14.0927 21.7927 13.9173 21.8727 13.7244C21.9526 13.5314 21.9937 13.3245 21.9937 13.1157C21.9937 12.9068 21.9526 12.6999 21.8727 12.5069C21.7927 12.314 21.6756 12.1386 21.5279 11.9909C21.3802 11.8432 21.2048 11.726 21.0118 11.6461C20.8188 11.5662 20.612 11.525 20.4031 11.525C20.1942 11.525 19.9874 11.5662 19.7944 11.6461C19.6014 11.726 19.4261 11.8432 19.2784 11.9909C19.1307 12.1386 19.0135 12.314 18.9336 12.5069C18.8536 12.6999 18.8125 12.9068 18.8125 13.1157Z" fill="#112438"/>
<path d="M18.275 17.2313C18.275 18.5282 17.2188 19.6 15.9219 19.575C14.6688 19.55 13.6625 18.5281 13.6625 17.2688L13.6532 17.1C13.6375 16.8407 13.8469 16.6188 14.1063 16.6188H17.8188C18.0688 16.6188 18.275 16.8219 18.275 17.075V17.2313Z" fill="#112438"/>
</g>
</svg>
