<svg width="59" height="24" viewBox="0 0 59 24" fill="none" xmlns="http://www.w3.org/2000/svg">
<path d="M9.23295 17V6.81818H15.3381V7.91193H10.4659V11.3523H14.8807V12.446H10.4659V17H9.23295ZM19.8324 17.1591C19.143 17.1591 18.5381 16.995 18.0178 16.6669C17.5007 16.3388 17.0964 15.8797 16.8047 15.2898C16.5163 14.6998 16.3722 14.0104 16.3722 13.2216C16.3722 12.4261 16.5163 11.7318 16.8047 11.1385C17.0964 10.5452 17.5007 10.0845 18.0178 9.75639C18.5381 9.42827 19.143 9.2642 19.8324 9.2642C20.5218 9.2642 21.125 9.42827 21.642 9.75639C22.1624 10.0845 22.5668 10.5452 22.8551 11.1385C23.1468 11.7318 23.2926 12.4261 23.2926 13.2216C23.2926 14.0104 23.1468 14.6998 22.8551 15.2898C22.5668 15.8797 22.1624 16.3388 21.642 16.6669C21.125 16.995 20.5218 17.1591 19.8324 17.1591ZM19.8324 16.1051C20.3561 16.1051 20.7869 15.9709 21.125 15.7024C21.4631 15.4339 21.7133 15.081 21.8757 14.6435C22.0381 14.206 22.1193 13.732 22.1193 13.2216C22.1193 12.7112 22.0381 12.2356 21.8757 11.7947C21.7133 11.3539 21.4631 10.9976 21.125 10.7259C20.7869 10.4541 20.3561 10.3182 19.8324 10.3182C19.3087 10.3182 18.8778 10.4541 18.5398 10.7259C18.2017 10.9976 17.9515 11.3539 17.7891 11.7947C17.6267 12.2356 17.5455 12.7112 17.5455 13.2216C17.5455 13.732 17.6267 14.206 17.7891 14.6435C17.9515 15.081 18.2017 15.4339 18.5398 15.7024C18.8778 15.9709 19.3087 16.1051 19.8324 16.1051ZM26.2569 6.81818V17H25.0836V6.81818H26.2569ZM29.5792 6.81818V17H28.4059V6.81818H29.5792ZM34.8304 17.1591C34.141 17.1591 33.5362 16.995 33.0158 16.6669C32.4988 16.3388 32.0944 15.8797 31.8027 15.2898C31.5144 14.6998 31.3702 14.0104 31.3702 13.2216C31.3702 12.4261 31.5144 11.7318 31.8027 11.1385C32.0944 10.5452 32.4988 10.0845 33.0158 9.75639C33.5362 9.42827 34.141 9.2642 34.8304 9.2642C35.5198 9.2642 36.123 9.42827 36.6401 9.75639C37.1605 10.0845 37.5648 10.5452 37.8532 11.1385C38.1448 11.7318 38.2907 12.4261 38.2907 13.2216C38.2907 14.0104 38.1448 14.6998 37.8532 15.2898C37.5648 15.8797 37.1605 16.3388 36.6401 16.6669C36.123 16.995 35.5198 17.1591 34.8304 17.1591ZM34.8304 16.1051C35.3541 16.1051 35.785 15.9709 36.123 15.7024C36.4611 15.4339 36.7114 15.081 36.8738 14.6435C37.0362 14.206 37.1174 13.732 37.1174 13.2216C37.1174 12.7112 37.0362 12.2356 36.8738 11.7947C36.7114 11.3539 36.4611 10.9976 36.123 10.7259C35.785 10.4541 35.3541 10.3182 34.8304 10.3182C34.3068 10.3182 33.8759 10.4541 33.5378 10.7259C33.1998 10.9976 32.9495 11.3539 32.7871 11.7947C32.6247 12.2356 32.5435 12.7112 32.5435 13.2216C32.5435 13.732 32.6247 14.206 32.7871 14.6435C32.9495 15.081 33.1998 15.4339 33.5378 15.7024C33.8759 15.9709 34.3068 16.1051 34.8304 16.1051ZM41.552 17L39.2253 9.36364H40.4583L42.1088 15.2102H42.1884L43.8191 9.36364H45.0719L46.6827 15.1903H46.7623L48.4128 9.36364H49.6458L47.3191 17H46.1657L44.4952 11.1335H44.3759L42.7054 17H41.552Z" fill="#34D026"/>
<rect x="0.5" y="0.5" width="58" height="23" rx="3.5" stroke="#34D026"/>
</svg>
