<svg viewBox="0 0 20 20" fill="none" xmlns="http://www.w3.org/2000/svg">
<g clip-path="url(#clip0_1622_1177)">
<path opacity="0.7" d="M9.64597 10.4688L14.2859 1.74212L4.95147 1.75402L0.311515 10.4807L9.64597 10.4688Z" fill="#45210B"/>
<path opacity="0.4" d="M9.64736 10.4675L14.2873 1.74079L19.4974 9.48596L14.8574 18.2127L9.64736 10.4675Z" fill="#E9A341"/>
<path d="M0.311822 10.4806L9.64628 10.4687L14.8563 18.2138L5.52187 18.2257L0.311822 10.4806Z" fill="#45210B"/>
<g>
<mask id="mask0_1622_1177" style="mask-type:alpha" maskUnits="userSpaceOnUse" x="0" y="10" width="15" height="9">
<path d="M0.311822 10.4801L9.64628 10.4682L14.8563 18.2134L5.52187 18.2253L0.311822 10.4801Z" fill="#8C8C8C"/>
</mask>
<g mask="url(#mask0_1622_1177)">
<path id="Rectangle 19020" d="M1.52734 1.17627L11.7085 6.58955L5.26412 18.71L-5.17481 13.7815L1.52734 1.17627Z" fill="#46210C"/>
</g>
</g>
<path d="M7.61088 6.11028L11.967 6.10472L14.3983 9.71913L10.0422 9.72469L7.61088 6.11028Z" fill="#E58331"/>
<path d="M12.1382 13.97L14.4004 9.71533L10.0569 9.69724L7.84225 13.8625L12.1382 13.97Z" fill="white"/>
<path d="M12.0093 14.2119L14.4582 9.60618L10.2093 9.41005L7.71334 14.1044L12.0093 14.2119Z" fill="#E58331"/>
<path d="M12.7826 12.7575L14.4582 9.60618L10.2093 9.41005L8.48667 12.65L12.7826 12.7575Z" fill="#45210B"/>
<path d="M5.22187 10.6031L7.67074 5.99733L10.2093 9.41005L7.71334 14.1044L5.22187 10.6031Z" fill="#F0D4AD"/>
<path d="M14.8567 18.2135L19.3678 9.72919L14.4582 9.60626L12.0093 14.212L14.8567 18.2135Z" fill="#45210B"/>
</g>
<defs>
<clipPath id="clip0_1622_1177">
<rect width="20" height="20" fill="white"/>
</clipPath>
</defs>
</svg>
