<svg viewBox="0 0 16 16" fill="none" xmlns="http://www.w3.org/2000/svg">
<path d="M13.4652 1H2.2848C1.02287 1 0 2.02287 0 3.2848V11.3714C0 12.6334 1.02287 13.6562 2.2848 13.6562H5.82381L7.62029 15.4527C7.76092 15.5934 7.98891 15.5934 8.12953 15.4527L9.92602 13.6562H13.465C14.727 13.6562 15.7498 12.6334 15.7498 11.3714V3.2848C15.75 2.02287 14.7271 1 13.4652 1Z" fill="#112438"/>
<path d="M7 5C7 4.44772 7.44772 4 8 4C8.55228 4 9 4.44772 9 5V7C9 7.55228 8.55228 8 8 8C7.44772 8 7 7.55228 7 7V5Z" fill="white"/>
<rect x="7" y="9" width="2" height="2" rx="1" fill="white"/>
</svg>
