<svg viewBox="0 0 16 16" fill="none" xmlns="http://www.w3.org/2000/svg">
<circle id="Ellipse 1146" cx="8" cy="8" r="8" fill="#112438"/>
<path id="Vector" d="M8.16 3C7.18667 3 6.41333 3.28 5.85333 3.85333C5.28 4.41333 5 5.17333 5 6.14667H6.41333C6.41333 5.56 6.53333 5.09333 6.77333 4.77333C7.04 4.4 7.48 4.21333 8.08 4.21333C8.56 4.21333 8.93333 4.34667 9.2 4.61333C9.45333 4.88 9.58667 5.24 9.58667 5.70667C9.58667 6.05333 9.46667 6.37333 9.22667 6.68L9 6.93333C8.17333 7.66667 7.66667 8.21333 7.48 8.58667C7.30667 8.93333 7.22667 9.36 7.22667 9.85333V10.08H8.65333V9.85333C8.65333 9.52 8.72 9.22667 8.86667 8.96C8.98667 8.72 9.17333 8.49333 9.41333 8.28C10.0533 7.73333 10.4267 7.38667 10.5467 7.24C10.8667 6.81333 11.04 6.26667 11.04 5.61333C11.04 4.81333 10.7733 4.17333 10.2533 3.70667C9.72 3.22667 9.02667 3 8.16 3ZM7.93333 11C7.65333 11 7.42667 11.08 7.25333 11.2667C7.05333 11.44 6.96 11.6667 6.96 11.9467C6.96 12.2133 7.05333 12.44 7.25333 12.6267C7.42667 12.8133 7.65333 12.9067 7.93333 12.9067C8.2 12.9067 8.44 12.8133 8.64 12.64C8.82667 12.4533 8.92 12.2267 8.92 11.9467C8.92 11.6667 8.82667 11.44 8.64 11.2667C8.45333 11.08 8.21333 11 7.93333 11Z" fill="white" stroke="white" stroke-width="0.3"/>
</svg>
