<svg width="18" height="18" viewBox="0 0 18 18" fill="none" xmlns="http://www.w3.org/2000/svg">
<circle opacity="0.04" cx="9" cy="9" r="9" fill="#112438"/>
<g opacity="0.6">
<path d="M11.9494 7.11122C11.9494 7.58453 11.7753 8.12976 11.4637 8.71269C11.1553 9.28953 10.7361 9.85911 10.3037 10.369C9.87296 10.8769 9.44032 11.3124 9.11458 11.6214C9.07443 11.6594 9.03598 11.6955 8.99941 11.7296C8.96285 11.6955 8.92439 11.6594 8.88425 11.6214C8.55851 11.3124 8.12586 10.8769 7.69513 10.369C7.2627 9.85911 6.84352 9.28953 6.53514 8.71269C6.22351 8.12976 6.04941 7.58453 6.04941 7.11122C6.04941 5.54664 7.35468 4.25059 8.99941 4.25059C10.6442 4.25059 11.9494 5.54664 11.9494 7.11122Z" stroke="#112438" stroke-width="1.3"/>
<path d="M10.1828 7.20125C10.1828 7.84743 9.65895 8.37125 9.01278 8.37125C8.3666 8.37125 7.84278 7.84743 7.84278 7.20125C7.84278 6.55508 8.3666 6.03125 9.01278 6.03125C9.65895 6.03125 10.1828 6.55508 10.1828 7.20125Z" fill="#112438"/>
<path d="M6.2998 12.9609H11.6998V14.4009H6.2998V12.9609Z" fill="#112438"/>
</g>
</svg>
