<svg width="24" height="24" viewBox="0 0 24 24" fill="none" xmlns="http://www.w3.org/2000/svg">
<rect width="24" height="24" rx="4" fill="#112438" fill-opacity="0.04"/>
<path opacity="0.6" d="M12.2086 5C10.7583 5 9.60595 5.40385 8.77152 6.23076C7.91722 7.03846 7.5 8.13461 7.5 9.53845H9.60595C9.60595 8.69231 9.78476 8.01923 10.1424 7.55769C10.5397 7.01923 11.1954 6.74999 12.0894 6.74999C12.8046 6.74999 13.3609 6.94229 13.7583 7.32692C14.1358 7.71154 14.3344 8.23077 14.3344 8.90384C14.3344 9.40384 14.1556 9.86538 13.798 10.3077L13.4603 10.6731C12.2285 11.7308 11.4735 12.5192 11.1954 13.0577C10.9371 13.5577 10.8179 14.1731 10.8179 14.8846V15.2115H12.9437V14.8846C12.9437 14.4039 13.043 13.9808 13.2616 13.5962C13.4404 13.25 13.7185 12.9231 14.0762 12.6154C15.0298 11.8269 15.5861 11.3269 15.7649 11.1154C16.2417 10.5 16.5 9.71153 16.5 8.76923C16.5 7.61538 16.1026 6.6923 15.3278 6.01922C14.5331 5.32691 13.5 5 12.2086 5ZM11.8709 16.25C11.4536 16.25 11.1159 16.3654 10.8576 16.6346C10.5596 16.8846 10.4205 17.2115 10.4205 17.6154C10.4205 18 10.5596 18.3269 10.8576 18.5962C11.1159 18.8654 11.4536 19 11.8709 19C12.2682 19 12.6258 18.8654 12.9238 18.6154C13.202 18.3462 13.3411 18.0192 13.3411 17.6154C13.3411 17.2115 13.202 16.8846 12.9238 16.6346C12.6457 16.3654 12.2881 16.25 11.8709 16.25Z" fill="#112438"/>
</svg>
