<svg width="88" height="84" viewBox="0 0 88 84" fill="none" xmlns="http://www.w3.org/2000/svg">
<path opacity="0.15" d="M15.5055 20.3985C11.5294 25.3766 12.7592 32.3133 13.8712 35.1594C13.6282 39.2083 11.8289 40.5895 10.2693 43.3521C7.87683 47.59 8.06218 52.9045 9.88011 57.4188C14.0182 67.6946 25.724 72.9721 58.5174 71.4054C90.2505 69.8894 84.8726 50.2535 78.2171 40.6251C74.73 32.8259 81.4343 22.6453 71.7543 16.5056C62.0743 10.3658 57.5643 19.6091 44.8869 15.3205C32.2095 11.0319 20.4756 14.176 15.5055 20.3985Z" fill="#F6F9F9"/>
<circle cx="45.1948" cy="38.293" r="27.0769" transform="rotate(135 45.1948 38.293)" fill="#112438" stroke="white" stroke-width="1.5"/>
<path d="M38.9376 29.3381V29.6624H37.6876C35.0984 29.6624 33 31.8405 33 34.5272V43.2839C33 45.9706 35.0987 48.1487 37.6876 48.1487H48.1717C49.1002 47.8316 49.1002 46.52 48.1717 46.2028H37.6876C36.1341 46.2028 34.875 44.8958 34.875 43.2839V34.5272C34.875 32.9153 36.1341 31.6083 37.6873 31.6083H39.6763C39.8255 31.6083 39.9733 31.5789 40.1111 31.5219C40.249 31.4649 40.3743 31.3812 40.4798 31.2758C40.5853 31.1704 40.669 31.0453 40.7261 30.9076C40.7832 30.7699 40.8126 30.6222 40.8126 30.4732V29.3381C40.8126 28.4426 41.512 27.7164 42.3749 27.7164H48.6249C49.4879 27.7164 50.1876 28.4426 50.1876 29.3381V30.3597C50.1876 30.5236 50.2199 30.686 50.2827 30.8375C50.3455 30.989 50.4376 31.1266 50.5537 31.2426C50.7881 31.4768 51.106 31.6083 51.4376 31.6083H53.3125C54.8658 31.6083 56.1249 32.9153 56.1249 34.5272V40.365C56.3213 41.3895 57.7882 41.3866 57.9999 40.365V34.5272C57.9999 31.8405 55.9012 29.6624 53.3122 29.6624H52.0622V29.3381C52.0622 27.3678 50.5233 25.7705 48.6249 25.7705H42.3749C40.4766 25.7705 38.9376 27.3678 38.9376 29.3381ZM48.909 38.0948C48.909 36.3035 47.4554 34.8515 45.6623 34.8515C43.8691 34.8515 42.4155 36.3035 42.4155 38.0948C42.4155 39.886 43.8691 41.338 45.6623 41.338C47.4554 41.338 48.909 39.886 48.909 38.0948ZM50.857 38.0948C50.857 40.9608 48.5314 43.2839 45.6623 43.2839C42.7931 43.2839 40.4675 40.9608 40.4675 38.0948C40.4675 35.2287 42.7931 32.9056 45.6623 32.9056C48.5314 32.9056 50.857 35.2287 50.857 38.0948ZM53.1297 42.9596C53.1297 42.8318 53.1549 42.7053 53.2038 42.5872C53.2528 42.4691 53.3245 42.3619 53.415 42.2715C53.5054 42.1811 53.6128 42.1095 53.731 42.0605C53.8492 42.0116 53.9758 41.9865 54.1038 41.9865C54.2317 41.9865 54.3584 42.0116 54.4765 42.0605C54.5947 42.1095 54.7021 42.1811 54.7926 42.2715C54.883 42.3619 54.9548 42.4691 55.0037 42.5872C55.0526 42.7053 55.0778 42.8318 55.0778 42.9596V44.9055H57.0258C57.1538 44.9055 57.2804 44.9307 57.3986 44.9795C57.5168 45.0284 57.6242 45.1001 57.7147 45.1904C57.8051 45.2808 57.8769 45.3881 57.9258 45.5061C57.9748 45.6242 58 45.7507 58 45.8785C58 46.0063 57.9748 46.1328 57.9258 46.2509C57.8769 46.3689 57.8051 46.4762 57.7147 46.5665C57.6242 46.6569 57.5168 46.7285 57.3986 46.7774C57.2804 46.8263 57.1538 46.8515 57.0258 46.8515H55.0778V48.7974C55.0778 48.9252 55.0526 49.0517 55.0037 49.1698C54.9548 49.2878 54.883 49.3951 54.7926 49.4855C54.7021 49.5758 54.5947 49.6475 54.4765 49.6964C54.3584 49.7453 54.2317 49.7705 54.1038 49.7705C53.9758 49.7705 53.8492 49.7453 53.731 49.6964C53.6128 49.6475 53.5054 49.5758 53.415 49.4855C53.3245 49.3951 53.2528 49.2878 53.2038 49.1698C53.1549 49.0517 53.1297 48.9252 53.1297 48.7974V46.8515H51.1817C51.0538 46.8515 50.9271 46.8263 50.8089 46.7774C50.6907 46.7285 50.5833 46.6569 50.4929 46.5665C50.4024 46.4762 50.3307 46.3689 50.2817 46.2509C50.2327 46.1328 50.2075 46.0063 50.2075 45.8785C50.2075 45.7507 50.2327 45.6242 50.2817 45.5061C50.3307 45.3881 50.4024 45.2808 50.4929 45.1904C50.5833 45.1001 50.6907 45.0284 50.8089 44.9795C50.9271 44.9307 51.0538 44.9055 51.1817 44.9055H53.1297V42.9596Z" fill="white"/>
</svg>
