<svg width="18" height="18" viewBox="0 0 18 18" fill="none" xmlns="http://www.w3.org/2000/svg">
<g clip-path="url(#clip0_234_4771)">
<path d="M15.0001 6.00019C15.0001 5.175 14.3251 4.5 13.4999 4.5C12.6748 4.5 11.9998 5.175 11.9998 6.00019C11.9998 6.82537 12.6748 7.50037 13.4999 7.50037C14.3251 7.50037 15.0001 6.82537 15.0001 6.00019Z" fill="white"/>
<path d="M-0.000488281 1.5V16.5002H18.0001V15H1.4997V13.0498L5.9997 8.54981L8.99951 11.5496L10.0497 10.4994L5.9997 6.44944L1.4997 10.9494V2.99963H16.4999V16.4998L18.0001 16.5002V1.5H-0.000488281Z" fill="white"/>
<path d="M11.5 10.9496L7.00003 15.4496H4.89966L11.5 8.84924L17.5 14.8492L16.4498 15.8994L11.5 10.9496Z" fill="white"/>
</g>
<defs>
<clipPath id="clip0_234_4771">
<rect width="18" height="18" fill="white"/>
</clipPath>
</defs>
</svg>
