<svg width="18" height="18" viewBox="0 0 18 18" fill="none" xmlns="http://www.w3.org/2000/svg">
<g clip-path="url(#clip0_234_4764)">
<path d="M15.0001 6.00019C15.0001 5.175 14.3251 4.5 13.4999 4.5C12.6748 4.5 11.9998 5.175 11.9998 6.00019C11.9998 6.82537 12.6748 7.50037 13.4999 7.50037C14.3251 7.50037 15.0001 6.82537 15.0001 6.00019Z" fill="white"/>
<path d="M0 1.50018V16.5004H9V15.0002H1.50019V13.05L6.00019 8.55L9 11.5498L10.0502 10.4996L6.00019 6.44962L1.50019 10.9496V2.99981H16.5004V7.49981L18.0006 9V1.50018H0Z" fill="white"/>
<path d="M16.7249 13.275L17.7751 12.2248L14.2499 8.69965L10.7247 12.2248L11.7749 13.275L13.5001 11.5498V14.9996H15.0002V11.5498L16.7249 13.275ZM10.5002 16L18 16V17.5L10.5002 17.5V16Z" fill="white"/>
</g>
<defs>
<clipPath id="clip0_234_4764">
<rect width="18" height="18" fill="white"/>
</clipPath>
</defs>
</svg>
