<?xml version="1.0" encoding="utf-8"?>
<!-- Generator: Adobe Illustrator 26.3.1, SVG Export Plug-In . SVG Version: 6.00 Build 0)  -->
<svg version="1.1" id="图层_1" xmlns="http://www.w3.org/2000/svg" xmlns:xlink="http://www.w3.org/1999/xlink" x="0px" y="0px"
	 viewBox="0 0 98 99" style="enable-background:new 0 0 98 99;" xml:space="preserve">
<style type="text/css">
	.st0{fill:#112438;stroke:#FFFFFF;stroke-width:3;}
	.st1{fill:#FFFFFF;}
</style>
<ellipse transform="matrix(0.7071 -0.7071 0.7071 0.7071 -20.65 49.1464)" class="st0" cx="49" cy="49.5" rx="46.7" ry="47.7"/>
<path class="st1" d="M37.2,34.5V35H35c-4.6,0-8.3,3.8-8.3,8.5v15.3c0,4.7,3.7,8.5,8.3,8.5h18.5c1.6-0.6,1.6-2.9,0-3.4H35
	c-2.7,0-5-2.3-5-5.1V43.5c0-2.8,2.2-5.1,4.9-5.1h3.5c0.3,0,0.5-0.1,0.8-0.2c0.2-0.1,0.5-0.2,0.6-0.4c0.2-0.2,0.3-0.4,0.4-0.6
	c0.1-0.2,0.2-0.5,0.2-0.8v-2c0-1.6,1.2-2.8,2.7-2.8h11c1.5,0,2.8,1.3,2.8,2.8v1.8c0,0.3,0.1,0.6,0.2,0.8c0.1,0.3,0.3,0.5,0.5,0.7
	c0.4,0.4,1,0.6,1.6,0.6h3.3c2.7,0,4.9,2.3,4.9,5.1v10.2c0.3,1.8,2.9,1.8,3.3,0V43.5c0-4.7-3.7-8.5-8.3-8.5h-2.2v-0.6
	c0-3.4-2.7-6.2-6-6.2h-11C40,28.2,37.2,31,37.2,34.5z M54.8,49.8c0-3.1-2.6-5.7-5.7-5.7c-3.2,0-5.7,2.5-5.7,5.7
	c0,3.1,2.6,5.7,5.7,5.7C52.2,55.5,54.8,52.9,54.8,49.8z M58.2,49.8c0,5-4.1,9.1-9.1,9.1s-9.1-4.1-9.1-9.1c0-5,4.1-9.1,9.1-9.1
	S58.2,44.8,58.2,49.8z M62.2,58.3c0-0.2,0-0.4,0.1-0.7c0.1-0.2,0.2-0.4,0.4-0.6c0.2-0.2,0.3-0.3,0.6-0.4c0.2-0.1,0.4-0.1,0.7-0.1
	c0.2,0,0.4,0,0.7,0.1c0.2,0.1,0.4,0.2,0.6,0.4c0.2,0.2,0.3,0.3,0.4,0.6s0.1,0.4,0.1,0.7v3.4h3.4c0.2,0,0.4,0,0.7,0.1
	c0.2,0.1,0.4,0.2,0.6,0.4c0.2,0.2,0.3,0.3,0.4,0.6c0.1,0.2,0.1,0.4,0.1,0.7c0,0.2,0,0.4-0.1,0.7c-0.1,0.2-0.2,0.4-0.4,0.6
	c-0.2,0.2-0.3,0.3-0.6,0.4c-0.2,0.1-0.4,0.1-0.7,0.1h-3.4v3.4c0,0.2,0,0.4-0.1,0.7s-0.2,0.4-0.4,0.6c-0.2,0.2-0.3,0.3-0.6,0.4
	c-0.2,0.1-0.4,0.1-0.7,0.1c-0.2,0-0.4,0-0.7-0.1c-0.2-0.1-0.4-0.2-0.6-0.4c-0.2-0.2-0.3-0.3-0.4-0.6c-0.1-0.2-0.1-0.4-0.1-0.7v-3.4
	h-3.4c-0.2,0-0.4,0-0.7-0.1c-0.2-0.1-0.4-0.2-0.6-0.4c-0.2-0.2-0.3-0.3-0.4-0.6c-0.1-0.2-0.1-0.4-0.1-0.7c0-0.2,0-0.4,0.1-0.7
	c0.1-0.2,0.2-0.4,0.4-0.6c0.2-0.2,0.3-0.3,0.6-0.4c0.2-0.1,0.4-0.1,0.7-0.1h3.4V58.3z"/>
</svg>
