<svg width="163" height="139" viewBox="0 0 163 139" fill="none" xmlns="http://www.w3.org/2000/svg">
<path d="M39.8981 30.8973C33.1829 39.3046 35.26 51.0201 37.138 55.8269C36.7695 61.9687 34.2806 64.4758 31.869 68.3033C26.9258 76.1488 27.1605 86.4472 31.0235 94.8771C38.5364 111.272 58.7271 119.614 112.541 117.043C166.135 114.482 157.052 81.3193 145.812 65.0578C139.922 51.8859 151.245 34.6919 134.897 24.3225C118.548 13.953 110.931 29.5641 89.5204 22.321C68.1096 15.078 48.2922 20.3881 39.8981 30.8973Z" fill="#F6F9F9"/>
<path d="M77 38.2549L57 39.7549L63 98.7549L87 96.7549L83 81.7549L85.5 63.7549L69.5 49.2549L77 38.2549Z" fill="white"/>
<path d="M85.5 47.7549L94 37.7549L129 40.7549L124 100.255L88 96.7549L83.5 83.2549L97.5 62.7549L85.5 47.7549Z" fill="white"/>
<circle cx="112.603" cy="55.5322" r="5.5" fill="#B4CFCC"/>
<rect x="56" y="38.9746" width="3" height="62" transform="rotate(-5 56 38.9746)" fill="#B4CFCC"/>
<path d="M127.405 39.3135L130.394 39.5749L124.99 101.339L122.002 101.078L127.405 39.3135Z" fill="#B4CFCC"/>
<rect x="56.1006" y="38.999" width="23" height="3" transform="rotate(-5 56.1006 38.999)" fill="#B4CFCC"/>
<path d="M66.9775 49.8739L76.9811 38.0322L79.2728 39.9682L69.2692 51.8099L66.9775 49.8739Z" fill="#B4CFCC"/>
<path d="M83.1025 48.0967L93.1061 36.2551L95.3978 38.191L85.3942 50.0327L83.1025 48.0967Z" fill="#B4CFCC"/>
<path d="M85.7373 65.7236L67.2954 50.1443L69.2314 47.8525L87.6733 63.4319L85.7373 65.7236Z" fill="#B4CFCC"/>
<path d="M97.7358 64.626L83.1027 48.0956L85.349 46.1071L99.9821 62.6375L97.7358 64.626Z" fill="#B4CFCC"/>
<path d="M87.6759 63.4211L84.0552 83.563L81.1025 83.0322L84.7232 62.8903L87.6759 63.4211Z" fill="#B4CFCC"/>
<path d="M99.9463 62.6309L84.3632 84.4238L81.9229 82.6789L97.506 60.8859L99.9463 62.6309Z" fill="#B4CFCC"/>
<path d="M83.9248 82.0322L89.3351 97.052L86.5126 98.0687L81.1023 83.0489L83.9248 82.0322Z" fill="#B4CFCC"/>
<rect x="59.959" y="84.7988" width="16" height="3" transform="rotate(-4.80945 59.959 84.7988)" fill="#B4CFCC"/>
<rect x="89.4731" y="83.9668" width="36.6098" height="3" transform="rotate(5 89.4731 83.9668)" fill="#B4CFCC"/>
<path d="M61.1806 97.7402L86.6109 95.6006L86.8624 98.59L61.4321 100.73L61.1806 97.7402Z" fill="#B4CFCC"/>
<path d="M86.7615 95.584L125.233 98.9498L124.972 101.938L86.5 98.5726L86.7615 95.584Z" fill="#B4CFCC"/>
<path d="M93.1064 36.2842L130.364 39.5438L130.103 42.5324L92.845 39.2728L93.1064 36.2842Z" fill="#B4CFCC"/>
<path d="M1.00003 49.2549C2.52419 56.6691 6.79226 69.9158 19.7984 69.5204C29.9595 69.5204 25.0495 57.3948 16.2416 64.0833C6.30004 71.6327 16.9001 85.1772 25.7334 83.9994" stroke="#B4CFCC" stroke-width="1.83" stroke-dasharray="4.54 4.54"/>
<path d="M52.6123 90.3752C42.0123 99.2084 35.1419 90.964 32.0012 86.2529C40.2456 82.7197 44.3678 84.4863 46.7234 86.8418C48.6079 88.7263 51.4345 89.9826 52.6123 90.3752Z" fill="#B4CFCC"/>
<mask id="mask0_180_707" style="mask-type:alpha" maskUnits="userSpaceOnUse" x="32" y="84" width="21" height="11">
<path opacity="0.67" d="M52.6123 90.3751C42.0123 99.2084 35.1419 90.964 32.0012 86.2529C40.2456 82.7196 44.3679 84.4862 46.7234 86.8418C48.6079 88.7262 51.4345 89.9825 52.6123 90.3751Z" fill="#B4CFCC"/>
</mask>
<g mask="url(#mask0_180_707)">
<path d="M32.0002 86.2529C41.4224 93.9085 48.4891 92.1418 52.6113 90.3752L53.2002 92.7307L49.078 95.6752L38.478 94.4974L30.8224 86.2529L32.0002 86.2529Z" fill="#EEF2F2"/>
</g>
<path d="M98.2845 6.91021C98.3529 6.70221 98.6471 6.70221 98.7155 6.91021L99.5779 9.53234C99.6004 9.60079 99.6541 9.65448 99.7225 9.67699L102.345 10.5394C102.553 10.6078 102.553 10.902 102.345 10.9704L99.7225 11.8328C99.6541 11.8553 99.6004 11.909 99.5779 11.9774L98.7155 14.5996C98.6471 14.8076 98.3529 14.8076 98.2845 14.5996L97.4221 11.9774C97.3996 11.909 97.3459 11.8553 97.2775 11.8328L94.6553 10.9704C94.4473 10.902 94.4473 10.6078 94.6553 10.5394L97.2775 9.67699C97.3459 9.65448 97.3996 9.60079 97.4221 9.53234L98.2845 6.91021Z" fill="#EEF2F2"/>
<path d="M18.1581 29.9102C18.2265 29.7022 18.5207 29.7022 18.5891 29.9102L20.1627 34.6948C20.1852 34.7632 20.2389 34.8169 20.3073 34.8394L25.0919 36.413C25.2999 36.4814 25.2999 36.7756 25.0919 36.844L20.3073 38.4176C20.2389 38.4401 20.1852 38.4938 20.1627 38.5622L18.5891 43.3468C18.5207 43.5548 18.2265 43.5548 18.1581 43.3468L16.5845 38.5622C16.562 38.4938 16.5083 38.4401 16.4399 38.4176L11.6553 36.844C11.4473 36.7756 11.4473 36.4814 11.6553 36.413L16.4399 34.8394C16.5083 34.8169 16.562 34.7632 16.5845 34.6948L18.1581 29.9102Z" fill="#EEF2F2"/>
<path d="M155.784 42.9102C155.853 42.7022 156.147 42.7022 156.216 42.9102L157.449 46.6611C157.472 46.7296 157.525 46.7832 157.594 46.8058L161.345 48.0394C161.553 48.1078 161.553 48.402 161.345 48.4704L157.594 49.704C157.525 49.7265 157.472 49.7802 157.449 49.8487L156.216 53.5996C156.147 53.8076 155.853 53.8076 155.784 53.5996L154.551 49.8487C154.528 49.7802 154.475 49.7265 154.406 49.704L150.655 48.4704C150.447 48.402 150.447 48.1078 150.655 48.0394L154.406 46.8058C154.475 46.7832 154.528 46.7296 154.551 46.6611L155.784 42.9102Z" fill="#EEF2F2"/>
<path d="M140 89.2549C140 96.4346 134.18 102.255 127 102.255C119.82 102.255 114 96.4346 114 89.2549C114 82.0752 119.82 76.2549 127 76.2549C134.18 76.2549 140 82.0752 140 89.2549Z" fill="#DAE5E4"/>
<rect x="125.5" y="81.7549" width="3" height="10" fill="white"/>
<rect x="125.5" y="93.7549" width="3" height="3" fill="white"/>
</svg>
