<svg width="183" height="179" viewBox="0 0 183 179" fill="none" xmlns="http://www.w3.org/2000/svg">
<path d="M0 6C0 2.68629 2.68629 0 6 0H177C180.314 0 183 2.68629 183 6V179H0V6Z" fill="url(#paint0_linear_22_10949)"/>
<path d="M91.9352 162.086C70.0371 162.086 52.2852 166.936 52.2852 169.057H131.585C131.585 166.936 113.833 162.086 91.9352 162.086Z" fill="url(#paint1_linear_22_10949)"/>
<path d="M66.2286 160.912C63.0915 160.652 59.6929 166.233 58.3857 169.057H126.357C126.357 162.541 120.257 160.912 114.593 161.89C108.929 162.867 110.236 150.487 101.957 148.532C95.3343 146.968 87.5786 150.487 84.5286 152.442C77.5572 151.464 70.15 161.238 66.2286 160.912Z" fill="url(#paint2_linear_22_10949)"/>
<mask id="mask0_22_10949" style="mask-type:alpha" maskUnits="userSpaceOnUse" x="58" y="148" width="69" height="22">
<path d="M66.2286 160.912C63.0915 160.652 59.6929 166.233 58.3857 169.057H126.357C126.357 162.541 120.257 160.912 114.593 161.89C108.929 162.867 110.236 150.487 101.957 148.532C95.3343 146.968 87.5786 150.487 84.5286 152.442C77.5572 151.464 70.15 161.238 66.2286 160.912Z" fill="url(#paint3_linear_22_10949)"/>
</mask>
<g mask="url(#mask0_22_10949)">
<g filter="url(#filter0_f_22_10949)">
<path d="M96.0785 155.825C92.4416 152.736 94.5631 148.245 96.0785 146.386C90.2593 138.836 62.1347 157.827 48.7998 168.266L82.4389 173.414C81.2266 170.84 80.3477 165.348 86.5303 163.976C94.2586 162.26 100.625 159.686 96.0785 155.825Z" fill="url(#paint4_linear_22_10949)"/>
</g>
</g>
<path d="M28.7568 153.371L29.6164 153.472C71.0186 158.326 112.848 158.292 154.243 153.371V153.371" stroke="#947252" stroke-width="1.5"/>
<g filter="url(#filter1_i_22_10949)">
<path fill-rule="evenodd" clip-rule="evenodd" d="M33.114 144.657L33.114 170.8L26.1426 170.8L26.1426 144.657L33.114 144.657Z" fill="#AD8866"/>
</g>
<g filter="url(#filter2_i_22_10949)">
<path fill-rule="evenodd" clip-rule="evenodd" d="M157.728 144.657L157.728 170.8L150.757 170.8L150.757 144.657L157.728 144.657Z" fill="#AD8866"/>
</g>
<defs>
<filter id="filter0_f_22_10949" x="43.7998" y="139.657" width="58.7998" height="38.7571" filterUnits="userSpaceOnUse" color-interpolation-filters="sRGB">
<feFlood flood-opacity="0" result="BackgroundImageFix"/>
<feBlend mode="normal" in="SourceGraphic" in2="BackgroundImageFix" result="shape"/>
<feGaussianBlur stdDeviation="2.5" result="effect1_foregroundBlur_22_10949"/>
</filter>
<filter id="filter1_i_22_10949" x="26.1426" y="144.657" width="8.97168" height="27.1429" filterUnits="userSpaceOnUse" color-interpolation-filters="sRGB">
<feFlood flood-opacity="0" result="BackgroundImageFix"/>
<feBlend mode="normal" in="SourceGraphic" in2="BackgroundImageFix" result="shape"/>
<feColorMatrix in="SourceAlpha" type="matrix" values="0 0 0 0 0 0 0 0 0 0 0 0 0 0 0 0 0 0 127 0" result="hardAlpha"/>
<feOffset dx="2" dy="1"/>
<feGaussianBlur stdDeviation="2"/>
<feComposite in2="hardAlpha" operator="arithmetic" k2="-1" k3="1"/>
<feColorMatrix type="matrix" values="0 0 0 0 1 0 0 0 0 0.911667 0 0 0 0 0.779167 0 0 0 0.31 0"/>
<feBlend mode="normal" in2="shape" result="effect1_innerShadow_22_10949"/>
</filter>
<filter id="filter2_i_22_10949" x="148.757" y="143.657" width="8.97168" height="27.1429" filterUnits="userSpaceOnUse" color-interpolation-filters="sRGB">
<feFlood flood-opacity="0" result="BackgroundImageFix"/>
<feBlend mode="normal" in="SourceGraphic" in2="BackgroundImageFix" result="shape"/>
<feColorMatrix in="SourceAlpha" type="matrix" values="0 0 0 0 0 0 0 0 0 0 0 0 0 0 0 0 0 0 127 0" result="hardAlpha"/>
<feOffset dx="-2" dy="-1"/>
<feGaussianBlur stdDeviation="2"/>
<feComposite in2="hardAlpha" operator="arithmetic" k2="-1" k3="1"/>
<feColorMatrix type="matrix" values="0 0 0 0 0 0 0 0 0 0 0 0 0 0 0 0 0 0 0.29 0"/>
<feBlend mode="multiply" in2="shape" result="effect1_innerShadow_22_10949"/>
</filter>
<linearGradient id="paint0_linear_22_10949" x1="91.5" y1="0" x2="91.5" y2="179" gradientUnits="userSpaceOnUse">
<stop stop-color="#E1E1E1"/>
<stop offset="1" stop-color="#E1E1E1" stop-opacity="0"/>
</linearGradient>
<linearGradient id="paint1_linear_22_10949" x1="91.9352" y1="162.086" x2="91.9352" y2="169.057" gradientUnits="userSpaceOnUse">
<stop stop-color="#797A3A"/>
<stop offset="1" stop-color="#3D3017"/>
</linearGradient>
<linearGradient id="paint2_linear_22_10949" x1="76.6857" y1="178.643" x2="93.6786" y2="161.65" gradientUnits="userSpaceOnUse">
<stop stop-color="#9A9B4C"/>
<stop offset="1" stop-color="#6A5B3D"/>
</linearGradient>
<linearGradient id="paint3_linear_22_10949" x1="90.1929" y1="144.221" x2="93.6786" y2="161.65" gradientUnits="userSpaceOnUse">
<stop stop-color="#9A9B4C"/>
<stop offset="1" stop-color="#6A5B3D"/>
</linearGradient>
<linearGradient id="paint4_linear_22_10949" x1="78.3491" y1="151.535" x2="79.1592" y2="165.269" gradientUnits="userSpaceOnUse">
<stop stop-color="#9A9B4C"/>
<stop offset="1" stop-color="#6A5B3D"/>
</linearGradient>
</defs>
</svg>
