<svg viewBox="0 0 20 20" fill="none" xmlns="http://www.w3.org/2000/svg">
<path d="M9.24992 7.49984V17.3314L5.74992 15.089V7.49984V7.2283L5.57608 7.0197L1.84789 2.54586L1.97725 2.4165H13.0226L13.1519 2.54586L9.42375 7.0197L9.24992 7.2283V7.49984ZM9.28309 17.4766L9.28308 17.4766C9.28308 17.4766 9.28309 17.4766 9.28309 17.4766ZM9.36313 17.5566L9.36315 17.5567L9.31981 17.4521L9.36313 17.5566Z" stroke="#34D026" stroke-width="1.5"/>
<path d="M12.0834 14.9835C12.0834 14.7626 12.2625 14.5835 12.4834 14.5835L17.9334 14.5835C18.1543 14.5835 18.3334 14.7626 18.3334 14.9835V15.4335C18.3334 15.6544 18.1543 15.8335 17.9334 15.8335H12.4834C12.2625 15.8335 12.0834 15.6544 12.0834 15.4335V14.9835Z" fill="#34D026"/>
<path d="M12.0834 12.4835C12.0834 12.2626 12.2625 12.0835 12.4834 12.0835L17.9334 12.0835C18.1543 12.0835 18.3334 12.2626 18.3334 12.4835V12.9335C18.3334 13.1544 18.1543 13.3335 17.9334 13.3335H12.4834C12.2625 13.3335 12.0834 13.1544 12.0834 12.9335V12.4835Z" fill="#34D026"/>
<path d="M12.0834 9.9835C12.0834 9.76258 12.2625 9.5835 12.4834 9.5835L17.9334 9.5835C18.1543 9.5835 18.3334 9.76258 18.3334 9.9835V10.4335C18.3334 10.6544 18.1543 10.8335 17.9334 10.8335H12.4834C12.2625 10.8335 12.0834 10.6544 12.0834 10.4335V9.9835Z" fill="#34D026"/>
</svg>
