<svg width="18" height="18" viewBox="0 0 18 18" fill="none" xmlns="http://www.w3.org/2000/svg">
<circle cx="9" cy="9" r="9" fill="#FCF5FE"/>
<path d="M3.34304 6.82869C3.67664 5.98962 4.23606 5.27367 4.95125 4.7705C5.66643 4.26733 6.50559 3.99931 7.36363 4H10.6363C11.4761 4 12.2981 4.25719 13.0035 4.74072C13.709 5.22425 14.268 5.91357 14.6135 6.72597C14.9591 7.53837 15.0764 8.43933 14.9514 9.32075C14.8265 10.2022 14.4645 11.0266 13.9091 11.6951V14.7105C13.9091 14.7677 13.8931 14.8237 13.8631 14.8713C13.8331 14.9189 13.7905 14.956 13.7407 14.978C13.6909 14.9999 13.636 15.0056 13.5831 14.9944C13.5302 14.9833 13.4816 14.9557 13.4435 14.9152L11.7448 13.1122C11.3829 13.2126 11.0104 13.2633 10.6363 13.2631H7.36363C6.6435 13.2627 5.93464 13.0733 5.30021 12.7116C4.66579 12.35 4.12549 11.8274 3.72747 11.1904C3.32944 10.5534 3.08605 9.82184 3.01898 9.06082C2.95191 8.2998 3.06323 7.53298 3.34304 6.82869Z" fill="#47A4F9"/>
<circle cx="6" cy="8.5" r="1" fill="white"/>
<circle cx="9" cy="8.5" r="1" fill="white"/>
<circle cx="12" cy="8.5" r="1" fill="white"/>
</svg>
