<?xml version="1.0" encoding="utf-8"?>
<!-- Generator: Adobe Illustrator 24.0.1, SVG Export Plug-In . SVG Version: 6.00 Build 0)  -->
<svg version="1.1" id="图层_1" xmlns="http://www.w3.org/2000/svg" xmlns:xlink="http://www.w3.org/1999/xlink" x="0px" y="0px"
	 viewBox="0 0 20 20" style="enable-background:new 0 0 20 20;" xml:space="preserve">
<style type="text/css">
	.st0{fill:#E5404F;}
	.st1{fill:#112438;fill-opacity:0.6;}
</style>
<path class="st0" d="M15.6,11.8c-0.6,0-1.1,0.2-1.4,0.7c-0.4-0.4-0.9-0.7-1.4-0.7c-1.1,0-2,1-2,2.1c0,0.7,0.3,1.2,0.6,1.6
	c0.7,1.1,2.5,2.5,2.5,2.5c0.1,0.1,0.2,0.1,0.3,0.1s0.2,0,0.3-0.1c0.1-0.1,1.8-1.4,2.5-2.5l0,0c0.2-0.4,0.5-0.9,0.5-1.6
	C17.6,12.8,16.7,11.8,15.6,11.8z"/>
<path class="st1" d="M8.5,9.1c1.8,0,3.2-1.4,3.2-3.2V4.8c0-1.8-1.4-3.2-3.2-3.2S5.3,3.1,5.3,4.8v1.1C5.3,7.6,6.8,9.1,8.5,9.1z"/>
<path class="st1" d="M10.5,16.1C10.2,15.6,9.8,15,9.8,14c0-1.2,0.6-2.2,1.6-2.8c-0.9-0.2-1.8-0.3-2.8-0.3c-1.9,0-3.6,0.4-5.3,1
	c-1,0.4-1.6,1.4-1.6,2.6v1.3c0,0.9,0.5,1.6,1.3,1.8c1.8,0.4,3.7,0.7,5.6,0.7c1.3,0,2.5-0.1,3.7-0.3C11.6,17.4,10.9,16.7,10.5,16.1z"
	/>
</svg>
