<svg width="18" height="18" viewBox="0 0 18 18" fill="none" xmlns="http://www.w3.org/2000/svg">
<circle cx="9" cy="9" r="9" fill="#FFF9EC"/>
<path d="M7.62552 8.44336C8.68897 8.44336 9.55103 7.59064 9.55103 6.53867V5.9047C9.55103 4.85272 8.68897 4 7.62552 4C6.56207 4 5.7 4.85272 5.7 5.9047V6.53867C5.7 7.59064 6.56207 8.44336 7.62552 8.44336ZM10.7814 10.1641C9.80069 9.77121 8.73724 9.55525 7.62552 9.55525C6.51517 9.55525 5.45448 9.77121 4.47517 10.1627C3.90276 10.4289 3.5 11.0266 3.5 11.7289V12.5119C3.5 13.0288 3.82828 13.4636 4.27517 13.6057C5.35241 13.8607 6.47379 14 7.62552 14C8.77586 14 9.89586 13.8607 10.9717 13.6043C11.4214 13.4636 11.751 13.0302 11.751 12.5091V11.7261C11.751 11.028 11.3524 10.4303 10.7814 10.1641Z" fill="#FAB516"/>
<path d="M13 7L12.9986 5.5H11.9986L12 7H10.5V8H12V9.5H12.9986V8H14.5V7H13Z" fill="#FAB516"/>
</svg>
