<svg width="166" height="126" viewBox="0 0 166 126" fill="none" xmlns="http://www.w3.org/2000/svg">
<path fill-rule="evenodd" clip-rule="evenodd" d="M46.7999 28.7988C41.8294 28.7988 37.7999 32.8283 37.7999 37.7988C37.7999 42.7694 41.8294 46.7988 46.7999 46.7988H29.2499C24.0308 46.7988 19.7999 51.0297 19.7999 56.2488C19.7999 61.4679 24.0308 65.6988 29.2499 65.6988H52.1916C47.2248 65.7034 43.1999 69.7311 43.1999 74.6988C43.1999 79.6694 47.2294 83.6988 52.1999 83.6988H39.1499C33.9308 83.6988 29.6999 87.9297 29.6999 93.1488C29.6999 98.3679 33.9308 102.599 39.1499 102.599H125.55C130.769 102.599 135 98.3679 135 93.1488C135 87.9297 130.769 83.6988 125.55 83.6988H144.9C149.87 83.6988 153.9 79.6694 153.9 74.6988C153.9 69.7283 149.87 65.6988 144.9 65.6988H115.659C120.874 65.6942 125.1 61.4651 125.1 56.2488C125.1 51.0297 120.869 46.7988 115.65 46.7988H134.1C139.07 46.7988 143.1 42.7694 143.1 37.7988C143.1 32.8283 139.07 28.7988 134.1 28.7988H46.7999Z" fill="#F6F9F9"/>
<path d="M110.227 104.512L98.2319 101.298L103.536 81.5027L84.2242 76.3281L87.5186 64.0332L118.825 72.4218L110.227 104.512Z" fill="black"/>
<path d="M93.1636 43.1325C98.0875 44.4586 102.306 47.6627 104.957 52.0896C107.608 56.5165 108.49 61.8318 107.424 66.9485L119.442 70.1684C121.383 61.7856 120.071 53.0003 115.783 45.665C111.494 38.3298 104.565 33.0178 96.455 30.8492C88.3489 28.6791 79.6958 29.8182 72.3183 34.0268C64.9407 38.2353 59.4144 45.1847 56.9034 53.4114L68.9092 56.6283C70.5433 51.6643 73.9646 47.5022 78.4731 44.9936C82.9817 42.4849 88.2368 41.8192 93.1636 43.1325Z" fill="#77CAF9"/>
<path d="M82.5697 82.6691C77.651 81.3449 73.4358 78.1462 70.7847 73.726C68.1335 69.3058 67.2464 63.9975 68.3044 58.8849L56.2986 55.668C54.3599 64.048 55.6711 72.8295 59.956 80.163C64.2409 87.4965 71.1651 92.8095 79.2702 94.9832C87.3778 97.1601 96.0351 96.0246 103.416 91.8162C110.798 87.6078 116.327 80.6555 118.837 72.425L106.82 69.2051C105.179 74.1618 101.755 78.3151 97.2488 80.8173C92.7422 83.3195 87.4919 83.9818 82.5697 82.6691Z" fill="black"/>
<path d="M47.0881 76.375L47.0881 49.663C47.0881 48.0824 48.3695 46.801 49.9501 46.801V46.801C51.5308 46.801 52.8121 48.0824 52.8121 49.663L52.8121 76.375L47.0881 76.375Z" fill="white" stroke="#B4CFCC" stroke-width="1.647"/>
<path d="M56.6279 96.4082L56.6279 101.178C56.6279 104.866 53.6381 107.856 49.9499 107.856V107.856C46.2618 107.856 43.2719 104.866 43.2719 101.178L43.2719 96.4082L56.6279 96.4082Z" fill="white" stroke="#B4CFCC" stroke-width="1.647"/>
<path d="M29.916 95.4551L30.9618 73.4926C31.4445 63.3568 39.8028 55.3871 49.95 55.3871V55.3871C60.0972 55.3871 68.4555 63.3568 68.9382 73.4926L69.984 95.4551L29.916 95.4551Z" fill="white" stroke="#B4CFCC" stroke-width="1.647"/>
<rect x="26.1" y="95.4551" width="47.7" height="7.632" rx="3.816" fill="white" stroke="#B4CFCC" stroke-width="1.647"/>
<ellipse cx="73.35" cy="119.699" rx="47.25" ry="4.5" fill="#F6F9F9"/>
<path fill-rule="evenodd" clip-rule="evenodd" d="M58.7188 28.5643C62.4484 25.761 64.7999 21.6633 64.7999 17.0988C64.7999 8.64887 56.7411 1.79883 46.7999 1.79883C36.8588 1.79883 28.7999 8.64887 28.7999 17.0988C28.7999 25.5488 36.8588 32.3988 46.7999 32.3988C48.7007 32.3988 50.5327 32.1484 52.2528 31.6842L57.3601 33.6704C58.0138 33.9246 58.7188 33.4424 58.7188 32.7409V28.5643Z" fill="#DAE5E4"/>
<path fill-rule="evenodd" clip-rule="evenodd" d="M104.867 22.8882C102.396 20.6769 100.841 17.4633 100.841 13.8866C100.841 7.21716 106.248 1.81055 112.917 1.81055C119.587 1.81055 124.993 7.21716 124.993 13.8866C124.993 20.556 119.587 25.9626 112.917 25.9626C111.403 25.9626 109.954 25.6839 108.619 25.1752L106.226 26.1058C105.572 26.36 104.867 25.8778 104.867 25.1763L104.867 22.8882Z" fill="#EEF2F2"/>
<circle cx="40.0499" cy="17.5492" r="1.35" fill="white"/>
<circle cx="46.35" cy="17.5492" r="1.35" fill="white"/>
<circle cx="52.65" cy="17.5492" r="1.35" fill="white"/>
<path d="M44.7708 70.9365C45.4378 70.4911 46.326 71.0039 46.2738 71.8043L46.0759 74.8379C46.0552 75.1557 46.1922 75.4634 46.4422 75.6607L48.8291 77.5435C49.4588 78.0402 49.2456 79.0435 48.4682 79.2411L45.5219 79.9904C45.2132 80.0689 44.963 80.2942 44.8526 80.593L43.7995 83.4448C43.5217 84.1973 42.5017 84.3045 42.0735 83.6263L40.4504 81.0557C40.2804 80.7864 39.9887 80.618 39.6705 80.6054L36.6328 80.4851C35.8313 80.4534 35.4142 79.5164 35.9269 78.8996L37.8701 76.5616C38.0737 76.3167 38.1437 75.9873 38.0573 75.6807L37.233 72.7545C37.0156 71.9825 37.7778 71.2962 38.5228 71.5932L41.3468 72.7188C41.6427 72.8368 41.9776 72.8016 42.2425 72.6247L44.7708 70.9365Z" fill="#EEF2F2"/>
<path d="M125.712 107.956C125.66 107.155 126.548 106.642 127.215 107.088L128.914 108.222C129.179 108.399 129.514 108.434 129.81 108.316L131.707 107.56C132.452 107.263 133.214 107.949 132.997 108.721L132.443 110.688C132.357 110.994 132.427 111.324 132.63 111.568L133.936 113.139C134.449 113.756 134.032 114.693 133.23 114.725L131.189 114.806C130.871 114.818 130.579 114.987 130.409 115.256L129.319 116.983C128.89 117.661 127.87 117.554 127.592 116.802L126.885 114.886C126.775 114.587 126.524 114.361 126.216 114.283L124.236 113.78C123.459 113.582 123.245 112.579 123.875 112.082L125.479 110.817C125.729 110.62 125.866 110.312 125.845 109.994L125.712 107.956Z" fill="#EEF2F2"/>
<path d="M38.25 36.9004C39.15 40.9504 35.19 44.5504 31.95 42.7504C27.9 40.5004 31.95 37.3504 34.65 41.8504C37.35 46.3504 31.5 48.1504 28.8 45.0004" stroke="#B4CFCC" stroke-width="1.64851" stroke-linecap="round"/>
<path d="M134.871 24.3995C132.875 27.7214 125.856 32.4977 117.9 31.2428" stroke="#B4CFCC" stroke-width="1.64851" stroke-linecap="round"/>
<path d="M25.4018 67.4835C23.5195 70.668 17.3521 75.5495 10.7999 74.9822" stroke="#B4CFCC" stroke-width="1.64851" stroke-linecap="round"/>
<path d="M148.571 18.0183C147.496 25.2352 137.755 34.7216 128.676 34.4086" stroke="#B4CFCC" stroke-width="1.64851" stroke-linecap="round"/>
<path d="M28.3269 55.0319C27.7047 59.6953 20.8495 65.6434 14.2602 65.2419" stroke="#B4CFCC" stroke-width="1.64851" stroke-linecap="round"/>
<path d="M133.785 70.4822C132.9 69.971 132.596 68.831 133.115 67.9323L133.828 66.6971C134.411 65.5711 135.119 64.683 135.96 64.0378C136.796 63.3901 137.932 63.0255 139.359 62.9462L139.318 62.9225C140.629 62.7391 141.753 62.5523 142.69 62.3622C143.628 62.1721 144.351 61.9629 144.86 61.7345C145.767 61.3548 146.574 60.622 147.273 59.5264C147.678 58.8878 147.905 58.232 147.974 57.5531C148.038 56.8952 147.991 56.186 147.836 55.4208C147.825 55.3773 147.816 55.3292 147.804 55.2858C147.395 53.802 146.453 52.631 144.974 51.7772C143.554 50.9577 142.063 50.8526 140.502 51.4693C139.298 51.9418 138.112 52.922 136.935 54.412C136.314 55.2027 135.181 55.3532 134.383 54.7637C133.556 54.151 133.383 52.9756 134.008 52.1447C134.634 51.3138 135.298 50.5968 136.006 49.9918C137.122 49.0386 138.283 48.3566 139.482 47.9552C140.682 47.5538 141.897 47.4198 143.128 47.5531C144.357 47.691 145.555 48.0936 146.719 48.7656C149.174 50.1833 150.741 52.065 151.422 54.4062C152.124 56.827 151.828 59.1634 150.532 61.4079C150.05 62.2421 149.491 62.9578 148.859 63.5457C148.225 64.1382 147.561 64.6148 146.87 64.9782C146.136 65.3533 145.188 65.6784 144.032 65.9514C142.877 66.2244 141.517 66.4289 139.956 66.5721C139.23 66.6384 138.684 66.8029 138.324 67.0682C137.967 67.3289 137.575 67.828 137.152 68.5608L136.415 69.8375C135.899 70.7316 134.762 71.0461 133.872 70.5322L133.785 70.4822Z" fill="#DAE5E4"/>
<path d="M130.448 72.7275C130.208 73.1421 130.143 73.6349 130.267 74.0974C130.391 74.5598 130.694 74.9541 131.108 75.1935C131.523 75.4329 132.016 75.4978 132.478 75.3739C132.941 75.25 133.335 74.9474 133.575 74.5328C133.814 74.1181 133.879 73.6254 133.755 73.1629C133.631 72.7004 133.328 72.3061 132.914 72.0667C132.499 71.8273 132.006 71.7624 131.544 71.8864C131.081 72.0103 130.687 72.3128 130.448 72.7275Z" fill="#DAE5E4"/>
<g filter="url(#filter0_d_2100_481)">
<circle cx="10.4026" cy="10.4026" r="10.4026" transform="matrix(-0.893012 -0.450032 -0.450032 0.893012 95.0784 42.0859)" fill="white"/>
</g>
<path d="M80.5129 42.0427L84.1274 48.0253L76.9889 47.742" stroke="black" stroke-width="2.56019" stroke-linecap="round"/>
<g filter="url(#filter1_d_2100_481)">
<circle cx="100.43" cy="52.7308" r="11.5887" transform="rotate(30 100.43 52.7308)" fill="white"/>
</g>
<path d="M105.127 50.4415L97.3456 50.7289L101.97 57.206" stroke="black" stroke-width="2.85209" stroke-linecap="round"/>
<defs>
<filter id="filter0_d_2100_481" x="67.2888" y="34.5823" width="27.6367" height="27.6377" filterUnits="userSpaceOnUse" color-interpolation-filters="sRGB">
<feFlood flood-opacity="0" result="BackgroundImageFix"/>
<feColorMatrix in="SourceAlpha" type="matrix" values="0 0 0 0 0 0 0 0 0 0 0 0 0 0 0 0 0 0 127 0" result="hardAlpha"/>
<feOffset dy="1.70679"/>
<feGaussianBlur stdDeviation="1.70679"/>
<feComposite in2="hardAlpha" operator="out"/>
<feColorMatrix type="matrix" values="0 0 0 0 0 0 0 0 0 0 0 0 0 0 0 0 0 0 0.2 0"/>
<feBlend mode="normal" in2="BackgroundImageFix" result="effect1_dropShadow_2100_481"/>
<feBlend mode="normal" in="SourceGraphic" in2="effect1_dropShadow_2100_481" result="shape"/>
</filter>
<filter id="filter1_d_2100_481" x="85.0371" y="39.2392" width="30.7867" height="30.7872" filterUnits="userSpaceOnUse" color-interpolation-filters="sRGB">
<feFlood flood-opacity="0" result="BackgroundImageFix"/>
<feColorMatrix in="SourceAlpha" type="matrix" values="0 0 0 0 0 0 0 0 0 0 0 0 0 0 0 0 0 0 127 0" result="hardAlpha"/>
<feOffset dy="1.90139"/>
<feGaussianBlur stdDeviation="1.90139"/>
<feComposite in2="hardAlpha" operator="out"/>
<feColorMatrix type="matrix" values="0 0 0 0 0 0 0 0 0 0 0 0 0 0 0 0 0 0 0.2 0"/>
<feBlend mode="normal" in2="BackgroundImageFix" result="effect1_dropShadow_2100_481"/>
<feBlend mode="normal" in="SourceGraphic" in2="effect1_dropShadow_2100_481" result="shape"/>
</filter>
</defs>
</svg>
