<svg width="20" height="20" viewBox="0 0 20 20" fill="none" xmlns="http://www.w3.org/2000/svg">
<path d="M18 18.0059L14.6257 14.6316C15.2351 13.7729 15.4999 12.7167 15.3674 11.6721C15.235 10.6275 14.7151 9.67076 13.9106 8.99136C13.1062 8.31195 12.0759 7.95947 11.0239 8.00371C9.97186 8.04796 8.97482 8.48572 8.23027 9.23027C7.48572 9.97482 7.04796 10.9719 7.00371 12.0239C6.95947 13.0759 7.31195 14.1062 7.99136 14.9106C8.67076 15.7151 9.62751 16.235 10.6721 16.3674C11.7167 16.4999 12.7729 16.2351 13.6316 15.6257L17.0059 19L18 18.0059ZM8.4091 12.1954C8.4091 11.6415 8.57333 11.1001 8.88103 10.6396C9.18873 10.1791 9.62607 9.8202 10.1378 9.60826C10.6494 9.39631 11.2125 9.34086 11.7557 9.44891C12.2989 9.55696 12.7978 9.82366 13.1894 10.2153C13.5811 10.6069 13.8478 11.1059 13.9558 11.6491C14.0639 12.1923 14.0084 12.7553 13.7965 13.267C13.5845 13.7787 13.2256 14.216 12.7651 14.5237C12.3046 14.8314 11.7632 14.9956 11.2094 14.9956C10.4667 14.9956 9.75443 14.7006 9.22928 14.1754C8.70413 13.6503 8.4091 12.938 8.4091 12.1954Z" fill="white"/>
<path d="M10.1538 19H1V1H18V10H16.4414V2.58984H2.59375V17.3594H10.1538V19Z" fill="white"/>
</svg>
