<?xml version="1.0" standalone="no"?><!DOCTYPE svg PUBLIC "-//W3C//DTD SVG 1.1//EN" "http://www.w3.org/Graphics/SVG/1.1/DTD/svg11.dtd"><svg t="1672729940858" class="icon" viewBox="0 0 1024 1024" version="1.1" xmlns="http://www.w3.org/2000/svg" p-id="7135" xmlns:xlink="http://www.w3.org/1999/xlink" width="200" height="200"><path d="M808 390.4c5.44-8 7.68-17.6 5.76-27.2a36.672 36.672 0 0 0-65.92-14.08l-29.44 42.88a248.32 248.32 0 0 1-64.96 64.32c-113.6 77.12-269.44 48-347.2-64.32l-29.44-42.88c-5.44-8-13.76-13.44-23.36-15.04-9.6-1.92-19.2 0.32-27.2 5.76-3.84 2.56-7.36 6.08-9.92 10.24a36.8 36.8 0 0 0-5.44 27.52c0.96 4.8 2.88 8.96 5.76 13.12l29.44 42.88c9.92 14.4 21.12 28.48 33.6 41.28l-51.84 109.76c-1.92 4.48-3.2 8.96-3.52 13.76-0.32 4.8 0.64 9.6 2.24 14.08s4.16 8.64 7.36 12.16a36.608 36.608 0 0 0 59.84-9.28l43.84-93.44c20.48 13.12 42.56 23.68 65.6 31.68l-24.32 90.24c-1.28 4.8-1.6 9.28-0.96 14.08 0.64 4.8 2.24 9.28 4.48 13.44a36.8 36.8 0 0 0 31.36 18.24c16 0 30.72-10.88 35.2-26.88l25.28-92.8c24.96 2.88 49.92 2.88 74.56 0l24.96 92.8c2.56 9.28 8.64 17.28 16.96 22.08 7.68 4.48 16.64 5.76 25.28 4.16l2.56-0.64c4.48-1.28 8.96-3.2 12.8-6.4s7.04-6.72 9.28-10.56c2.56-4.16 3.84-8.64 4.48-13.44 0.64-4.8 0.32-9.6-0.96-14.4l-24.32-90.24c23.04-8 44.8-18.88 65.28-31.68l43.84 93.44c4.16 8.64 11.52 15.36 20.48 18.88 8.96 3.2 18.88 2.88 27.84-1.28 4.48-1.92 8.32-4.8 11.52-8.32 3.2-3.52 5.76-7.68 7.36-12.16 1.6-4.48 2.24-9.28 2.24-14.08-0.32-4.8-1.28-9.6-3.52-13.76l-51.52-109.76c12.48-12.8 24-26.88 34.24-41.6l30.4-42.56z m-581.76-24z" fill="#17224A" p-id="7136"></path></svg>