<svg width="184" height="179" viewBox="0 0 184 179" fill="none" xmlns="http://www.w3.org/2000/svg">
<path opacity="0.4" d="M14.7045 164.875V163.364H23.7102V164.875H20.0795V175H18.3295V164.875H14.7045ZM28.0597 175.176C27.1998 175.176 26.4593 174.992 25.8381 174.625C25.2206 174.254 24.7434 173.733 24.4062 173.062C24.0729 172.388 23.9062 171.598 23.9062 170.693C23.9062 169.799 24.0729 169.011 24.4062 168.33C24.7434 167.648 25.2131 167.116 25.8153 166.733C26.4214 166.35 27.1297 166.159 27.9403 166.159C28.4328 166.159 28.91 166.241 29.3722 166.403C29.8343 166.566 30.2491 166.822 30.6165 167.17C30.9839 167.519 31.2737 167.972 31.4858 168.528C31.6979 169.081 31.804 169.754 31.804 170.545V171.148H24.8665V169.875H30.1392C30.1392 169.428 30.0483 169.032 29.8665 168.688C29.6847 168.339 29.429 168.064 29.0994 167.864C28.7737 167.663 28.3911 167.562 27.9517 167.562C27.4744 167.562 27.0578 167.68 26.7017 167.915C26.3494 168.146 26.0767 168.449 25.8835 168.824C25.6941 169.195 25.5994 169.598 25.5994 170.034V171.028C25.5994 171.612 25.7017 172.108 25.9062 172.517C26.1146 172.926 26.4044 173.239 26.7756 173.455C27.1468 173.667 27.5805 173.773 28.0767 173.773C28.3987 173.773 28.6922 173.727 28.9574 173.636C29.2225 173.542 29.4517 173.402 29.6449 173.216C29.8381 173.03 29.9858 172.801 30.0881 172.528L31.696 172.818C31.5672 173.292 31.3362 173.706 31.0028 174.062C30.6733 174.415 30.2585 174.689 29.7585 174.886C29.2623 175.08 28.696 175.176 28.0597 175.176ZM33.6889 175V166.273H35.3196V167.693H35.4276C35.6094 167.212 35.9067 166.837 36.3196 166.568C36.7325 166.295 37.2268 166.159 37.8026 166.159C38.3859 166.159 38.8745 166.295 39.2685 166.568C39.6662 166.841 39.9598 167.216 40.1491 167.693H40.2401C40.4484 167.227 40.7798 166.856 41.2344 166.58C41.6889 166.299 42.2306 166.159 42.8594 166.159C43.651 166.159 44.2969 166.407 44.7969 166.903C45.3007 167.4 45.5526 168.148 45.5526 169.148V175H43.8537V169.307C43.8537 168.716 43.6927 168.288 43.3707 168.023C43.0488 167.758 42.6643 167.625 42.2173 167.625C41.6643 167.625 41.2344 167.795 40.9276 168.136C40.6207 168.473 40.4673 168.907 40.4673 169.438V175H38.7741V169.199C38.7741 168.725 38.6264 168.345 38.331 168.057C38.0355 167.769 37.651 167.625 37.1776 167.625C36.8556 167.625 36.5582 167.71 36.2855 167.881C36.0166 168.047 35.7988 168.28 35.6321 168.58C35.4692 168.879 35.3878 169.225 35.3878 169.619V175H33.6889ZM47.8295 178.273V166.273H49.4886V167.688H49.6307C49.7292 167.506 49.8712 167.295 50.0568 167.057C50.2424 166.818 50.5 166.61 50.8295 166.432C51.1591 166.25 51.5947 166.159 52.1364 166.159C52.8409 166.159 53.4697 166.337 54.0227 166.693C54.5758 167.049 55.0095 167.562 55.3239 168.233C55.642 168.903 55.8011 169.71 55.8011 170.653C55.8011 171.597 55.6439 172.405 55.3295 173.08C55.0152 173.75 54.5833 174.267 54.0341 174.631C53.4848 174.991 52.858 175.17 52.1534 175.17C51.6231 175.17 51.1894 175.081 50.8523 174.903C50.5189 174.725 50.2576 174.517 50.0682 174.278C49.8788 174.04 49.733 173.828 49.6307 173.642H49.5284V178.273H47.8295ZM49.4943 170.636C49.4943 171.25 49.5833 171.788 49.7614 172.25C49.9394 172.712 50.197 173.074 50.5341 173.335C50.8712 173.593 51.2841 173.722 51.7727 173.722C52.2803 173.722 52.7045 173.587 53.0455 173.318C53.3864 173.045 53.6439 172.676 53.8182 172.21C53.9962 171.744 54.0852 171.22 54.0852 170.636C54.0852 170.061 53.9981 169.544 53.8239 169.085C53.6534 168.627 53.3958 168.265 53.0511 168C52.7102 167.735 52.2841 167.602 51.7727 167.602C51.2803 167.602 50.8636 167.729 50.5227 167.983C50.1856 168.237 49.9299 168.591 49.7557 169.045C49.5814 169.5 49.4943 170.03 49.4943 170.636ZM61.3807 175.176C60.5625 175.176 59.8485 174.989 59.2386 174.614C58.6288 174.239 58.1553 173.714 57.8182 173.04C57.4811 172.366 57.3125 171.578 57.3125 170.676C57.3125 169.771 57.4811 168.979 57.8182 168.301C58.1553 167.623 58.6288 167.097 59.2386 166.722C59.8485 166.347 60.5625 166.159 61.3807 166.159C62.1989 166.159 62.9129 166.347 63.5227 166.722C64.1326 167.097 64.6061 167.623 64.9432 168.301C65.2803 168.979 65.4489 169.771 65.4489 170.676C65.4489 171.578 65.2803 172.366 64.9432 173.04C64.6061 173.714 64.1326 174.239 63.5227 174.614C62.9129 174.989 62.1989 175.176 61.3807 175.176ZM61.3864 173.75C61.9167 173.75 62.3561 173.61 62.7045 173.33C63.053 173.049 63.3106 172.676 63.4773 172.21C63.6477 171.744 63.733 171.231 63.733 170.67C63.733 170.114 63.6477 169.602 63.4773 169.136C63.3106 168.667 63.053 168.29 62.7045 168.006C62.3561 167.722 61.9167 167.58 61.3864 167.58C60.8523 167.58 60.4091 167.722 60.0568 168.006C59.7083 168.29 59.4489 168.667 59.2784 169.136C59.1117 169.602 59.0284 170.114 59.0284 170.67C59.0284 171.231 59.1117 171.744 59.2784 172.21C59.4489 172.676 59.7083 173.049 60.0568 173.33C60.4091 173.61 60.8523 173.75 61.3864 173.75ZM67.3452 175V166.273H68.9872V167.659H69.0781C69.2372 167.189 69.5175 166.82 69.919 166.551C70.3243 166.278 70.7827 166.142 71.294 166.142C71.4001 166.142 71.5251 166.146 71.669 166.153C71.8168 166.161 71.9323 166.17 72.0156 166.182V167.807C71.9474 167.788 71.8262 167.767 71.652 167.744C71.4777 167.718 71.3035 167.705 71.1293 167.705C70.7277 167.705 70.3698 167.79 70.0554 167.96C69.7448 168.127 69.4986 168.36 69.3168 168.659C69.1349 168.955 69.044 169.292 69.044 169.67V175H67.3452ZM75.9474 175.193C75.3944 175.193 74.8944 175.091 74.4474 174.886C74.0005 174.678 73.6463 174.377 73.3849 173.983C73.1274 173.589 72.9986 173.106 72.9986 172.534C72.9986 172.042 73.0933 171.636 73.2827 171.318C73.4721 171 73.7277 170.748 74.0497 170.562C74.3717 170.377 74.7315 170.237 75.1293 170.142C75.527 170.047 75.9323 169.975 76.3452 169.926C76.8679 169.866 77.2921 169.816 77.6179 169.778C77.9437 169.737 78.1804 169.67 78.3281 169.58C78.4759 169.489 78.5497 169.341 78.5497 169.136V169.097C78.5497 168.6 78.4096 168.216 78.1293 167.943C77.8527 167.67 77.4399 167.534 76.8906 167.534C76.3187 167.534 75.8679 167.661 75.5384 167.915C75.2126 168.165 74.9872 168.443 74.8622 168.75L73.2656 168.386C73.455 167.856 73.7315 167.428 74.0952 167.102C74.4626 166.773 74.8849 166.534 75.3622 166.386C75.8395 166.235 76.3414 166.159 76.8679 166.159C77.2164 166.159 77.5857 166.201 77.9759 166.284C78.3698 166.364 78.7372 166.511 79.0781 166.727C79.4228 166.943 79.705 167.252 79.9247 167.653C80.1444 168.051 80.2543 168.568 80.2543 169.205V175H78.5952V173.807H78.527C78.4171 174.027 78.2524 174.242 78.0327 174.455C77.813 174.667 77.5308 174.843 77.1861 174.983C76.8414 175.123 76.4285 175.193 75.9474 175.193ZM76.3168 173.83C76.7865 173.83 77.188 173.737 77.5213 173.551C77.8584 173.366 78.1141 173.123 78.2884 172.824C78.4664 172.521 78.5554 172.197 78.5554 171.852V170.727C78.4948 170.788 78.3774 170.845 78.2031 170.898C78.0327 170.947 77.8376 170.991 77.6179 171.028C77.3982 171.062 77.1842 171.095 76.9759 171.125C76.7675 171.152 76.5933 171.174 76.4531 171.193C76.1236 171.235 75.8224 171.305 75.5497 171.403C75.2808 171.502 75.0649 171.644 74.902 171.83C74.7429 172.011 74.6634 172.254 74.6634 172.557C74.6634 172.977 74.8187 173.295 75.1293 173.511C75.4399 173.723 75.8357 173.83 76.3168 173.83ZM82.517 175V166.273H84.1591V167.659H84.25C84.4091 167.189 84.6894 166.82 85.0909 166.551C85.4962 166.278 85.9545 166.142 86.4659 166.142C86.572 166.142 86.697 166.146 86.8409 166.153C86.9886 166.161 87.1042 166.17 87.1875 166.182V167.807C87.1193 167.788 86.9981 167.767 86.8239 167.744C86.6496 167.718 86.4754 167.705 86.3011 167.705C85.8996 167.705 85.5417 167.79 85.2273 167.96C84.9167 168.127 84.6705 168.36 84.4886 168.659C84.3068 168.955 84.2159 169.292 84.2159 169.67V175H82.517ZM88.6577 175V166.273H90.3565V175H88.6577ZM89.5156 164.926C89.2202 164.926 88.9664 164.828 88.7543 164.631C88.5459 164.43 88.4418 164.191 88.4418 163.915C88.4418 163.634 88.5459 163.396 88.7543 163.199C88.9664 162.998 89.2202 162.898 89.5156 162.898C89.8111 162.898 90.063 162.998 90.2713 163.199C90.4834 163.396 90.5895 163.634 90.5895 163.915C90.5895 164.191 90.4834 164.43 90.2713 164.631C90.063 164.828 89.8111 164.926 89.5156 164.926ZM94.3409 163.364V175H92.642V163.364H94.3409ZM97.7003 178.273C97.4465 178.273 97.2154 178.252 97.0071 178.21C96.7988 178.172 96.6435 178.131 96.5412 178.085L96.9503 176.693C97.2609 176.777 97.5374 176.813 97.7798 176.801C98.0223 176.79 98.2363 176.699 98.4219 176.528C98.6113 176.358 98.7779 176.08 98.9219 175.693L99.1321 175.114L95.9389 166.273H97.7571L99.9673 173.045H100.058L102.268 166.273H104.092L100.496 176.165C100.329 176.619 100.117 177.004 99.8594 177.318C99.6018 177.636 99.295 177.875 98.9389 178.034C98.5829 178.193 98.17 178.273 97.7003 178.273ZM119.452 163.364V175H117.838L111.923 166.466H111.815V175H110.06V163.364H111.685L117.605 171.909H117.713V163.364H119.452ZM125.553 175.176C124.734 175.176 124.02 174.989 123.411 174.614C122.801 174.239 122.327 173.714 121.99 173.04C121.653 172.366 121.484 171.578 121.484 170.676C121.484 169.771 121.653 168.979 121.99 168.301C122.327 167.623 122.801 167.097 123.411 166.722C124.02 166.347 124.734 166.159 125.553 166.159C126.371 166.159 127.085 166.347 127.695 166.722C128.304 167.097 128.778 167.623 129.115 168.301C129.452 168.979 129.621 169.771 129.621 170.676C129.621 171.578 129.452 172.366 129.115 173.04C128.778 173.714 128.304 174.239 127.695 174.614C127.085 174.989 126.371 175.176 125.553 175.176ZM125.558 173.75C126.089 173.75 126.528 173.61 126.876 173.33C127.225 173.049 127.482 172.676 127.649 172.21C127.82 171.744 127.905 171.231 127.905 170.67C127.905 170.114 127.82 169.602 127.649 169.136C127.482 168.667 127.225 168.29 126.876 168.006C126.528 167.722 126.089 167.58 125.558 167.58C125.024 167.58 124.581 167.722 124.229 168.006C123.88 168.29 123.621 168.667 123.45 169.136C123.284 169.602 123.2 170.114 123.2 170.67C123.2 171.231 123.284 171.744 123.45 172.21C123.621 172.676 123.88 173.049 124.229 173.33C124.581 173.61 125.024 173.75 125.558 173.75ZM139.655 175H135.888V163.364H139.774C140.914 163.364 141.893 163.597 142.712 164.062C143.53 164.525 144.157 165.189 144.592 166.057C145.032 166.92 145.251 167.956 145.251 169.165C145.251 170.377 145.03 171.419 144.587 172.29C144.147 173.161 143.511 173.831 142.678 174.301C141.844 174.767 140.837 175 139.655 175ZM137.643 173.466H139.558C140.445 173.466 141.181 173.299 141.768 172.966C142.356 172.629 142.795 172.142 143.087 171.506C143.378 170.866 143.524 170.085 143.524 169.165C143.524 168.252 143.378 167.477 143.087 166.841C142.799 166.205 142.369 165.722 141.797 165.392C141.225 165.062 140.515 164.898 139.666 164.898H137.643V173.466ZM149.838 175.193C149.285 175.193 148.785 175.091 148.338 174.886C147.891 174.678 147.537 174.377 147.276 173.983C147.018 173.589 146.889 173.106 146.889 172.534C146.889 172.042 146.984 171.636 147.173 171.318C147.363 171 147.618 170.748 147.94 170.562C148.262 170.377 148.622 170.237 149.02 170.142C149.418 170.047 149.823 169.975 150.236 169.926C150.759 169.866 151.183 169.816 151.509 169.778C151.834 169.737 152.071 169.67 152.219 169.58C152.366 169.489 152.44 169.341 152.44 169.136V169.097C152.44 168.6 152.3 168.216 152.02 167.943C151.743 167.67 151.33 167.534 150.781 167.534C150.209 167.534 149.759 167.661 149.429 167.915C149.103 168.165 148.878 168.443 148.753 168.75L147.156 168.386C147.346 167.856 147.622 167.428 147.986 167.102C148.353 166.773 148.776 166.534 149.253 166.386C149.73 166.235 150.232 166.159 150.759 166.159C151.107 166.159 151.476 166.201 151.866 166.284C152.26 166.364 152.628 166.511 152.969 166.727C153.313 166.943 153.596 167.252 153.815 167.653C154.035 168.051 154.145 168.568 154.145 169.205V175H152.486V173.807H152.418C152.308 174.027 152.143 174.242 151.923 174.455C151.704 174.667 151.421 174.843 151.077 174.983C150.732 175.123 150.319 175.193 149.838 175.193ZM150.207 173.83C150.677 173.83 151.079 173.737 151.412 173.551C151.749 173.366 152.005 173.123 152.179 172.824C152.357 172.521 152.446 172.197 152.446 171.852V170.727C152.385 170.788 152.268 170.845 152.094 170.898C151.923 170.947 151.728 170.991 151.509 171.028C151.289 171.062 151.075 171.095 150.866 171.125C150.658 171.152 150.484 171.174 150.344 171.193C150.014 171.235 149.713 171.305 149.44 171.403C149.171 171.502 148.955 171.644 148.793 171.83C148.634 172.011 148.554 172.254 148.554 172.557C148.554 172.977 148.709 173.295 149.02 173.511C149.33 173.723 149.726 173.83 150.207 173.83ZM160.482 166.273V167.636H155.714V166.273H160.482ZM156.993 164.182H158.692V172.438C158.692 172.767 158.741 173.015 158.839 173.182C158.938 173.345 159.065 173.456 159.22 173.517C159.379 173.574 159.552 173.602 159.737 173.602C159.874 173.602 159.993 173.593 160.095 173.574C160.197 173.555 160.277 173.54 160.334 173.528L160.641 174.932C160.542 174.97 160.402 175.008 160.22 175.045C160.038 175.087 159.811 175.11 159.538 175.114C159.091 175.121 158.675 175.042 158.288 174.875C157.902 174.708 157.589 174.451 157.351 174.102C157.112 173.754 156.993 173.316 156.993 172.79V164.182ZM164.901 175.193C164.348 175.193 163.848 175.091 163.401 174.886C162.954 174.678 162.599 174.377 162.338 173.983C162.08 173.589 161.952 173.106 161.952 172.534C161.952 172.042 162.046 171.636 162.236 171.318C162.425 171 162.681 170.748 163.003 170.562C163.325 170.377 163.685 170.237 164.082 170.142C164.48 170.047 164.885 169.975 165.298 169.926C165.821 169.866 166.245 169.816 166.571 169.778C166.897 169.737 167.134 169.67 167.281 169.58C167.429 169.489 167.503 169.341 167.503 169.136V169.097C167.503 168.6 167.363 168.216 167.082 167.943C166.806 167.67 166.393 167.534 165.844 167.534C165.272 167.534 164.821 167.661 164.491 167.915C164.166 168.165 163.94 168.443 163.815 168.75L162.219 168.386C162.408 167.856 162.685 167.428 163.048 167.102C163.416 166.773 163.838 166.534 164.315 166.386C164.793 166.235 165.295 166.159 165.821 166.159C166.17 166.159 166.539 166.201 166.929 166.284C167.323 166.364 167.69 166.511 168.031 166.727C168.376 166.943 168.658 167.252 168.878 167.653C169.098 168.051 169.207 168.568 169.207 169.205V175H167.548V173.807H167.48C167.37 174.027 167.205 174.242 166.986 174.455C166.766 174.667 166.484 174.843 166.139 174.983C165.795 175.123 165.382 175.193 164.901 175.193ZM165.27 173.83C165.74 173.83 166.141 173.737 166.474 173.551C166.812 173.366 167.067 173.123 167.241 172.824C167.42 172.521 167.509 172.197 167.509 171.852V170.727C167.448 170.788 167.33 170.845 167.156 170.898C166.986 170.947 166.791 170.991 166.571 171.028C166.351 171.062 166.137 171.095 165.929 171.125C165.721 171.152 165.546 171.174 165.406 171.193C165.077 171.235 164.776 171.305 164.503 171.403C164.234 171.502 164.018 171.644 163.855 171.83C163.696 172.011 163.616 172.254 163.616 172.557C163.616 172.977 163.772 173.295 164.082 173.511C164.393 173.723 164.789 173.83 165.27 173.83Z" fill="#112438"/>
<g clip-path="url(#clip0_1170_17063)">
<path d="M38.8981 41.6424C32.1829 50.0498 34.26 61.7652 36.138 66.572C35.7695 72.7138 33.2806 75.2209 30.869 79.0484C25.9258 86.8939 26.1605 97.1923 30.0235 105.622C37.5364 122.017 57.7271 130.359 111.541 127.788C165.135 125.227 156.052 92.0644 144.812 75.803C138.922 62.631 150.245 45.437 133.897 35.0676C117.548 24.6981 109.931 40.3092 88.5204 33.0662C67.1096 25.8232 47.2922 31.1332 38.8981 41.6424Z" fill="#F6F9F9"/>
<path fill-rule="evenodd" clip-rule="evenodd" d="M161.525 120.764C168.705 120.764 174.525 114.943 174.525 107.764C174.525 100.584 168.705 94.7637 161.525 94.7637C154.346 94.7637 148.525 100.584 148.525 107.764C148.525 114.943 154.346 120.764 161.525 120.764ZM157.979 110.251L157.979 110.25L159.569 103.878C159.58 103.832 159.598 103.762 159.459 103.727L158.074 103.382L158.382 102.163L160.907 102.793L161.423 100.724L162.63 101.014L162.108 103.083L163.066 103.321L163.576 101.261L164.769 101.551L164.252 103.623C164.719 103.764 165.168 103.959 165.59 104.203C166.127 104.543 167.053 105.161 166.849 106.49C166.646 107.819 165.195 108.263 165.195 108.263C165.694 108.546 166.082 108.99 166.297 109.522C166.511 110.054 166.539 110.643 166.376 111.194C165.869 113.251 163.515 113.222 162.894 113.068L161.963 112.833L161.467 114.815L160.228 114.504L160.721 112.525L159.911 112.322L159.418 114.304L158.115 113.979L158.608 111.997L156.168 111.388L156.507 110.024L157.831 110.355C157.946 110.384 157.958 110.335 157.979 110.251ZM163.269 104.679L161.797 104.31L161.159 106.815L162.781 107.221C162.898 107.246 163.018 107.258 163.138 107.259C163.432 107.28 163.724 107.195 163.961 107.019C164.198 106.844 164.364 106.589 164.429 106.301C164.696 105.259 163.521 104.743 163.269 104.679ZM163.164 108.701L160.866 108.121L160.213 110.758L162.433 111.31C162.491 111.323 162.55 111.329 162.61 111.327C163.013 111.327 163.829 111.144 164.035 110.314C164.088 110.151 164.108 109.979 164.093 109.808C164.078 109.637 164.028 109.471 163.947 109.32C163.865 109.169 163.754 109.036 163.619 108.93C163.485 108.823 163.33 108.746 163.164 108.701Z" fill="#DAE5E4"/>
<path fill-rule="evenodd" clip-rule="evenodd" d="M76.7128 11.3564C81.1311 19.0091 78.5091 28.7945 70.8564 33.2128C63.2037 37.6311 53.4183 35.0091 49 27.3564C44.5817 19.7037 47.2037 9.91828 54.8564 5.5C62.5091 1.08172 72.2945 3.70372 76.7128 11.3564ZM57.3035 20.4069L57.5222 10.1199L66.5851 15.1511L64.6333 22.4365L57.3035 20.4069ZM67.2955 27.0534L68.1844 28.593L67.4729 16.6858L65.5177 23.9742L67.2955 27.0534ZM67.2936 27.0545L68.1825 28.5941L58.2263 22.0243L65.5158 23.9753L67.2936 27.0545Z" fill="#DAE5E4"/>
<path fill-rule="evenodd" clip-rule="evenodd" d="M150.054 32.5478C151.412 37.6157 148.404 42.8249 143.336 44.1829C138.268 45.5408 133.059 42.5333 131.701 37.4654C130.343 32.3974 133.351 27.1882 138.418 25.8303C143.486 24.4723 148.696 27.4799 150.054 32.5478ZM142.986 38.8026C144.072 38.4095 144.79 37.3732 144.551 36.4812L144.455 36.1244C144.264 35.4107 143.393 34.8791 142.423 34.884L139.755 34.8976C139.437 34.9191 139.147 34.7419 139.083 34.504L138.988 34.1471C138.892 33.7903 139.13 33.4714 139.583 33.35L141.094 32.9452C141.547 32.8238 141.913 32.9808 142.009 33.3376L143.519 32.9329C143.27 32.0024 142.243 31.4962 141.08 31.6896L140.803 30.6548L138.764 31.2012L139.039 32.2297C137.892 32.6288 137.222 33.6015 137.477 34.5519L137.573 34.9087C137.764 35.6224 138.635 36.154 139.605 36.1491L142.273 36.1355C142.591 36.114 142.881 36.2912 142.945 36.5291L143.04 36.886C143.136 37.2428 142.898 37.5617 142.444 37.6831L140.934 38.0878C140.481 38.2093 140.115 38.0523 140.019 37.6954L138.509 38.1002C138.758 39.03 139.784 39.5362 140.945 39.3439L141.222 40.3775L143.261 39.8311L142.986 38.8026Z" fill="#EEF2F2"/>
<path d="M136.587 124.434L121.469 120.383L128.154 95.4315L103.812 88.9092L107.965 73.4121L147.425 83.9855L136.587 124.434Z" fill="black"/>
<path d="M115.079 47.0681C121.286 48.7395 126.603 52.7781 129.944 58.358C133.285 63.9379 134.398 70.6375 133.054 77.0868L148.201 81.1454C150.648 70.5792 148.995 59.5058 143.59 50.2601C138.184 41.0144 129.45 34.3189 119.228 31.5855C109.011 28.8502 98.1038 30.2861 88.8048 35.5907C79.5057 40.8953 72.5402 49.6547 69.3751 60.024L84.5078 64.0788C86.5676 57.8219 90.8799 52.5758 96.5627 49.4138C102.245 46.2517 108.869 45.4126 115.079 47.0681Z" fill="#33E423"/>
<path d="M101.727 96.9027C95.5269 95.2336 90.2139 91.2017 86.8722 85.6303C83.5306 80.0589 82.4124 73.3681 83.746 66.9239L68.6133 62.8691C66.1697 73.4317 67.8224 84.5004 73.2232 93.7438C78.6241 102.987 87.3517 109.684 97.5678 112.424C107.787 115.168 118.699 113.737 128.003 108.432C137.307 103.128 144.275 94.3646 147.439 83.9905L132.293 79.9319C130.224 86.1796 125.909 91.4147 120.229 94.5686C114.549 97.7225 107.931 98.5573 101.727 96.9027Z" fill="black"/>
<g filter="url(#filter0_d_1170_17063)">
<circle cx="137.885" cy="59.9622" r="12.6248" transform="rotate(-15 137.885 59.9622)" fill="white"/>
</g>
<circle cx="6.88625" cy="6.88625" r="6.88625" transform="matrix(-0.965926 0.258819 0.258819 0.965926 137.209 53.0156)" fill="black"/>
<circle cx="128.127" cy="59.6057" r="2.27853" transform="rotate(-28.5523 128.127 59.6057)" fill="white"/>
<circle cx="132.763" cy="60.9738" r="1.13927" transform="rotate(-28.5523 132.763 60.9738)" fill="white"/>
<g filter="url(#filter1_d_1170_17063)">
<circle cx="117.465" cy="44.4622" r="12.6248" transform="rotate(-15 117.465 44.4622)" fill="white"/>
</g>
<circle cx="6.88625" cy="6.88625" r="6.88625" transform="matrix(-0.965926 0.258819 0.258819 0.965926 116.789 37.5156)" fill="black"/>
<circle cx="107.707" cy="44.1057" r="2.27853" transform="rotate(-28.5523 107.707 44.1057)" fill="white"/>
<circle cx="112.343" cy="45.4738" r="1.13927" transform="rotate(-28.5523 112.343 45.4738)" fill="white"/>
<path d="M112.838 119.151L78.3126 130.513C77.6658 130.726 77 130.244 77 129.563V90.541L112.838 92.8298V119.151Z" fill="white" stroke="#B4CFCC" stroke-width="1.83"/>
<path d="M42.2168 119.041V95.041L77.0006 90.541V129.716C77.0006 130.404 76.3223 130.887 75.6725 130.661L42.2168 119.041Z" fill="white" stroke="#B4CFCC" stroke-width="1.83"/>
<path d="M77 89.6087L41.8614 84.2168L38 93.46L71.9802 104.244L77 89.6087Z" fill="white" stroke="#B4CFCC" stroke-width="1.83"/>
<path d="M77.1479 80L112.838 84.2943L77.1479 90.5405L42.2168 84.6847L77.1479 80Z" fill="white" stroke="#B4CFCC" stroke-width="1.83"/>
<path d="M77.5 80L77 91" stroke="#B4CFCC" stroke-width="1.83"/>
<path d="M81.6337 104.244L77 90.5411L113.297 84.2168L116 94.034L81.6337 104.244Z" fill="white" stroke="#B4CFCC" stroke-width="1.83"/>
<path d="M27.9991 41C29.5232 48.4142 33.7913 61.6609 46.7975 61.2655C56.9585 61.2655 52.0486 49.1399 43.2407 55.8284C33.2991 63.3778 43.8991 76.9223 52.7324 75.7445" stroke="#B4CFCC" stroke-width="1.83" stroke-dasharray="4.54 4.54"/>
<path d="M76.2207 82.2003C65.6207 91.0336 58.7503 82.7892 55.6096 78.0781C63.854 74.5449 67.9762 76.3115 70.3318 78.667C72.2163 80.5515 75.0429 81.8078 76.2207 82.2003Z" fill="#B4CFCC"/>
<mask id="mask0_1170_17063" style="mask-type:alpha" maskUnits="userSpaceOnUse" x="55" y="76" width="22" height="11">
<path opacity="0.67" d="M76.2207 82.2003C65.6207 91.0336 58.7503 82.7892 55.6096 78.0781C63.854 74.5448 67.9762 76.3114 70.3318 78.6669C72.2163 80.5514 75.0429 81.8077 76.2207 82.2003Z" fill="#B4CFCC"/>
</mask>
<g mask="url(#mask0_1170_17063)">
<path d="M55.6086 78.0781C65.0308 85.7337 72.0975 83.967 76.2197 82.2004L76.8086 84.5559L72.6864 87.5004L62.0864 86.3226L54.4308 78.0781L55.6086 78.0781Z" fill="#EEF2F2"/>
</g>
<path d="M31.4666 21.6827C31.535 21.4747 31.8293 21.4747 31.8977 21.6827L32.7693 24.3331C32.7919 24.4016 32.8455 24.4552 32.914 24.4778L35.5644 25.3494C35.7724 25.4178 35.7724 25.7121 35.5644 25.7805L32.914 26.6522C32.8455 26.6747 32.7919 26.7284 32.7693 26.7968L31.8977 29.4472C31.8293 29.6552 31.535 29.6552 31.4666 29.4472L30.5949 26.7968C30.5724 26.7284 30.5187 26.6747 30.4503 26.6522L27.7999 25.7805C27.5919 25.7121 27.5919 25.4178 27.7999 25.3494L30.4503 24.4778C30.5187 24.4552 30.5724 24.4016 30.5949 24.3331L31.4666 21.6827Z" fill="#EEF2F2"/>
<path d="M19.5565 69.3292C19.6249 69.1212 19.9192 69.1212 19.9876 69.3292L21.5611 74.1137C21.5837 74.1822 21.6373 74.2359 21.7058 74.2584L26.4904 75.8319C26.6984 75.9003 26.6984 76.1946 26.4904 76.263L21.7058 77.8365C21.6373 77.859 21.5837 77.9127 21.5611 77.9812L19.9876 82.7657C19.9192 82.9737 19.6249 82.9737 19.5565 82.7657L17.983 77.9812C17.9605 77.9127 17.9068 77.859 17.8383 77.8365L13.0538 76.263C12.8458 76.1946 12.8458 75.9003 13.0538 75.8319L17.8383 74.2584C17.9068 74.2359 17.9605 74.1822 17.983 74.1137L19.5565 69.3292Z" fill="#EEF2F2"/>
<path d="M158.52 71.5967C158.588 71.3887 158.882 71.3887 158.951 71.5967L159.542 73.3935C159.564 73.462 159.618 73.5157 159.686 73.5382L161.483 74.1291C161.691 74.1975 161.691 74.4917 161.483 74.5601L159.686 75.1511C159.618 75.1736 159.564 75.2273 159.542 75.2957L158.951 77.0925C158.882 77.3005 158.588 77.3005 158.52 77.0925L157.929 75.2957C157.906 75.2273 157.853 75.1736 157.784 75.1511L155.987 74.5601C155.779 74.4917 155.779 74.1975 155.987 74.1291L157.784 73.5382C157.853 73.5157 157.906 73.462 157.929 73.3935L158.52 71.5967Z" fill="#EEF2F2"/>
</g>
<defs>
<filter id="filter0_d_1170_17063" x="122.186" y="45.7987" width="31.3971" height="31.3971" filterUnits="userSpaceOnUse" color-interpolation-filters="sRGB">
<feFlood flood-opacity="0" result="BackgroundImageFix"/>
<feColorMatrix in="SourceAlpha" type="matrix" values="0 0 0 0 0 0 0 0 0 0 0 0 0 0 0 0 0 0 127 0" result="hardAlpha"/>
<feOffset dy="1.53532"/>
<feGaussianBlur stdDeviation="1.53532"/>
<feComposite in2="hardAlpha" operator="out"/>
<feColorMatrix type="matrix" values="0 0 0 0 0 0 0 0 0 0 0 0 0 0 0 0 0 0 0.12 0"/>
<feBlend mode="normal" in2="BackgroundImageFix" result="effect1_dropShadow_1170_17063"/>
<feBlend mode="normal" in="SourceGraphic" in2="effect1_dropShadow_1170_17063" result="shape"/>
</filter>
<filter id="filter1_d_1170_17063" x="101.766" y="30.2987" width="31.3971" height="31.3971" filterUnits="userSpaceOnUse" color-interpolation-filters="sRGB">
<feFlood flood-opacity="0" result="BackgroundImageFix"/>
<feColorMatrix in="SourceAlpha" type="matrix" values="0 0 0 0 0 0 0 0 0 0 0 0 0 0 0 0 0 0 127 0" result="hardAlpha"/>
<feOffset dy="1.53532"/>
<feGaussianBlur stdDeviation="1.53532"/>
<feComposite in2="hardAlpha" operator="out"/>
<feColorMatrix type="matrix" values="0 0 0 0 0 0 0 0 0 0 0 0 0 0 0 0 0 0 0.12 0"/>
<feBlend mode="normal" in2="BackgroundImageFix" result="effect1_dropShadow_1170_17063"/>
<feBlend mode="normal" in="SourceGraphic" in2="effect1_dropShadow_1170_17063" result="shape"/>
</filter>
<clipPath id="clip0_1170_17063">
<rect width="184" height="140" fill="white"/>
</clipPath>
</defs>
</svg>
