<svg width="48" height="48" viewBox="0 0 48 48" fill="none" xmlns="http://www.w3.org/2000/svg">
<circle cx="24" cy="24" r="23.5" stroke="#112438" stroke-opacity="0.08"/>
<g opacity="0.6">
<path fill-rule="evenodd" clip-rule="evenodd" d="M22.55 15.5049H16.736H14V18.2409V29.0991V31.8351H16.736H20.84V29.0991H16.736V18.2409H22.55V15.5049ZM27.68 18.2409H31.7841V29.0991H25.97V31.8351H31.7841H34.52V29.0991V18.2409V15.5049H31.7841H27.68V18.2409Z" fill="#112438"/>
<path d="M18.6987 13.9346L20.6334 12L25.47 16.8365L23.5354 18.7711L18.6987 13.9346Z" fill="#112438"/>
<path d="M29.2678 33.3989L27.3332 35.3335L22.4966 30.497L24.4312 28.5624L29.2678 33.3989Z" fill="#112438"/>
<path d="M20.6261 21.6602L18.6914 19.7255L23.5281 14.889L25.4627 16.8236L20.6261 21.6602Z" fill="#112438"/>
<path d="M27.3336 25.6675L29.2682 27.6021L24.4316 32.4386L22.497 30.504L27.3336 25.6675Z" fill="#112438"/>
</g>
</svg>
