<svg width="46" height="46" viewBox="0 0 46 46" fill="none" xmlns="http://www.w3.org/2000/svg">
<circle cx="23" cy="23" r="22.5" stroke="#112438" stroke-opacity="0.08"/>
<g opacity="0.6">
<path d="M23.1176 13.934L25.0518 11.9998L31.0963 18.0443L29.1621 19.9785L23.1176 13.934Z" fill="#112438"/>
<path d="M25.0554 24.0874L23.1212 22.1532L29.1657 16.1086L31.0999 18.0429L25.0554 24.0874Z" fill="#112438"/>
<path d="M14 19.4131L14 16.6776L27.6771 16.6776L27.6771 19.4131L14 19.4131Z" fill="#112438"/>
<path d="M21.9823 34.001L20.048 35.9353L14.0035 29.8908L15.9378 27.9565L21.9823 34.001Z" fill="#112438"/>
<path d="M20.0444 23.8486L21.9787 25.7829L15.9342 31.8274L13.9999 29.8932L20.0444 23.8486Z" fill="#112438"/>
<path d="M31.0999 28.5225L31.0999 31.2579L17.4227 31.2579L17.4227 28.5225L31.0999 28.5225Z" fill="#112438"/>
</g>
</svg>
