<svg width="351" height="568" viewBox="0 0 351 568" fill="none" xmlns="http://www.w3.org/2000/svg">
<rect width="351" height="568" rx="8" fill="white"/>
<rect x="12" y="519" width="327" height="1" rx="0.5" fill="#112438" fill-opacity="0.08"/>
<rect x="12" y="528" width="87" height="32" rx="4" fill="#112438" fill-opacity="0.08"/>
<rect x="113" y="528" width="79" height="32" rx="4" fill="#112438" fill-opacity="0.08"/>
<rect x="206" y="528" width="79" height="32" rx="4" fill="#112438" fill-opacity="0.08"/>
<rect x="299" y="528" width="40" height="32" rx="4" fill="#112438" fill-opacity="0.08"/>
<rect x="158" y="56" width="87" height="17" rx="4" fill="#112438" fill-opacity="0.08"/>
<rect x="66" y="56" width="84" height="17" rx="4" fill="#112438" fill-opacity="0.08"/>
<rect x="66" y="79" width="174" height="17" rx="4" fill="#112438" fill-opacity="0.08"/>
<rect x="12" y="112" width="176" height="20" rx="4" fill="#112438" fill-opacity="0.08"/>
<rect x="12" y="148" width="327" height="20" rx="4" fill="#112438" fill-opacity="0.08"/>
<rect x="12" y="176" width="327" height="20" rx="4" fill="#112438" fill-opacity="0.08"/>
<rect x="12" y="204" width="327" height="20" rx="4" fill="#112438" fill-opacity="0.08"/>
<rect x="12" y="232" width="176" height="20" rx="4" fill="#112438" fill-opacity="0.08"/>
<rect x="12" y="262" width="71" height="20" rx="4" fill="#112438" fill-opacity="0.08"/>
<rect x="12" y="294" width="327" height="213" rx="4" fill="#112438" fill-opacity="0.08"/>
<rect width="327" height="1" rx="0.5" transform="matrix(1 0 0 -1 12 42)" fill="#112438" fill-opacity="0.08"/>
<circle cx="35" cy="77" r="23" fill="#112438" fill-opacity="0.08" stroke="white"/>
<rect x="311" y="6" width="28" height="28" rx="6" fill="#112438" fill-opacity="0.08"/>
<rect x="16" y="12" width="70" height="17" rx="4" fill="#112438" fill-opacity="0.08"/>
<rect x="275" y="6" width="28" height="28" rx="6" fill="#112438" fill-opacity="0.08"/>
<path d="M330.775 20.9277V20.9336C330.797 20.9336 330.818 20.9395 330.84 20.9453L330.775 20.9277Z" fill="#112438"/>
</svg>
