<svg width="351" height="214" viewBox="0 0 351 214" fill="none" xmlns="http://www.w3.org/2000/svg">
<rect width="351" height="214" rx="6" transform="matrix(-1 -8.74228e-08 -8.74228e-08 1 351 3.05176e-05)" fill="white"/>
<rect x="260.001" y="16" width="79" height="30" rx="4" fill="#112438" fill-opacity="0.08"/>
<rect x="12" y="140" width="58" height="58" rx="4" fill="#112438" fill-opacity="0.08"/>
<rect x="146" y="140" width="59" height="58" rx="4" fill="#112438" fill-opacity="0.08"/>
<rect x="214" y="140" width="59" height="58" rx="4" fill="#112438" fill-opacity="0.08"/>
<rect x="281" y="140" width="58" height="58" rx="4" fill="#112438" fill-opacity="0.08"/>
<rect x="78" y="140" width="59" height="58" rx="4" fill="#112438" fill-opacity="0.08"/>
<circle cx="74.002" cy="52" r="8" fill="#112438" fill-opacity="0.08"/>
<circle cx="135.002" cy="52" r="8" fill="#112438" fill-opacity="0.08"/>
<rect x="66" y="18" width="84" height="17" rx="4" fill="#112438" fill-opacity="0.08"/>
<rect x="88" y="44" width="17" height="16" rx="4" fill="#112438" fill-opacity="0.08"/>
<rect x="149" y="44" width="53" height="16" rx="4" fill="#112438" fill-opacity="0.08"/>
<rect x="12" y="75" width="327" height="16" rx="4" fill="#112438" fill-opacity="0.08"/>
<rect x="12" y="104" width="327" height="16" rx="4" fill="#112438" fill-opacity="0.08"/>
<rect x="158" y="18" width="86" height="17" rx="4" fill="#112438" fill-opacity="0.08"/>
<circle cx="35" cy="39" r="23" fill="#112438" fill-opacity="0.08" stroke="white"/>
</svg>
