<svg width="24" height="24" viewBox="0 0 24 24" fill="none" xmlns="http://www.w3.org/2000/svg">
<path d="M6.036 9.49158C6.03071 9.40977 6.04258 9.32775 6.07083 9.25101C6.09908 9.17426 6.14305 9.10457 6.19981 9.0466C6.25656 8.98862 6.32479 8.9437 6.39991 8.91484C6.47504 8.88599 6.55534 8.87386 6.63543 8.87927L14.8115 8.87927L14.8115 7.17398C14.8151 7.11219 14.8353 7.0526 14.8699 7.00177C14.9045 6.95093 14.9521 6.91081 15.0075 6.88582C15.063 6.86083 15.1241 6.85192 15.1841 6.86009C15.2442 6.86826 15.3009 6.89318 15.348 6.93212L17.9165 9.55281C17.9585 9.59993 17.9861 9.65852 17.996 9.72141C18.0058 9.7843 17.9975 9.84877 17.9721 9.90692C17.9466 9.96507 17.9052 10.0144 17.8527 10.0488C17.8003 10.0833 17.7391 10.1013 17.6768 10.1008L6.63243 10.1008C6.55234 10.1062 6.47205 10.0941 6.39692 10.0653C6.32179 10.0364 6.25357 9.99148 6.19681 9.93351C6.14006 9.87553 6.09608 9.80584 6.06783 9.7291C6.03958 9.65235 6.02771 9.57033 6.03301 9.48852L6.036 9.49158ZM8.66147 17.0628L6.09595 14.0747C6.04974 14.0242 6.01858 13.9612 6.0061 13.8932C5.99363 13.8252 6.00036 13.755 6.02551 13.6908C6.05066 13.6266 6.09318 13.571 6.14812 13.5306C6.20305 13.4901 6.26812 13.4665 6.33572 13.4624L17.38 13.4624C17.4638 13.462 17.5467 13.4796 17.6234 13.5139C17.7001 13.5483 17.7689 13.5987 17.8254 13.6618C17.8819 13.725 17.9247 13.7995 17.9513 13.8807C17.9778 13.9618 17.9874 14.0477 17.9795 14.1329C17.9852 14.2176 17.974 14.3026 17.9466 14.3827C17.9192 14.4628 17.8762 14.5365 17.8202 14.5992C17.7642 14.6618 17.6963 14.7122 17.6206 14.7474C17.545 14.7825 17.4631 14.8015 17.38 14.8034L9.20095 14.8034L9.20095 16.7567C9.21079 16.8244 9.20017 16.8936 9.17051 16.9551C9.14085 17.0165 9.09356 17.0672 9.03494 17.1005C8.97633 17.1337 8.90918 17.148 8.84245 17.1412C8.77572 17.1345 8.71258 17.1072 8.66147 17.0628Z" fill="#34D026"/>
<rect x="0.5" y="0.5" width="23" height="23" rx="3.5" stroke="#34D026"/>
</svg>
