<svg width="24" height="24" viewBox="0 0 24 24" fill="none" xmlns="http://www.w3.org/2000/svg">
<rect width="24" height="24" rx="6" fill="#101316"/>
<path d="M12 3.5L7.57692 5.95556L9.17949 7.02593L12 5.51481L14.7564 7.02593L16.4231 5.95556L12 3.5Z" fill="#FAAD00"/>
<path d="M7.89744 7.71852L6.29487 6.77407L4.5 7.71852V9.54444L6.29487 10.6148V8.66296L7.89744 7.71852Z" fill="#FAAD00"/>
<path d="M4.5 16.1556V11.1185L6.29487 12V15.2111L9.17949 16.8481V18.8L4.5 16.1556Z" fill="#FAAD00"/>
<path d="M7.44872 14.7074V12.6296L9.17949 13.5111V15.5889L7.44872 14.7074Z" fill="#FAAD00"/>
<path d="M10.3333 19.4926V17.5407L12.0641 18.4852L13.7949 17.5407V19.4926L12.0641 20.5L10.3333 19.4926Z" fill="#FAAD00"/>
<path d="M9.04948 8.34812L7.38281 9.35553V11.3074L10.2674 12.9444V16.2185L11.9341 17.2259L13.729 16.2185V12.9444L16.6777 11.3074V9.35553L14.8828 8.34812L11.9341 9.98516L9.04948 8.34812Z" fill="#FAAD00"/>
<path d="M11.9341 6.77405L10.2033 7.71849L11.9341 8.78886L13.729 7.71849L11.9341 6.77405Z" fill="#FAAD00"/>
<path d="M17.8315 6.77405L16.1008 7.71849L17.8315 8.66294V10.6148L19.4341 9.60738V7.71849L17.8315 6.77405Z" fill="#FAAD00"/>
<path d="M17.8315 15.274V12L19.4982 11.1185V16.2815L14.8828 18.8629V16.9111L17.8315 15.274Z" fill="#FAAD00"/>
<path d="M16.6777 14.4555L14.8828 15.5259V13.7L16.6777 12.6926V14.4555Z" fill="#FAAD00"/>
</svg>
