<svg width="24" height="24" viewBox="0 0 24 24" fill="none" xmlns="http://www.w3.org/2000/svg">
<circle cx="12" cy="12" r="12" fill="#112438" fill-opacity="0.08"/>
<path opacity="0.6" d="M12.6575 12.2583L12.6571 12.2594C12.5174 12.3172 12.3883 12.3895 12.2665 12.4694V8.70217C12.4342 8.76153 12.6118 8.80009 12.7998 8.80009L12.8009 8.79961C13.9843 8.79961 15.0155 8.15529 15.5691 7.19961C15.0155 6.24441 13.9843 5.59961 12.8009 5.59961L12.7998 5.59993C11.9164 5.59993 11.1998 6.31657 11.1998 7.19993V8.73689C11.1143 8.68633 11.0299 8.63369 10.9358 8.59465C9.46282 7.98473 7.84778 8.25497 6.6665 9.15865C6.86282 10.6326 7.81338 11.9658 9.28618 12.5764C9.9353 12.8452 10.6372 12.7665 11.1998 12.4362V18.3998H12.2665V16.4119C12.8971 16.825 13.7143 16.9302 14.4633 16.6198L14.4643 16.6188C16.0763 15.9505 17.118 14.4906 17.3331 12.8759C16.0393 11.8865 14.2705 11.5902 12.6575 12.2583ZM12.7998 6.66665H12.8478C13.3494 6.67911 13.8307 6.86773 14.2071 7.19945C13.8186 7.54184 13.3188 7.73136 12.8009 7.73273H12.7759C12.6388 7.72644 12.5094 7.66757 12.4145 7.56835C12.3197 7.46914 12.2666 7.3372 12.2665 7.19993C12.2668 7.05859 12.3231 6.92312 12.423 6.82317C12.523 6.72322 12.6584 6.66695 12.7998 6.66665ZM11.1164 11.0022C11.0619 11.1344 10.9819 11.2545 10.8809 11.3557C10.7799 11.457 10.6599 11.5372 10.5278 11.592C10.3957 11.6467 10.2541 11.6748 10.1111 11.6747C9.96808 11.6746 9.82652 11.6462 9.6945 11.5913C8.8361 11.2356 8.17882 10.5246 7.87674 9.66009C8.3185 9.44639 8.80266 9.33478 9.29338 9.33353C9.71642 9.33353 10.1319 9.41689 10.5273 9.58041C10.6595 9.63482 10.7797 9.7149 10.8808 9.81602C10.9819 9.91713 11.062 10.0373 11.1164 10.1695C11.1716 10.3014 11.2001 10.4429 11.2001 10.5858C11.2001 10.7288 11.1716 10.8703 11.1164 11.0022ZM14.0561 15.6334L14.0191 15.649C13.8729 15.7047 13.7178 15.7332 13.5614 15.7334C13.3053 15.7339 13.0548 15.6582 12.8419 15.5159C12.6289 15.3737 12.4631 15.1713 12.3655 14.9345C12.0926 14.2756 12.4067 13.5178 13.0651 13.2447L13.1379 13.2146C13.5579 13.0502 14.005 12.9657 14.4561 12.9657C15.0369 12.9657 15.6143 13.1079 16.1316 13.3735C15.8055 14.3849 15.0502 15.2214 14.0561 15.6334Z" fill="#112438"/>
</svg>
