<svg width="92" height="70" viewBox="0 0 92 70" fill="none" xmlns="http://www.w3.org/2000/svg">
<g clip-path="url(#clip0_1170_10591)">
<path d="M19.4491 20.8202C16.0914 25.0239 17.13 30.8816 18.069 33.285C17.8847 36.3559 16.6403 37.6095 15.4345 39.5232C12.9629 43.446 13.0802 48.5952 15.0118 52.8101C18.7682 61.0075 28.8635 65.1784 55.7705 63.893C82.5675 62.6127 78.0262 46.0312 72.4059 37.9005C69.4612 31.3145 75.1226 22.7175 66.9484 17.5328C58.7741 12.3481 54.9656 20.1536 44.2602 16.5321C33.5548 12.9106 23.6461 15.5656 19.4491 20.8202Z" fill="#F6F9F9"/>
<path fill-rule="evenodd" clip-rule="evenodd" d="M80.7627 60.3809C84.3525 60.3809 87.2627 57.4707 87.2627 53.8809C87.2627 50.291 84.3525 47.3809 80.7627 47.3809C77.1728 47.3809 74.2627 50.291 74.2627 53.8809C74.2627 57.4707 77.1728 60.3809 80.7627 60.3809ZM78.9893 55.1249L78.9893 55.1246L79.7844 51.9384C79.7902 51.9152 79.7989 51.8804 79.7293 51.863L79.0372 51.6903L79.191 51.081L80.4533 51.3958L80.7116 50.3613L81.3151 50.5064L81.054 51.5409L81.5328 51.6599L81.7881 50.6297L82.3844 50.7748L82.1262 51.8108C82.3595 51.8816 82.5839 51.979 82.795 52.1009C83.0634 52.2707 83.5263 52.5797 83.4247 53.2443C83.3232 53.9088 82.5977 54.1307 82.5977 54.1307C82.8471 54.2725 83.0411 54.4945 83.1483 54.7605C83.2555 55.0266 83.2696 55.3211 83.1882 55.5961C82.9343 56.6248 81.7576 56.6103 81.4472 56.5334L80.9814 56.4159L80.7333 57.4069L80.1138 57.2516L80.3604 56.2621L79.9556 56.1605L79.709 57.1515L79.0575 56.989L79.3042 55.998L78.084 55.6934L78.2537 55.0114L78.9153 55.1768C78.9732 55.1913 78.9792 55.1668 78.9893 55.1249ZM81.6343 52.3389L80.8987 52.1546L80.5795 53.4068L81.3906 53.6099C81.4492 53.6223 81.5091 53.6286 81.569 53.6287C81.7161 53.6393 81.8621 53.5968 81.9806 53.509C82.099 53.4212 82.1821 53.2938 82.2147 53.1499C82.3482 52.6291 81.7605 52.3708 81.6343 52.3389ZM81.5821 54.3498L80.433 54.0597L80.1065 55.3785L81.2165 55.6542C81.2455 55.6609 81.2752 55.6638 81.305 55.6629C81.5066 55.6629 81.9143 55.5715 82.0174 55.1565C82.0442 55.075 82.0541 54.9889 82.0465 54.9035C82.0389 54.818 82.014 54.735 81.9733 54.6595C81.9326 54.584 81.8769 54.5176 81.8096 54.4644C81.7423 54.4111 81.6649 54.3722 81.5821 54.3498Z" fill="#DAE5E4"/>
<path fill-rule="evenodd" clip-rule="evenodd" d="M38.3564 5.6782C40.5655 9.50454 39.2545 14.3973 35.4282 16.6064C31.6019 18.8155 26.7091 17.5045 24.5 13.6782C22.2909 9.85186 23.6019 4.95914 27.4282 2.75C31.2545 0.540861 36.1473 1.85186 38.3564 5.6782ZM28.6515 10.2036L28.7609 5.06009L33.2924 7.57572L32.3165 11.2184L28.6515 10.2036ZM33.6477 13.5256L34.0922 14.2954L33.7364 8.34173L32.7588 11.986L33.6477 13.5256ZM33.6469 13.5269L34.0914 14.2967L29.1133 11.0118L32.758 11.9873L33.6469 13.5269Z" fill="#DAE5E4"/>
<path fill-rule="evenodd" clip-rule="evenodd" d="M75.0268 16.2739C75.7058 18.8079 74.202 21.4125 71.668 22.0914C69.1341 22.7704 66.5295 21.2666 65.8505 18.7327C65.1715 16.1987 66.6753 13.5941 69.2092 12.9151C71.7432 12.2362 74.3478 13.7399 75.0268 16.2739ZM71.4929 19.4013C72.0359 19.2047 72.3949 18.6866 72.2754 18.2406L72.2276 18.0622C72.132 17.7053 71.6965 17.4395 71.2114 17.442L69.8776 17.4488C69.7186 17.4595 69.5735 17.3709 69.5416 17.252L69.4938 17.0736C69.446 16.8951 69.5651 16.7357 69.7917 16.675L70.547 16.4726C70.7735 16.4119 70.9565 16.4904 71.0043 16.6688L71.7595 16.4665C71.6349 16.0012 71.1214 15.7481 70.54 15.8448L70.4013 15.3274L69.3818 15.6006L69.5196 16.1149C68.9458 16.3144 68.6112 16.8007 68.7385 17.2759L68.7863 17.4544C68.8819 17.8112 69.3174 18.077 69.8025 18.0745L71.1363 18.0677C71.2953 18.057 71.4404 18.1456 71.4723 18.2646L71.5201 18.443C71.5679 18.6214 71.4488 18.7808 71.2222 18.8415L70.4669 19.0439C70.2404 19.1046 70.0574 19.0261 70.0096 18.8477L69.2544 19.0501C69.379 19.515 69.8918 19.7681 70.4727 19.672L70.6111 20.1888L71.6307 19.9156L71.4929 19.4013Z" fill="#EEF2F2"/>
<path d="M68.2935 62.2178L60.7343 60.1923L64.0771 47.7167L51.9062 44.4556L53.9824 36.707L73.7126 41.9937L68.2935 62.2178Z" fill="black"/>
<path d="M57.5397 23.534C60.6428 24.3697 63.3015 26.389 64.9721 29.179C66.6427 31.9689 67.199 35.3188 66.5272 38.5434L74.1006 40.5727C75.3241 35.2896 74.4974 29.7529 71.7948 25.1301C69.0922 20.5072 64.725 17.1595 59.6139 15.7928C54.5053 14.4251 49.0519 15.143 44.4024 17.7954C39.7529 20.4477 36.2701 24.8274 34.6875 30.012L42.2539 32.0394C43.2838 28.9109 45.4399 26.2879 48.2813 24.7069C51.1227 23.1259 54.4346 22.7063 57.5397 23.534Z" fill="#33E423"/>
<path d="M50.8633 48.4504C47.7635 47.6158 45.1069 45.5999 43.4361 42.8142C41.7653 40.0285 41.2062 36.6831 41.873 33.461L34.3066 31.4336C33.0848 36.7149 33.9112 42.2492 36.6116 46.8709C39.3121 51.4927 43.6758 54.8411 48.7839 56.211C53.8935 57.5829 59.3495 56.8673 64.0015 54.2151C68.6534 51.5629 72.1377 47.1813 73.7197 41.9943L66.1463 39.965C65.1121 43.0888 62.9547 45.7064 60.1145 47.2833C57.2743 48.8603 53.9654 49.2777 50.8633 48.4504Z" fill="black"/>
<g filter="url(#filter0_d_1170_10591)">
<circle cx="68.942" cy="29.9811" r="6.3124" transform="rotate(-15 68.942 29.9811)" fill="white"/>
</g>
<circle cx="3.44312" cy="3.44312" r="3.44312" transform="matrix(-0.965926 0.258819 0.258819 0.965926 68.6045 26.5078)" fill="black"/>
<circle cx="64.0628" cy="29.8019" r="1.13927" transform="rotate(-28.5523 64.0628 29.8019)" fill="white"/>
<circle cx="66.381" cy="30.4859" r="0.569633" transform="rotate(-28.5523 66.381 30.4859)" fill="white"/>
<g filter="url(#filter1_d_1170_10591)">
<circle cx="58.7321" cy="22.2311" r="6.3124" transform="rotate(-15 58.7321 22.2311)" fill="white"/>
</g>
<circle cx="3.44312" cy="3.44312" r="3.44312" transform="matrix(-0.965926 0.258819 0.258819 0.965926 58.3945 18.7578)" fill="black"/>
<circle cx="53.8529" cy="22.0519" r="1.13927" transform="rotate(-28.5523 53.8529 22.0519)" fill="white"/>
<circle cx="56.1711" cy="22.7359" r="0.569633" transform="rotate(-28.5523 56.1711 22.7359)" fill="white"/>
<path d="M56.4189 59.5746L39.1563 65.2555C38.8329 65.362 38.5 65.1211 38.5 64.7806V45.2695L56.4189 46.4139V59.5746Z" fill="white" stroke="#B4CFCC" stroke-width="0.915"/>
<path d="M21.1084 59.5195V47.5195L38.5003 45.2695V64.8571C38.5003 65.201 38.1611 65.4423 37.8362 65.3294L21.1084 59.5195Z" fill="white" stroke="#B4CFCC" stroke-width="0.915"/>
<path d="M38.5 44.8053L20.9307 42.1094L19 46.731L35.9901 52.1229L38.5 44.8053Z" fill="white" stroke="#B4CFCC" stroke-width="0.915"/>
<path d="M38.574 40L56.4192 42.1471L38.574 45.2703L21.1084 42.3423L38.574 40Z" fill="white" stroke="#B4CFCC" stroke-width="0.915"/>
<path d="M38.75 40L38.5 45.5" stroke="#B4CFCC" stroke-width="0.915"/>
<path d="M40.8168 52.1229L38.5 45.2715L56.6485 42.1094L58 47.018L40.8168 52.1229Z" fill="white" stroke="#B4CFCC" stroke-width="0.915"/>
<path d="M13.9995 20.5C14.7616 24.2071 16.8956 30.8305 23.3987 30.6327C28.4793 30.6327 26.0243 24.5699 21.6203 27.9142C16.6495 31.6889 21.9495 38.4611 26.3662 37.8722" stroke="#B4CFCC" stroke-width="0.915" stroke-dasharray="2.27 2.27"/>
<path d="M38.1104 41.1012C32.8103 45.5178 29.3752 41.3956 27.8048 39.04C31.927 37.2734 33.9881 38.1567 35.1659 39.3345C36.1081 40.2767 37.5215 40.9049 38.1104 41.1012Z" fill="#B4CFCC"/>
<mask id="mask0_1170_10591" style="mask-type:alpha" maskUnits="userSpaceOnUse" x="27" y="38" width="12" height="6">
<path opacity="0.67" d="M38.1104 41.1011C32.8103 45.5178 29.3752 41.3956 27.8048 39.04C31.927 37.2734 33.9881 38.1567 35.1659 39.3345C36.1081 40.2767 37.5215 40.9048 38.1104 41.1011Z" fill="#B4CFCC"/>
</mask>
<g mask="url(#mask0_1170_10591)">
<path d="M27.8043 39.041C32.5154 42.8688 36.0487 41.9855 38.1099 41.1021L38.4043 42.2799L36.3432 43.7521L31.0432 43.1632L27.2154 39.041L27.8043 39.041Z" fill="#EEF2F2"/>
</g>
<path d="M15.7333 10.8413C15.7675 10.7373 15.9146 10.7373 15.9488 10.8413L16.3847 12.1666C16.3959 12.2008 16.4228 12.2276 16.457 12.2389L17.7822 12.6747C17.8862 12.7089 17.8862 12.856 17.7822 12.8902L16.457 13.3261C16.4228 13.3373 16.3959 13.3642 16.3847 13.3984L15.9488 14.7236C15.9146 14.8276 15.7675 14.8276 15.7333 14.7236L15.2975 13.3984C15.2862 13.3642 15.2594 13.3373 15.2251 13.3261L13.8999 12.8902C13.7959 12.856 13.7959 12.7089 13.8999 12.6747L15.2251 12.2389C15.2594 12.2276 15.2862 12.2008 15.2975 12.1666L15.7333 10.8413Z" fill="#EEF2F2"/>
<path d="M9.77827 34.6636C9.81247 34.5596 9.95959 34.5596 9.99379 34.6636L10.7806 37.0559C10.7918 37.0901 10.8187 37.117 10.8529 37.1282L13.2452 37.915C13.3492 37.9492 13.3492 38.0963 13.2452 38.1305L10.8529 38.9173C10.8187 38.9285 10.7918 38.9554 10.7806 38.9896L9.99379 41.3819C9.95959 41.4859 9.81247 41.4859 9.77827 41.3819L8.99149 38.9896C8.98023 38.9554 8.95339 38.9285 8.91917 38.9173L6.52688 38.1305C6.42288 38.0963 6.42288 37.9492 6.52688 37.915L8.91917 37.1282C8.95339 37.117 8.98023 37.0901 8.99149 37.0559L9.77827 34.6636Z" fill="#EEF2F2"/>
<path d="M79.2599 35.7984C79.2941 35.6944 79.4412 35.6944 79.4754 35.7984L79.7708 36.6968C79.7821 36.731 79.8089 36.7578 79.8432 36.7691L80.7416 37.0645C80.8456 37.0987 80.8456 37.2459 80.7416 37.2801L79.8432 37.5755C79.8089 37.5868 79.7821 37.6136 79.7708 37.6479L79.4754 38.5463C79.4412 38.6502 79.2941 38.6502 79.2599 38.5463L78.9644 37.6479C78.9531 37.6136 78.9263 37.5868 78.8921 37.5755L77.9937 37.2801C77.8897 37.2459 77.8897 37.0987 77.9937 37.0645L78.8921 36.7691C78.9263 36.7578 78.9531 36.731 78.9644 36.6968L79.2599 35.7984Z" fill="#EEF2F2"/>
</g>
<defs>
<filter id="filter0_d_1170_10591" x="61.0926" y="22.9003" width="15.6986" height="15.6976" filterUnits="userSpaceOnUse" color-interpolation-filters="sRGB">
<feFlood flood-opacity="0" result="BackgroundImageFix"/>
<feColorMatrix in="SourceAlpha" type="matrix" values="0 0 0 0 0 0 0 0 0 0 0 0 0 0 0 0 0 0 127 0" result="hardAlpha"/>
<feOffset dy="0.76766"/>
<feGaussianBlur stdDeviation="0.76766"/>
<feComposite in2="hardAlpha" operator="out"/>
<feColorMatrix type="matrix" values="0 0 0 0 0 0 0 0 0 0 0 0 0 0 0 0 0 0 0.12 0"/>
<feBlend mode="normal" in2="BackgroundImageFix" result="effect1_dropShadow_1170_10591"/>
<feBlend mode="normal" in="SourceGraphic" in2="effect1_dropShadow_1170_10591" result="shape"/>
</filter>
<filter id="filter1_d_1170_10591" x="50.8826" y="15.1503" width="15.6986" height="15.6976" filterUnits="userSpaceOnUse" color-interpolation-filters="sRGB">
<feFlood flood-opacity="0" result="BackgroundImageFix"/>
<feColorMatrix in="SourceAlpha" type="matrix" values="0 0 0 0 0 0 0 0 0 0 0 0 0 0 0 0 0 0 127 0" result="hardAlpha"/>
<feOffset dy="0.76766"/>
<feGaussianBlur stdDeviation="0.76766"/>
<feComposite in2="hardAlpha" operator="out"/>
<feColorMatrix type="matrix" values="0 0 0 0 0 0 0 0 0 0 0 0 0 0 0 0 0 0 0.12 0"/>
<feBlend mode="normal" in2="BackgroundImageFix" result="effect1_dropShadow_1170_10591"/>
<feBlend mode="normal" in="SourceGraphic" in2="effect1_dropShadow_1170_10591" result="shape"/>
</filter>
<clipPath id="clip0_1170_10591">
<rect width="92" height="70" fill="white"/>
</clipPath>
</defs>
</svg>
