<svg width="24" height="24" viewBox="0 0 24 24" fill="none" xmlns="http://www.w3.org/2000/svg">
<circle cx="12" cy="12" r="12" fill="#112438" fill-opacity="0.08"/>
<g opacity="0.6">
<path d="M8 15.8984L16 15.8984V17.4984L8 17.4984V15.8984Z" fill="#112438"/>
<path d="M16 17.5L16 12.5L17.6 12.5L17.6 17.5L16 17.5Z" fill="#112438"/>
<path d="M6.40039 17.499L6.4004 12.499L8.00039 12.499L8.00038 17.499L6.40039 17.499Z" fill="#112438"/>
<path d="M14.5811 9.65626L15.7124 10.7876L12.0001 14.4999L10.8688 13.3686L14.5811 9.65626Z" fill="#112438"/>
<path d="M8.28806 10.789L9.41943 9.65766L13.1317 13.37L12.0004 14.5013L8.28806 10.789Z" fill="#112438"/>
<path d="M11.2247 6.5H12.8247L12.8246 13.5H11.2246L11.2247 6.5Z" fill="#112438"/>
</g>
</svg>
