<svg width="16" height="16" viewBox="0 0 16 16" fill="none" xmlns="http://www.w3.org/2000/svg">
<path d="M11.363 4.04002L11.3632 4.03931C11.381 3.9606 11.4047 3.85174 11.434 3.71407C11.5748 3.79732 11.666 3.85894 11.7219 3.90347C13.1506 5.04244 14 6.76322 14 8.62987C14 12.2076 11.2734 15 8 15C4.72863 15 2 12.2093 2 8.67017C2 7.33429 2.38804 6.08809 3.07796 5.10712L3.0881 5.09398L3.15374 5.01649L3.15497 5.01504C3.90095 4.13089 4.44356 3.26382 4.66738 2.34843L4.66746 2.3481C4.72421 2.11569 4.77923 1.64133 4.83299 1.03076C5.13599 1.04511 5.32699 1.06378 5.43825 1.08357L5.4393 1.08375C7.32479 1.41698 8.7974 2.89309 9.16236 4.75405L9.77929 7.89988L11.0604 4.96121C11.1896 4.66461 11.2909 4.35611 11.363 4.04002Z" stroke="#FF7B3A" stroke-width="2"/>
</svg>
