<svg width="16" height="16" viewBox="0 0 16 16" fill="none" xmlns="http://www.w3.org/2000/svg">
<g clip-path="url(#clip0_411_807)">
<path d="M2.12623 12.6973L2.21503 12.3716L2.04372 12.0808C1.83614 11.7284 1.70911 11.507 1.65076 11.3982L1.65065 11.3979C1.09059 10.3534 0.798316 9.18632 0.800008 8.00114V8C0.800008 4.02364 4.02364 0.8 8 0.8C11.9764 0.8 15.2 4.02364 15.2 8C15.2 11.9764 11.9764 15.2 8 15.2L7.99882 15.2C6.69702 15.2019 5.41929 14.8491 4.30291 14.1795L4.29909 14.1772C4.17213 14.1021 4.04487 14.0274 3.9173 13.9533L3.62783 13.7851L3.30485 13.8732L1.68508 14.315L2.12623 12.6973Z" stroke="#34D026" stroke-width="1.6"/>
<path d="M8.18011 11.9777L8.15427 12.15H8.32845H9.04274H9.17191L9.19108 12.0223L9.50473 9.93125H10.457H10.5867L10.6054 9.80296L10.7197 9.02171L10.7448 8.85H10.5713H9.66691L9.92191 7.15H10.8856H11.0152L11.034 7.02171L11.1483 6.24046L11.1734 6.06875H10.9999H10.0841L10.3911 4.02225L10.4169 3.85H10.2427H9.52845H9.39927L9.38011 3.97775L9.06646 6.06875H7.51267L7.81965 4.02225L7.84548 3.85H7.67131H6.95702H6.82784L6.80868 3.97775L6.49503 6.06875H5.54274H5.41308L5.39431 6.19704L5.28003 6.97829L5.25491 7.15H5.42845H6.33284L6.07784 8.85H5.11416H4.98451L4.96574 8.97829L4.85146 9.75954L4.82634 9.93125H4.99988H5.91566L5.60868 11.9777L5.58284 12.15H5.75702H6.47131H6.60048L6.61965 12.0223L6.9333 9.93125H8.48708L8.18011 11.9777ZM7.35048 7.15H8.90427L8.64927 8.85H7.09548L7.35048 7.15Z" fill="#34D026" stroke="#34D026" stroke-width="0.3"/>
</g>
<defs>
<clipPath id="clip0_411_807">
<rect width="16" height="16" fill="white"/>
</clipPath>
</defs>
</svg>
