<?xml version="1.0" encoding="utf-8"?>
<!-- Generator: Adobe Illustrator 26.3.1, SVG Export Plug-In . SVG Version: 6.00 Build 0)  -->
<svg version="1.1" id="图层_1" xmlns="http://www.w3.org/2000/svg" xmlns:xlink="http://www.w3.org/1999/xlink" x="0px" y="0px"
	 viewBox="0 0 28 18" style="enable-background:new 0 0 28 18;" xml:space="preserve">
<style type="text/css">
	.st0{fill:#34D026;}
	.st1{fill-rule:evenodd;clip-rule:evenodd;fill:#34D026;stroke:#34D026;}
</style>
<g>
	<path class="st0" d="M18.8,7.8c-0.2-0.4-0.6-0.7-0.9-0.9c-0.4-0.2-0.7-0.3-1.1-0.4c-0.4-0.1-0.7-0.1-1-0.1c-0.4,0-0.9,0.1-1.4,0.2
		c-0.5,0.1-0.9,0.3-1.3,0.6c-0.4,0.3-0.7,0.7-1,1.2l-0.1,0.2l1.6,0.5L13.8,9c0.1-0.3,0.4-0.5,0.7-0.8c0.3-0.2,0.8-0.4,1.4-0.4
		c0.6,0,1,0.1,1.2,0.4c0.3,0.3,0.4,0.6,0.4,1.1v0c0,0.2-0.1,0.2-0.1,0.2c-0.1,0-0.3,0.1-0.6,0.2c-0.3,0-0.8,0.1-1.3,0.1
		C15,10,14.6,10,14.2,10.1c-0.4,0.1-0.8,0.2-1.1,0.4c-0.4,0.2-0.6,0.4-0.9,0.8c-0.2,0.3-0.3,0.7-0.3,1.2c0,0.6,0.1,1.1,0.4,1.5
		c0.3,0.4,0.7,0.7,1.1,0.9l0,0c0.5,0.2,1,0.3,1.5,0.3c0.5,0,1-0.1,1.3-0.2c0.4-0.1,0.7-0.3,0.9-0.6c0.1-0.1,0.1-0.1,0.2-0.2V15h1.7
		V9.5C19.2,8.8,19.1,8.2,18.8,7.8z M17.5,11.1v0.8c0,0.3-0.1,0.6-0.3,0.9c-0.2,0.3-0.4,0.5-0.7,0.7l0,0c-0.3,0.2-0.7,0.3-1.2,0.3
		c-0.5,0-0.9-0.1-1.2-0.3c-0.3-0.2-0.4-0.4-0.4-0.8c0-0.3,0.1-0.5,0.2-0.6c0.2-0.2,0.4-0.3,0.6-0.4c0.3-0.1,0.6-0.2,0.9-0.2
		c0.1,0,0.3,0,0.6-0.1c0.2,0,0.5-0.1,0.7-0.1c0.3,0,0.5-0.1,0.7-0.1C17.4,11.1,17.4,11.1,17.5,11.1z"/>
	<path class="st0" d="M6.8,3.8H5.1L0.7,15h1.9L3.8,12h4.4L9.3,15h1.9L6.9,3.9L6.8,3.8z M7.5,10.4H4.3l1.6-4.2L7.5,10.4z"/>
</g>
<path class="st1" d="M23,11l4,3V8L23,11z"/>
</svg>
