<?xml version="1.0" encoding="utf-8"?>
<!-- Generator: Adobe Illustrator 24.0.0, SVG Export Plug-In . SVG Version: 6.00 Build 0)  -->
<svg version="1.1" xmlns="http://www.w3.org/2000/svg" xmlns:xlink="http://www.w3.org/1999/xlink" x="0px" y="0px"
	 viewBox="0 0 20 18" style="enable-background:new 0 0 20 18;" xml:space="preserve">
<g>
	<path d="M6.9,3.9l0-0.1H6.7H5.2H5.1l0,0.1L0.8,14.7L0.7,15H1h1.5h0.1l0-0.1l1.1-2.9h4.4l1.1,2.9l0,0.1h0.1h1.5h0.3
		l-0.1-0.3L6.9,3.9z M7.5,10.4H4.3l1.6-4.2L7.5,10.4z"/>
	<path d="M18.8,7.8c-0.2-0.4-0.6-0.7-0.9-0.9c-0.4-0.2-0.7-0.3-1.1-0.4c-0.4-0.1-0.7-0.1-1-0.1c-0.4,0-0.9,0.1-1.4,0.2
		c-0.5,0.1-0.9,0.3-1.3,0.6c-0.4,0.3-0.7,0.7-1,1.2l-0.1,0.2l0.2,0.1l1.3,0.4l0.2,0.1L13.8,9c0.1-0.3,0.4-0.5,0.7-0.8
		c0.3-0.2,0.8-0.4,1.4-0.4c0.6,0,1,0.1,1.2,0.4c0.3,0.3,0.4,0.6,0.4,1.1c0,0.2-0.1,0.3-0.1,0.3c-0.1,0-0.3,0.1-0.6,0.2
		c-0.3,0-0.8,0.1-1.3,0.1c-0.4,0-0.8,0.1-1.2,0.2c-0.4,0.1-0.8,0.2-1.1,0.4c-0.4,0.2-0.6,0.4-0.9,0.8c-0.2,0.3-0.3,0.7-0.3,1.2
		c0,0.6,0.1,1.1,0.4,1.5c0.3,0.4,0.7,0.7,1.1,0.9c0.5,0.2,1,0.3,1.6,0.3c0.5,0,1-0.1,1.4-0.2c0.4-0.1,0.7-0.3,0.9-0.6
		c0.1-0.1,0.1-0.1,0.2-0.2v0.6V15h0.2H19h0.2v-0.2V9.5C19.2,8.8,19.1,8.2,18.8,7.8z M17.5,11.1v0.8c0,0.3-0.1,0.6-0.3,0.9
		c-0.2,0.3-0.4,0.5-0.7,0.7c-0.3,0.2-0.7,0.3-1.2,0.3c-0.5,0-0.9-0.1-1.2-0.3c-0.3-0.2-0.4-0.4-0.4-0.8c0-0.3,0.1-0.5,0.2-0.6
		c0.2-0.2,0.4-0.3,0.6-0.4c0.3-0.1,0.6-0.2,0.9-0.2c0.1,0,0.3,0,0.6-0.1c0.2,0,0.5-0.1,0.7-0.1c0.3,0,0.5-0.1,0.7-0.1
		C17.4,11.1,17.4,11.1,17.5,11.1z"/>
</g>
</svg>
