<svg viewBox="0 0 18 18" fill="none" xmlns="http://www.w3.org/2000/svg">
<path d="M7.434 7.11337C7.434 7.93462 6.768 8.60175 5.94562 8.60175C5.1255 8.60175 4.45725 7.93575 4.45725 7.11337C4.45725 6.28987 5.1255 5.625 5.94562 5.625C6.768 5.625 7.434 6.28987 7.434 7.11337ZM14.4236 13.5C14.4236 13.5 13.8094 8.676 11.9689 8.676C10.1272 8.676 9.513 11.0475 8.28788 11.0475C7.05825 11.0475 7.05825 10.4546 5.83087 10.4546C4.6035 10.4546 3.375 13.5 3.375 13.5H14.4236ZM15.5 2.5H2.5V15.5H15.5V2.5ZM15.75 1.125C16.3721 1.125 16.875 1.629 16.875 2.25V15.75C16.875 16.3721 16.3721 16.875 15.75 16.875H2.25C1.629 16.875 1.125 16.3721 1.125 15.75V2.25C1.125 1.629 1.629 1.125 2.25 1.125H15.75Z" fill="#112438"/>
</svg>
