<svg viewBox="0 0 18 18" fill="none" xmlns="http://www.w3.org/2000/svg">
<g>
<circle id="1 Ellipse 24 46" cx="9" cy="9" r="7.25" stroke="currentColor" stroke-width="1.5"/>
<path id="1 Vector 45" d="M4.5 6.85525C4.5 7.18153 4.62962 7.49445 4.86033 7.72517C5.09105 7.95588 5.40397 8.0855 5.73025 8.0855C6.05653 8.0855 6.36945 7.95588 6.60017 7.72517C6.83088 7.49445 6.9605 7.18153 6.9605 6.85525C6.9605 6.52897 6.83088 6.21605 6.60017 5.98533C6.36945 5.75462 6.05653 5.625 5.73025 5.625C5.40397 5.625 5.09105 5.75462 4.86033 5.98533C4.62962 6.21605 4.5 6.52897 4.5 6.85525Z" fill="currentColor"/>
<path id="1 Vector 44" d="M11.2847 6.85525C11.2847 7.01681 11.3165 7.17678 11.3783 7.32605C11.4401 7.47531 11.5308 7.61093 11.645 7.72517C11.7592 7.83941 11.8949 7.93003 12.0441 7.99185C12.1934 8.05368 12.3534 8.0855 12.5149 8.0855C12.6765 8.0855 12.8365 8.05368 12.9857 7.99185C13.135 7.93003 13.2706 7.83941 13.3848 7.72517C13.4991 7.61093 13.5897 7.47531 13.6515 7.32605C13.7133 7.17678 13.7452 7.01681 13.7452 6.85525C13.7452 6.69369 13.7133 6.53371 13.6515 6.38445C13.5897 6.23519 13.4991 6.09957 13.3848 5.98533C13.2706 5.87109 13.135 5.78047 12.9857 5.71865C12.8365 5.65682 12.6765 5.625 12.5149 5.625C12.3534 5.625 12.1934 5.65682 12.0441 5.71865C11.8949 5.78047 11.7592 5.87109 11.645 5.98533C11.5308 6.09957 11.4401 6.23519 11.3783 6.38445C11.3165 6.53371 11.2847 6.69369 11.2847 6.85525Z" fill="currentColor"/>
<path id="1 Vector 43" d="M10.8688 11.0382C10.8688 12.0412 10.0519 12.8703 9.04883 12.8509C8.07961 12.8316 7.30134 12.0412 7.30134 11.0672L7.29409 10.9367C7.28201 10.7361 7.44395 10.5645 7.64456 10.5645H10.5159C10.7093 10.5645 10.8688 10.7216 10.8688 10.9173V11.0382Z" fill="currentColor"/>
</g>
</svg>
