<svg width="20" height="20" viewBox="0 0 20 20" fill="none" xmlns="http://www.w3.org/2000/svg">
<path d="M14.875 18.75H18.75V14.875C19.5 13.5 20 11.75 20 10C20 4.5 15.5 0 10 0C4.5 0 0 4.5 0 10C0 15.5 4.5 20 10 20C11.75 20 13.375 19.5 14.875 18.75Z" fill="#112438"/>
<path d="M9.60177 11.9647H10.9558L12.0907 13.4198L12.3894 13.8078L14.0819 16H12.7279L11.6128 14.545L11.3341 14.1764L9.60177 11.9647ZM14.5 10.1023C14.5 11.1499 14.3059 12.0553 13.9176 12.8183C13.5293 13.5814 12.9967 14.1699 12.3197 14.5838C11.6427 14.9976 10.8695 15.2046 10 15.2046C9.13053 15.2046 8.3573 14.9976 7.68031 14.5838C7.00332 14.1699 6.47069 13.5814 6.08241 12.8183C5.69414 12.0553 5.5 11.1499 5.5 10.1023C5.5 9.05467 5.69414 8.14932 6.08241 7.38624C6.47069 6.62316 7.00332 6.03469 7.68031 5.62081C8.3573 5.20694 9.13053 5 10 5C10.8695 5 11.6427 5.20694 12.3197 5.62081C12.9967 6.03469 13.5293 6.62316 13.9176 7.38624C14.3059 8.14932 14.5 9.05467 14.5 10.1023ZM13.3053 10.1023C13.3053 9.24221 13.1576 8.51631 12.8623 7.9246C12.5702 7.33289 12.1737 6.88507 11.6726 6.58113C11.1748 6.27719 10.6173 6.12522 10 6.12522C9.38274 6.12522 8.82356 6.27719 8.32246 6.58113C7.82467 6.88507 7.4281 7.33289 7.13274 7.9246C6.84071 8.51631 6.69469 9.24221 6.69469 10.1023C6.69469 10.9624 6.84071 11.6883 7.13274 12.28C7.4281 12.8717 7.82467 13.3195 8.32246 13.6235C8.82356 13.9274 9.38274 14.0794 10 14.0794C10.6173 14.0794 11.1748 13.9274 11.6726 13.6235C12.1737 13.3195 12.5702 12.8717 12.8623 12.28C13.1576 11.6883 13.3053 10.9624 13.3053 10.1023Z" fill="white"/>
</svg>
