<?xml version="1.0" encoding="utf-8"?>
<!-- Generator: Adobe Illustrator 24.0.0, SVG Export Plug-In . SVG Version: 6.00 Build 0)  -->
<svg version="1.1" id="图层_1" xmlns="http://www.w3.org/2000/svg" xmlns:xlink="http://www.w3.org/1999/xlink" x="0px" y="0px"
	 viewBox="0 0 18 18" style="enable-background:new 0 0 18 18;" xml:space="preserve">
<style type="text/css">
	.st0{fill-rule:evenodd;clip-rule:evenodd;fill:currentColor;}
</style>
<g>
	<path class="st0" d="M9,1C4.6,1,1,4.6,1,9c0,1.3,0.3,2.6,0.9,3.8c0.1,0.1,0.2,0.3,0.4,0.7l-0.8,3l3-0.8l0.4,0.2
		C6.1,16.6,7.5,17,9,17c0,0,0,0,0,0c4.4,0,8-3.6,8-8S13.4,1,9,1z M9,15.4C9,15.4,9,15.4,9,15.4c-1.1,0-2.3-0.3-3.2-0.9l-1-0.6
		l-0.9,0.2l0.2-0.9l-0.3-0.6c-0.2-0.3-0.3-0.5-0.4-0.7c-0.5-0.9-0.8-2-0.8-3c0-3.5,2.9-6.4,6.4-6.4s6.4,2.9,6.4,6.4
		S12.5,15.4,9,15.4z"/>
	<path class="st0" d="M11.6,5.1h-1.3l-0.3,2H8.7l0.3-2H7.7l-0.3,2H6.3L6.1,8.5h1.1L7,9.7H5.9L5.6,11h1.1l-0.3,2h1.3l0.3-2h1.2L9,13
		h1.3l0.3-2h1.1l0.2-1.3h-1.1L11,8.5h1.1l0.2-1.3h-1.1L11.6,5.1z M9.5,10H8.2l0.3-1.8h1.3L9.5,10z"/>
</g>
</svg>
