<svg width="18" height="18" viewBox="0 0 18 18" fill="none" xmlns="http://www.w3.org/2000/svg">
<path d="M3.12623 13.6973L3.21503 13.3716L3.04372 13.0808C2.83614 12.7284 2.70911 12.507 2.65076 12.3982L2.65065 12.3979C2.09059 11.3534 1.79832 10.1863 1.80001 9.00114V9C1.80001 5.02364 5.02364 1.8 9 1.8C12.9764 1.8 16.2 5.02364 16.2 9C16.2 12.9764 12.9764 16.2 9 16.2L8.99882 16.2C7.69702 16.2019 6.41929 15.8491 5.30291 15.1795L5.29909 15.1772C5.17213 15.1021 5.04487 15.0274 4.9173 14.9533L4.62783 14.7851L4.30485 14.8732L2.68508 15.315L3.12623 13.6973Z" stroke="#112438" stroke-width="1.6"/>
<path d="M9.18055 12.7031L9.15196 12.8774H9.32857H10.0429H10.1703L10.1909 12.7517L10.5031 10.8488H11.4571H11.5851L11.6053 10.7225L11.7195 10.0082L11.7473 9.83451H11.5714H10.6695L10.9203 8.30594H11.8857H12.0136L12.0338 8.17964L12.1481 7.46536L12.1759 7.29166H12H11.0867L11.3909 5.43737L11.4195 5.26309H11.2429H10.5286H10.4012L10.3806 5.3888L10.0684 7.29166H8.51523L8.81945 5.43737L8.84804 5.26309H8.67143H7.95714H7.82975L7.80912 5.3888L7.49693 7.29166H6.54286H6.41495L6.39474 7.41796L6.28046 8.13224L6.25266 8.30594H6.42857H7.33053L7.07975 9.83451H6.11429H5.98638L5.96617 9.96082L5.85188 10.6751L5.82409 10.8488H6H6.91334L6.60912 12.7031L6.58053 12.8774H6.75714H7.47143H7.59882L7.61945 12.7517L7.93164 10.8488H9.48477L9.18055 12.7031ZM8.34882 8.30594H9.90196L9.65118 9.83451H8.09804L8.34882 8.30594Z" fill="#112438" stroke="#112438" stroke-width="0.3"/>
</svg>
