<svg width="24" height="24" viewBox="0 0 24 24" fill="none" xmlns="http://www.w3.org/2000/svg">
<circle opacity="0.04" cx="12" cy="12" r="12" fill="#112438"/>
<g opacity="0.6">
<path d="M16.2 9.07092C16.2 9.79351 15.9455 10.6085 15.5072 11.4611C15.0726 12.3067 14.4839 13.1378 13.88 13.8783C13.2781 14.6164 12.6739 15.2489 12.2194 15.6972C12.1415 15.7741 12.0681 15.8455 12 15.9108C11.9319 15.8455 11.8585 15.7741 11.7806 15.6972C11.3261 15.2489 10.7219 14.6164 10.12 13.8783C9.5161 13.1378 8.92742 12.3067 8.49275 11.4611C8.05453 10.6085 7.8 9.79351 7.8 9.07092C7.8 6.7015 9.69099 4.8 12 4.8C14.309 4.8 16.2 6.7015 16.2 9.07092Z" stroke="#112438" stroke-width="1.6"/>
<path d="M13.5785 8.56C13.5785 9.42156 12.8801 10.12 12.0185 10.12C11.1569 10.12 10.4585 9.42156 10.4585 8.56C10.4585 7.69844 11.1569 7 12.0185 7C12.8801 7 13.5785 7.69844 13.5785 8.56Z" fill="#112438"/>
<path d="M7.40002 18.4004H16.6V20.0004H7.40002V18.4004Z" fill="#112438"/>
</g>
</svg>
