<svg width="110" height="110" viewBox="0 0 110 110" fill="none" xmlns="http://www.w3.org/2000/svg">
<circle cx="55" cy="55" r="53.5" fill="#E8EDF2" stroke="white" stroke-width="3"/>
<mask id="mask0_3_26383" style="mask-type:alpha" maskUnits="userSpaceOnUse" x="3" y="3" width="104" height="104">
<circle cx="55" cy="55" r="52" fill="#ECEDEF"/>
</mask>
<g mask="url(#mask0_3_26383)">
<path d="M95.0303 97.6414H79.6783V72.5838H54.9609V57.0205H95.0303V97.6414Z" fill="black"/>
<path d="M55.0118 30.5487C61.316 30.5566 67.3791 33.0057 71.9611 37.3952C76.5431 41.7847 79.2979 47.7829 79.6621 54.1632H95.0428C94.6787 43.6484 90.3012 33.6878 82.8331 26.3816C75.3651 19.0755 65.3902 14.9948 55.0118 15C44.6374 15.0023 34.6688 19.086 27.2053 26.3911C19.7419 33.6962 15.3663 43.6526 15 54.1632H30.3663C30.7293 47.7833 33.4831 41.7852 38.0644 37.3955C42.6456 33.0059 48.7081 30.5567 55.0118 30.5487Z" fill="#34D026"/>
<path d="M55.0118 80.5962C48.7144 80.5888 42.6572 78.1449 38.0769 73.7634C33.4966 69.382 30.7387 63.3935 30.3663 57.0205H15C15.3663 67.5311 19.7419 77.4875 27.2053 84.7926C34.6688 92.0977 44.6374 96.1815 55.0118 96.1837C65.3902 96.1889 75.3651 92.1082 82.8331 84.8021C90.3012 77.4959 94.6787 67.5353 95.0428 57.0205H79.6621C79.2885 63.3939 76.5296 69.3825 71.9485 73.7638C67.3675 78.1451 61.3097 80.5889 55.0118 80.5962Z" fill="black"/>
<path d="M45.592 32.0002C50.348 32.0002 54.2035 28.0916 54.2035 23.2701C54.2035 18.4486 50.348 14.54 45.592 14.54C40.836 14.54 36.9805 18.4486 36.9805 23.2701C36.9805 28.0916 40.836 32.0002 45.592 32.0002Z" fill="white"/>
<path d="M49.3656 28.175C52.0377 28.175 54.2039 25.979 54.2039 23.2701C54.2039 20.5612 52.0377 18.3652 49.3656 18.3652C46.6935 18.3652 44.5273 20.5612 44.5273 23.2701C44.5273 25.979 46.6935 28.175 49.3656 28.175Z" fill="black"/>
<path d="M64.4279 32.0002C69.1839 32.0002 73.0394 28.0916 73.0394 23.2701C73.0394 18.4486 69.1839 14.54 64.4279 14.54C59.6719 14.54 55.8164 18.4486 55.8164 23.2701C55.8164 28.0916 59.6719 32.0002 64.4279 32.0002Z" fill="white"/>
<path d="M68.2016 28.175C70.8737 28.175 73.0398 25.979 73.0398 23.2701C73.0398 20.5612 70.8737 18.3652 68.2016 18.3652C65.5295 18.3652 63.3633 20.5612 63.3633 23.2701C63.3633 25.979 65.5295 28.175 68.2016 28.175Z" fill="black"/>
</g>
</svg>
