<svg width="69" height="64" viewBox="0 0 69 64" fill="none" xmlns="http://www.w3.org/2000/svg">
<path d="M13.3468 14.8994C10.2944 18.721 11.2385 24.0463 12.0922 26.2312C11.5908 34.5869 6.5861 43.6358 13.1155 48.8738C18.2871 53.0226 28.0351 54.9327 46.3667 54.0569C70.7279 52.8931 66.5994 37.8188 61.4899 30.4271C58.8129 24.4398 63.9597 16.6243 56.5285 11.9108C49.0973 7.19737 45.6349 14.2934 35.9026 11.0011C26.1703 7.70876 17.1623 10.1224 13.3468 14.8994Z" fill="#F6F9F9"/>
<rect x="21" y="20" width="30" height="24" fill="white"/>
<path d="M20 18.9844V44.9685H51.9804V18.9844H20ZM49.9817 42.9697H21.9987V20.9831H49.9817V42.9697ZM41.9864 25.9802C41.9864 27.6355 43.3284 28.9782 44.9847 28.9782C46.6409 28.9782 47.9829 27.6354 47.9829 25.9802C47.9829 24.3239 46.6409 22.9819 44.9847 22.9819C43.3284 22.9819 41.9864 24.3241 41.9864 25.9802ZM47.9829 40.971H23.9974L29.9938 24.9807L37.9889 34.9747L41.9864 31.9765L47.9829 40.971Z" fill="#B4CFCC"/>
<path d="M39.7675 4.35454C39.8359 4.14654 40.1301 4.14654 40.1985 4.35454L40.4534 5.12962C40.4759 5.19807 40.5296 5.25175 40.5981 5.27427L41.3731 5.52918C41.5811 5.59758 41.5811 5.89182 41.3731 5.96022L40.5981 6.21513C40.5296 6.23764 40.4759 6.29133 40.4534 6.35977L40.1985 7.13486C40.1301 7.34285 39.8359 7.34285 39.7675 7.13486L39.5125 6.35978C39.49 6.29133 39.4364 6.23764 39.3679 6.21513L38.5928 5.96022C38.3848 5.89182 38.3848 5.59758 38.5928 5.52918L39.3679 5.27427C39.4364 5.25175 39.49 5.19807 39.5125 5.12962L39.7675 4.35454Z" fill="#EEF2F2"/>
<path d="M3.34515 14.8077C3.41356 14.5997 3.70779 14.5997 3.7762 14.8077L4.35438 16.5657C4.37689 16.6341 4.43057 16.6878 4.49902 16.7103L6.25704 17.2885C6.46504 17.3569 6.46504 17.6511 6.25704 17.7196L4.49902 18.2977C4.43057 18.3202 4.37689 18.3739 4.35438 18.4424L3.7762 20.2004C3.70779 20.4084 3.41356 20.4084 3.34515 20.2004L2.76697 18.4424C2.74446 18.3739 2.69077 18.3202 2.62233 18.2977L0.864309 17.7196C0.65631 17.6511 0.65631 17.3569 0.864309 17.2885L2.62233 16.7103C2.69077 16.6878 2.74446 16.6341 2.76697 16.5657L3.34515 14.8077Z" fill="#EEF2F2"/>
<path d="M65.9044 20.7178C65.9728 20.5098 66.267 20.5098 66.3354 20.7178L66.7591 22.006C66.7816 22.0744 66.8353 22.1281 66.9037 22.1506L68.1919 22.5743C68.3999 22.6427 68.3999 22.9369 68.1919 23.0053L66.9037 23.429C66.8353 23.4515 66.7816 23.5052 66.7591 23.5736L66.3354 24.8618C66.267 25.0698 65.9728 25.0698 65.9044 24.8618L65.4807 23.5736C65.4582 23.5052 65.4045 23.4515 65.3361 23.429L64.0479 23.0053C63.8399 22.9369 63.8399 22.6427 64.0479 22.5743L65.3361 22.1506C65.4045 22.1281 65.4582 22.0744 65.4807 22.006L65.9044 20.7178Z" fill="#EEF2F2"/>
</svg>
