<svg width="24" height="24" viewBox="0 0 24 24" fill="none" xmlns="http://www.w3.org/2000/svg">
<g opacity="0.6">
<path d="M17.502 11.1504L18.9162 12.5646L13.5257 18.2058C13.2765 18.4667 12.8365 18.2903 12.8365 17.9295L12.8365 15.8158L17.502 11.1504Z" fill="#112438"/>
<path d="M12.836 6.14648H14.8359L14.8359 16.6465H12.8359L12.836 6.14648Z" fill="#112438"/>
<path d="M6.4668 12.7109L5.05258 11.2967L10.4424 5.6553C10.6915 5.39449 11.1315 5.57078 11.1316 5.93149L11.1322 8.0455L6.4668 12.7109Z" fill="#112438"/>
<path d="M11.1338 17.7148L9.13379 17.7148L9.13381 7.21484L11.1338 7.21484L11.1338 17.7148Z" fill="#112438"/>
<path fill-rule="evenodd" clip-rule="evenodd" d="M23.6221 9C22.2899 3.82432 17.5916 -2.63598e-07 12.0001 -5.08011e-07C6.4086 -7.52425e-07 1.7103 3.82432 0.378173 9L2.45792 9C3.73219 4.94289 7.52248 2 12.0001 2C16.4778 2 20.2681 4.94289 21.5423 9L23.6221 9ZM2.45792 15C3.73219 19.0571 7.52248 22 12.0001 22C16.4778 22 20.2681 19.0571 21.5423 15L23.6221 15C22.2899 20.1757 17.5916 24 12.0001 24C6.4086 24 1.7103 20.1757 0.378173 15L2.45792 15Z" fill="#112438"/>
</g>
</svg>
