<svg width="337" height="60" viewBox="0 0 337 60" fill="none" xmlns="http://www.w3.org/2000/svg">
<g clip-path="url(#clip0_40_3926)">
<path d="M92.9242 44.9999C89.9975 45.0386 87.0774 44.7116 84.2308 44.0263C81.6999 43.3772 79.6808 42.554 78.1735 41.5568C76.7414 40.6237 75.4905 39.4354 74.4824 38.0502C73.613 36.8865 72.949 35.5811 72.5193 34.1909C72.169 32.9684 71.9909 31.7026 71.99 30.4303V29.3367C71.9873 28.0965 72.1368 26.8606 72.4352 25.6573C72.8175 24.2911 73.4474 23.0078 74.2931 21.872C75.2784 20.4923 76.517 19.3151 77.9422 18.4042C79.4331 17.4235 81.4955 16.6133 84.1292 15.9736C87.126 15.2841 90.1939 14.9572 93.2677 14.9999H95.08C98.0533 14.9663 101.023 15.2274 103.945 15.7796C106.516 16.2993 108.521 16.9425 109.96 17.7092C111.303 18.3929 112.511 19.3169 113.525 20.4362C114.319 21.2712 114.949 22.2489 115.383 23.3184C115.689 24.1753 115.859 25.0753 115.888 25.9853V26.0241H105.417C104.38 23.2725 100.652 21.8967 94.2352 21.8967C86.2709 21.8967 82.2888 24.5072 82.2888 29.7283V30.1551C82.2888 32.2859 83.2668 34.1168 85.2228 35.6479C87.1788 37.1789 90.1549 37.9456 94.151 37.9479C95.7609 37.9585 97.3691 37.8406 98.9604 37.5952C100.154 37.4293 101.329 37.1433 102.466 36.7415C103.241 36.4514 103.984 36.0789 104.681 35.6302C105.154 35.3442 105.581 34.9873 105.947 34.5719C106.135 34.3662 106.257 34.1079 106.297 33.8311V33.7534H93.9828V28.2466H116.098V44.9999H109.017C109.017 44.9999 108.968 41.8955 108.923 39.9729C105.77 43.3242 100.733 44.9999 93.811 44.9999H92.9242Z" fill="black"/>
<path d="M166.155 45C163.845 45.0249 161.539 44.7882 159.281 44.2944C157.6 43.9504 155.979 43.3559 154.472 42.5306C153.326 41.8655 152.317 40.9867 151.499 39.9412C150.79 39.0613 150.249 38.0565 149.904 36.9779C149.614 35.9896 149.469 34.964 149.473 33.9334V33.2279C149.467 32.2042 149.613 31.1854 149.904 30.2046C150.246 29.1461 150.779 28.1605 151.478 27.2977C152.291 26.2721 153.293 25.4144 154.43 24.7719C155.936 23.9596 157.557 23.3827 159.235 23.0609C161.498 22.5973 163.804 22.3774 166.113 22.4047H169.173C180.248 22.4 185.785 26.0054 185.785 33.2208V33.9264C185.785 41.3017 180.254 44.9894 169.191 44.9894L166.155 45ZM174.088 37.5917C175.38 36.5052 176.026 35.2046 176.026 33.69V33.5136C176.034 32.7585 175.862 32.0125 175.526 31.3376C175.189 30.6626 174.697 30.0783 174.091 29.6331C172.799 28.5959 170.672 28.0785 167.711 28.0809H167.666C164.651 28.0809 162.504 28.5912 161.223 29.6119C160.62 30.0592 160.132 30.6444 159.799 31.3192C159.465 31.994 159.296 32.7389 159.306 33.4925V33.69C159.306 35.2046 159.952 36.5052 161.244 37.5917C162.536 38.6783 164.678 39.2215 167.669 39.2215C170.656 39.2262 172.797 38.6853 174.091 37.5988L174.088 37.5917Z" fill="black"/>
<path d="M217.281 23.1385L223.794 36.2476L229.518 23.1385H238.215L228.425 45.0106H219.64L212.342 29.7354L205.216 45H196.256L186.29 23.1279H195.558L201.24 35.8278L207.841 23.1279L217.281 23.1385Z" fill="black"/>
<path d="M271.278 45H262.841V39.0628C262.841 36.677 261.899 34.3889 260.222 32.7018C258.546 31.0148 256.273 30.067 253.902 30.067C251.531 30.067 249.258 31.0148 247.581 32.7018C245.905 34.3889 244.963 36.677 244.963 39.0628V45H236.529V39.0628C236.594 34.4684 238.453 30.0843 241.704 26.8584C244.956 23.6326 249.338 21.8241 253.904 21.8241C258.469 21.8241 262.852 23.6326 266.103 26.8584C269.354 30.0843 271.213 34.4684 271.278 39.0628V45Z" fill="#34D026"/>
<path d="M147.839 23.0574V31.0724C146.033 30.3452 144.107 29.9647 142.161 29.9506C138.554 29.9506 134.417 31.1853 130.509 35.7255V45H121.854V22.4965H130.509V28.1021C133.814 23.6747 137.726 21.9356 141.863 21.9356C143.907 21.9273 145.935 22.3079 147.839 23.0574Z" fill="black"/>
<path d="M58.5281 59.9999H47.3004V41.8073H29.2231V30.5079H58.5281V59.9999Z" fill="black"/>
<path d="M29.2629 11.2888C33.8735 11.2946 38.3078 13.0727 41.6589 16.2596C45.01 19.4465 47.0247 23.8014 47.2911 28.4337H58.5399C58.2736 20.7996 55.0721 13.5679 49.6103 8.26341C44.1485 2.95892 36.8533 -0.00378271 29.2629 3.62473e-06C21.6755 0.00163993 14.3849 2.96655 8.92647 8.27029C3.46805 13.574 0.267897 20.8026 0 28.4337H11.2383C11.5038 23.8017 13.5178 19.4468 16.8683 16.2598C20.2188 13.0729 24.6527 11.2946 29.2629 11.2888Z" fill="#34D026"/>
<path d="M29.2629 47.6246C24.6573 47.6192 20.2273 45.8449 16.8775 42.6638C13.5277 39.4828 11.5107 35.1349 11.2383 30.5079H1.52588e-05C0.267912 38.139 3.46807 45.3676 8.92649 50.6713C14.3849 55.9751 21.6756 58.94 29.2629 58.9416C36.8533 58.9454 44.1485 55.9827 49.6103 50.6782C55.0721 45.3737 58.2736 38.142 58.5399 30.5079H47.2911C47.0179 35.1352 45.0001 39.4831 41.6497 42.6641C38.2994 45.845 33.869 47.6193 29.2629 47.6246Z" fill="black"/>
<path d="M24.9268 9.99769C27.1183 9.99769 28.8949 8.20978 28.8949 6.00428C28.8949 3.79878 27.1183 2.01086 24.9268 2.01086C22.7353 2.01086 20.9587 3.79878 20.9587 6.00428C20.9587 8.20978 22.7353 9.99769 24.9268 9.99769Z" fill="white"/>
<path d="M26.6649 8.2478C27.8962 8.2478 28.8943 7.24328 28.8943 6.00415C28.8943 4.76501 27.8962 3.7605 26.6649 3.7605C25.4336 3.7605 24.4355 4.76501 24.4355 6.00415C24.4355 7.24328 25.4336 8.2478 26.6649 8.2478Z" fill="black"/>
<path d="M33.6036 9.99769C35.7951 9.99769 37.5717 8.20978 37.5717 6.00428C37.5717 3.79878 35.7951 2.01086 33.6036 2.01086C31.4121 2.01086 29.6355 3.79878 29.6355 6.00428C29.6355 8.20978 31.4121 9.99769 33.6036 9.99769Z" fill="white"/>
<path d="M35.3417 8.2478C36.573 8.2478 37.5711 7.24328 37.5711 6.00415C37.5711 4.76501 36.573 3.7605 35.3417 3.7605C34.1104 3.7605 33.1123 4.76501 33.1123 6.00415C33.1123 7.24328 34.1104 8.2478 35.3417 8.2478Z" fill="black"/>
</g>
<rect x="282.465" y="22.3256" width="54.5353" height="22.3256" rx="11.1628" fill="black"/>
<path d="M293.651 38.8875V27.907H298.123C299.276 27.907 300.174 28.1652 300.819 28.6815C301.464 29.1878 301.787 29.8712 301.787 30.7319C301.787 31.9367 301.173 32.7265 299.947 33.1011C300.698 33.2732 301.279 33.5922 301.691 34.0579C302.104 34.5135 302.31 35.1008 302.31 35.8197C302.31 36.7613 301.961 37.5105 301.263 38.0674C300.565 38.6141 299.593 38.8875 298.345 38.8875H293.651ZM297.806 32.5392C298.536 32.5392 299.091 32.3923 299.471 32.0987C299.852 31.8051 300.042 31.39 300.042 30.8534C300.042 30.3167 299.847 29.9016 299.455 29.608C299.075 29.3144 298.52 29.1675 297.79 29.1675H295.396V32.5392H297.806ZM298.028 37.6421C298.853 37.6421 299.477 37.4751 299.899 37.141C300.322 36.7967 300.534 36.3208 300.534 35.7133C300.534 35.1058 300.322 34.63 299.899 34.2857C299.477 33.9415 298.858 33.7693 298.044 33.7693H295.396V37.6421H298.028Z" fill="white"/>
<path d="M311.373 35.2122H305.062C305.115 36.0525 305.384 36.6955 305.87 37.141C306.357 37.5865 306.986 37.8092 307.758 37.8092C308.254 37.8092 308.667 37.708 308.994 37.5055C309.333 37.303 309.618 36.9942 309.851 36.579L311.183 37.1713C310.908 37.7687 310.485 38.2345 309.914 38.5686C309.343 38.9027 308.619 39.0698 307.742 39.0698C306.864 39.0698 306.098 38.8976 305.442 38.5534C304.797 38.199 304.301 37.708 303.952 37.0802C303.603 36.4423 303.428 35.6982 303.428 34.8477C303.428 34.0174 303.597 33.2833 303.936 32.6455C304.274 32.0076 304.75 31.5165 305.363 31.1723C305.987 30.8179 306.706 30.6407 307.52 30.6407C308.735 30.6407 309.682 31.0154 310.358 31.7646C311.035 32.5138 311.373 33.5314 311.373 34.8173V35.2122ZM307.456 31.9013C306.832 31.9013 306.309 32.0937 305.886 32.4784C305.474 32.853 305.215 33.3897 305.109 34.0883H309.708C309.613 33.3694 309.37 32.8277 308.979 32.4632C308.587 32.0886 308.08 31.9013 307.456 31.9013Z" fill="white"/>
<path d="M317.182 31.9924H314.978V36.3968C314.978 36.903 315.099 37.2675 315.343 37.4903C315.596 37.7029 315.972 37.8092 316.468 37.8092C316.733 37.8092 316.971 37.789 317.182 37.7485V38.9331C316.865 39.0242 316.5 39.0698 316.088 39.0698C315.253 39.0698 314.592 38.8622 314.106 38.4471C313.63 38.0218 313.392 37.4093 313.392 36.6094V31.9924H311.901V30.7926H313.392V28.8182H314.978V30.7926H317.182V31.9924Z" fill="white"/>
<path d="M324.434 38.8875C324.402 38.7356 324.375 38.3965 324.354 37.87C324.069 38.2345 323.683 38.5281 323.197 38.7508C322.721 38.9635 322.177 39.0698 321.563 39.0698C320.654 39.0698 319.898 38.8673 319.296 38.4623C318.704 38.0472 318.408 37.4346 318.408 36.6246C318.408 35.7943 318.719 35.1615 319.343 34.7262C319.978 34.2807 320.903 34.0326 322.118 33.982L324.196 33.906C324.185 33.2277 323.995 32.7214 323.625 32.3873C323.265 32.043 322.763 31.8709 322.118 31.8709C321.621 31.8709 321.193 31.9722 320.834 32.1747C320.485 32.367 320.173 32.6556 319.898 33.0403L318.709 32.3569C319.037 31.8102 319.497 31.39 320.089 31.0964C320.691 30.7926 321.389 30.6407 322.182 30.6407C323.281 30.6407 324.153 30.909 324.798 31.4457C325.443 31.9823 325.766 32.7771 325.766 33.8301V36.9739C325.766 37.551 325.782 38.1889 325.813 38.8875H324.434ZM321.706 37.8396C322.414 37.8396 323.006 37.6624 323.482 37.308C323.958 36.9435 324.196 36.4322 324.196 35.7741V35.121L322.214 35.1818C321.442 35.2122 320.887 35.3438 320.548 35.5767C320.21 35.7994 320.041 36.1335 320.041 36.579C320.041 37.0043 320.184 37.3232 320.469 37.5358C320.755 37.7383 321.167 37.8396 321.706 37.8396Z" fill="white"/>
<defs>
<clipPath id="clip0_40_3926">
<rect width="271.278" height="60" fill="white"/>
</clipPath>
</defs>
</svg>
