<svg width="20" height="20" viewBox="0 0 20 20" fill="none" xmlns="http://www.w3.org/2000/svg">
<path d="M15.0124 15.1894L14.6269 15.1654L14.3253 15.4066C13.8415 15.7936 13.1567 16.1812 12.6088 16.3638L12.1688 16.5105L11.9965 16.9411L11.573 18H8.42703L8.00348 16.9411L7.84964 16.5565L7.46892 16.3934C6.70199 16.0647 6.12855 15.7697 5.6747 15.4066L5.31653 15.1201L4.86571 15.2046L3.76517 15.411L2.21275 12.6943L2.89322 11.8777L3.125 11.5996V11.2375V10C3.125 9.51459 3.13425 9.34703 3.18618 9.19123L3.36234 8.66276L3.00572 8.23482L2.32525 7.41825L3.87767 4.70152L4.97821 4.90787L5.42903 4.9924L5.7872 4.70587C6.27097 4.31885 6.95583 3.93131 7.50373 3.74868L7.98931 3.58682L8.14198 3.09827L8.48519 2H11.573L11.9965 3.05889L12.1504 3.44348L12.5311 3.60665C13.298 3.93533 13.8714 4.23028 14.3253 4.59337L14.6835 4.8799L15.1343 4.79537L16.2348 4.58902L17.7873 7.30575L17.1068 8.12232L16.7502 8.55026L16.9263 9.07873C16.9772 9.23129 16.9875 9.50329 16.9875 9.8875C16.9875 10.2717 16.9772 10.5437 16.9263 10.6963L16.7502 11.2247L17.1068 11.6527L17.7872 12.4692L16.1908 15.2631L15.0124 15.1894Z" stroke="#112438" stroke-width="2"/>
<circle cx="10.0001" cy="10" r="2.33333" stroke="#112438" stroke-width="2"/>
</svg>
