<svg width="30" height="30" viewBox="0 0 30 30" fill="none" xmlns="http://www.w3.org/2000/svg">
<rect width="30" height="30" rx="15" fill="#A0A7AF"/>
<path d="M25 14.9805C25 17.1552 24.364 19.1108 23.092 20.8474C21.82 22.584 20.1775 23.7861 18.1645 24.4537C17.9301 24.4969 17.7584 24.4664 17.6496 24.3622C17.5407 24.258 17.4863 24.1282 17.4863 23.973V21.2316C17.4863 20.3911 17.2607 19.7761 16.8097 19.3869C17.3041 19.3348 17.749 19.2566 18.1445 19.1524C18.54 19.0481 18.9477 18.879 19.3676 18.645C19.7875 18.411 20.1391 18.1227 20.4224 17.78C20.7057 17.4374 20.9357 16.9827 21.1123 16.416C21.2889 15.8494 21.3778 15.1973 21.3789 14.4599C21.3789 13.4119 21.0362 12.5198 20.3508 11.7834C20.6718 10.995 20.6374 10.1111 20.2475 9.13193C20.0042 9.05431 19.6526 9.10199 19.1926 9.27499C18.7327 9.44798 18.3333 9.63872 17.9945 9.8472L17.4996 10.1583C16.6919 9.93315 15.8587 9.82059 15 9.82059C14.1413 9.82059 13.3081 9.93315 12.5004 10.1583C12.3615 10.0629 12.1771 9.9459 11.9472 9.80728C11.7172 9.66866 11.3551 9.50177 10.8607 9.30659C10.3663 9.11142 9.99306 9.0532 9.74088 9.13193C9.35872 10.1111 9.32817 10.995 9.64922 11.7834C8.96378 12.5198 8.62106 13.4119 8.62106 14.4599C8.62106 15.1962 8.70994 15.846 8.88769 16.4094C9.06543 16.9727 9.29317 17.4274 9.5709 17.7734C9.84864 18.1194 10.198 18.4094 10.6191 18.6434C11.0401 18.8773 11.4478 19.0465 11.8422 19.1507C12.2366 19.2549 12.6815 19.3331 13.177 19.3852C12.8304 19.6969 12.6176 20.1432 12.5387 20.7243C12.3566 20.8108 12.161 20.8757 11.9522 20.9189C11.7433 20.9622 11.4961 20.9838 11.2106 20.9838C10.9251 20.9838 10.6407 20.8906 10.3574 20.7043C10.0742 20.518 9.83308 20.2475 9.63423 19.8926C9.46981 19.6154 9.25929 19.3902 9.00267 19.2172C8.74604 19.0442 8.53108 18.9406 8.35777 18.9062L8.09782 18.8679C7.91562 18.8679 7.78954 18.8873 7.71955 18.9261C7.64956 18.965 7.6279 19.0149 7.65456 19.0758C7.68122 19.1368 7.7201 19.1973 7.7712 19.2572C7.82231 19.317 7.87896 19.3692 7.94118 19.4135L8.03283 19.4784C8.22391 19.5649 8.41276 19.7296 8.5994 19.9724C8.78604 20.2153 8.92268 20.436 9.00933 20.6345L9.13931 20.9339C9.25262 21.2632 9.4437 21.5294 9.71255 21.7323C9.98139 21.9353 10.2719 22.065 10.5841 22.1216C10.8962 22.1781 11.1979 22.2086 11.4889 22.2131C11.78 22.2175 12.0211 22.2025 12.2121 22.1681L12.5121 22.1166C12.5121 22.4459 12.5143 22.8313 12.5187 23.2727C12.5232 23.714 12.5254 23.948 12.5254 23.9746C12.5254 24.131 12.4688 24.2607 12.3554 24.3639C12.2421 24.467 12.0688 24.4975 11.8355 24.4553C9.82253 23.7878 8.18003 22.5857 6.90802 20.8491C5.63601 19.1124 5 17.1568 5 14.9822C5 13.1713 5.44715 11.5012 6.34144 9.97196C7.23574 8.44272 8.44887 7.23175 9.98084 6.33905C11.5128 5.44635 13.1859 5 15 5C16.8141 5 18.4872 5.44635 20.0192 6.33905C21.5511 7.23175 22.7643 8.44272 23.6586 9.97196C24.5529 11.5012 25 13.1713 25 14.9822V14.9805Z" fill="white"/>
</svg>
