<svg width="30" height="30" viewBox="0 0 30 30" fill="none" xmlns="http://www.w3.org/2000/svg">
<rect width="30" height="30" rx="15" fill="url(#paint0_linear_3_26315)"/>
<path d="M15 11.1286C15.7691 11.1286 16.4976 11.3309 17.1857 11.7357C17.8738 12.1405 18.4 12.6667 18.7643 13.3143C19.1691 14.0024 19.3714 14.7309 19.3714 15.5C19.3714 16.2691 19.1691 16.9976 18.7643 17.6857C18.3595 18.3738 17.8333 18.9 17.1857 19.2643C16.4976 19.669 15.7691 19.8714 15 19.8714C14.2309 19.8714 13.5024 19.669 12.8143 19.2643C12.1262 18.8595 11.6 18.3333 11.2357 17.6857C10.831 16.9976 10.6286 16.269 10.6286 15.5C10.6286 14.731 10.831 14.0024 11.2357 13.3143C11.6405 12.6262 12.1667 12.1 12.8143 11.7357C13.4619 11.3714 14.231 11.1286 15 11.1286ZM15 18.3333C15.7691 18.3333 16.4571 18.05 17.0238 17.4833C17.5905 16.9167 17.8738 16.269 17.8738 15.4595C17.8738 14.65 17.5905 14.0024 17.0238 13.4357C16.4571 12.869 15.8095 12.5857 15 12.5857C14.1905 12.5857 13.5429 12.869 12.9762 13.4357C12.4095 14.0024 12.1262 14.65 12.1262 15.4595C12.1262 16.269 12.4095 16.9167 12.9762 17.4833C13.5429 18.05 14.231 18.3333 15 18.3333ZM20.5857 10.9667C20.5452 11.25 20.4643 11.4929 20.2619 11.6952C20.0595 11.8976 19.8571 11.9786 19.5738 11.9786C19.2905 11.9786 19.0476 11.8976 18.8452 11.6952C18.6429 11.4929 18.5214 11.25 18.5214 10.9667C18.5214 10.6833 18.6024 10.4405 18.8452 10.2381C19.0476 10.0357 19.2905 9.95476 19.5738 9.95476C19.8571 9.95476 20.1 10.0357 20.3024 10.2381C20.4643 10.4405 20.5857 10.6833 20.5857 10.9667ZM23.4595 11.9786C23.5 12.6667 23.5 13.8809 23.5 15.5C23.5 17.1191 23.5 18.3333 23.4595 19.0619C23.4191 19.7905 23.2976 20.3976 23.1357 20.9238C22.8929 21.5714 22.5691 22.0976 22.0833 22.5833C21.5976 23.069 21.0714 23.3929 20.4238 23.6357C19.8976 23.7976 19.25 23.919 18.5619 23.9595C17.8738 24 16.6595 24 15 24C13.3405 24 12.1667 24 11.4381 23.9595C10.7095 23.919 10.1024 23.7976 9.5762 23.5952C8.92857 23.3929 8.40239 23.069 7.91667 22.5833C7.43096 22.0976 7.10714 21.5714 6.86429 20.9238C6.70239 20.3976 6.58096 19.75 6.54049 19.0619C6.5 18.3333 6.5 17.1595 6.5 15.5C6.5 13.8405 6.5 12.6667 6.54049 11.9381C6.58098 11.2095 6.70239 10.6024 6.86429 10.0762C7.10714 9.42857 7.43096 8.90237 7.91667 8.41665C8.40239 7.93094 8.92857 7.60714 9.5762 7.36429C10.1024 7.20237 10.75 7.08094 11.4381 7.04047C12.1262 7 13.3405 7 15 7C16.6595 7 17.8333 7 18.5619 7.04047C19.2905 7.08094 19.8976 7.20237 20.4238 7.36429C21.0714 7.60714 21.5976 7.93094 22.0833 8.41665C22.5691 8.90237 22.8929 9.42857 23.1357 10.0762C23.2976 10.6024 23.4191 11.25 23.4595 11.9786ZM21.6381 20.519C21.8 20.0738 21.881 19.4262 21.9619 18.4548C22.0024 17.8881 22.0024 17.119 22.0024 16.1071V14.8929C22.0024 13.8405 22.0024 13.0714 21.9619 12.5452C21.9214 11.5738 21.8 10.8857 21.6381 10.4809C21.3548 9.7119 20.7881 9.14523 20.0191 8.8619C19.6143 8.7 18.9262 8.61904 17.9548 8.57857C17.3881 8.53808 16.6191 8.53808 15.6071 8.53808H14.3929C13.381 8.53808 12.6119 8.53808 12.0452 8.57857C11.1143 8.61904 10.4262 8.74047 9.98096 8.8619C9.21192 9.14523 8.64524 9.7119 8.36192 10.4809C8.2 10.8857 8.11906 11.5738 8.07857 12.5452C8.0381 13.1119 8.0381 13.8809 8.0381 14.8929V16.1071C8.0381 17.119 8.0381 17.8881 8.07857 18.4548C8.11906 19.3857 8.24049 20.0738 8.36192 20.519C8.68571 21.2881 9.25239 21.8548 9.98096 22.1381C10.4262 22.3 11.0738 22.3809 12.0452 22.4619C12.6119 22.5024 13.381 22.5024 14.3929 22.5024H15.6071C16.6595 22.5024 17.4286 22.5024 17.9548 22.4619C18.9262 22.4214 19.6143 22.3 20.0191 22.1381C20.7881 21.8143 21.3548 21.2881 21.6381 20.519Z" fill="white"/>
<defs>
<linearGradient id="paint0_linear_3_26315" x1="27.5" y1="1.25" x2="1.25" y2="28.75" gradientUnits="userSpaceOnUse">
<stop offset="0.286458" stop-color="#7C3AAE"/>
<stop offset="0.567708" stop-color="#F80308"/>
<stop offset="1" stop-color="#FCD902"/>
</linearGradient>
</defs>
</svg>
