<svg width="30" height="30" viewBox="0 0 30 30" fill="none" xmlns="http://www.w3.org/2000/svg">
<circle opacity="0.04" cx="15" cy="15" r="15" fill="#112438"/>
<g opacity="0.6">
<path d="M19.5 14.2002L19.5 15.8002L10.5 15.8002L10.5 14.2002L19.5 14.2002Z" fill="#112438"/>
<path fill-rule="evenodd" clip-rule="evenodd" d="M21.65 11.35L21.65 18.65L17.35 18.65L17.35 17L15.75 17L15.75 18.65L15.75 20.25L17.35 20.25L21.65 20.25L23.25 20.25L23.25 18.65L23.25 11.35L23.25 9.75L21.65 9.75L17.35 9.75L15.75 9.75L15.75 11.35L15.75 13L17.35 13L17.35 11.35L21.65 11.35Z" fill="#112438"/>
<path fill-rule="evenodd" clip-rule="evenodd" d="M14.25 13L14.25 11.35L14.25 9.75L12.65 9.75L8.35 9.75L6.75 9.75L6.75 11.35L6.75 18.65L6.75 20.25L8.35 20.25L12.65 20.25L14.25 20.25L14.25 18.65L14.25 17L12.65 17L12.65 18.65L8.35 18.65L8.35 11.35L12.65 11.35L12.65 13L14.25 13Z" fill="#112438"/>
</g>
</svg>
