<svg width="30" height="30" viewBox="0 0 30 30" fill="none" xmlns="http://www.w3.org/2000/svg">
<g clip-path="url(#clip0_3_26351)">
<circle cx="15" cy="15" r="15" fill="white"/>
<path d="M18.3315 19.5368C18.51 19.7154 18.51 19.8884 18.3315 20.0558C17.6395 20.7478 16.529 21.0938 15 21.0938C13.471 21.0938 12.3605 20.7478 11.6685 20.0558C11.49 19.8884 11.49 19.7154 11.6685 19.5368C11.7355 19.4699 11.8192 19.4364 11.9196 19.4364C12.0201 19.4364 12.1038 19.4699 12.1708 19.5368C12.7065 20.0837 13.6496 20.3571 15 20.3571C16.3393 20.3571 17.2824 20.0837 17.8292 19.5368C17.8962 19.4699 17.9799 19.4364 18.0804 19.4364C18.1808 19.4364 18.2645 19.4699 18.3315 19.5368ZM13.192 16.5067C13.192 16.9196 13.0469 17.2712 12.7567 17.5614C12.4665 17.8516 12.115 17.9967 11.702 17.9967C11.2891 17.9967 10.9347 17.8516 10.639 17.5614C10.3432 17.2712 10.1953 16.9196 10.1953 16.5067C10.1953 16.0826 10.3432 15.7254 10.639 15.4353C10.9347 15.1451 11.2891 15 11.702 15C12.115 15 12.4665 15.1479 12.7567 15.4436C13.0469 15.7394 13.192 16.0938 13.192 16.5067ZM19.8047 16.5067C19.8047 16.9196 19.6568 17.2712 19.361 17.5614C19.0653 17.8516 18.7109 17.9967 18.298 17.9967C17.885 17.9967 17.5335 17.8516 17.2433 17.5614C16.9531 17.2712 16.808 16.9196 16.808 16.5067C16.808 16.0938 16.9531 15.7394 17.2433 15.4436C17.5335 15.1479 17.885 15 18.298 15C18.7109 15 19.0653 15.1451 19.361 15.4353C19.6568 15.7254 19.8047 16.0826 19.8047 16.5067ZM24.0067 14.4978C24.0067 13.9509 23.8114 13.4821 23.4208 13.0915C23.0301 12.7009 22.5558 12.5056 21.9978 12.5056C21.4397 12.5056 20.9598 12.7065 20.558 13.1083C19.1071 12.1038 17.3717 11.5681 15.3516 11.5011L16.4062 6.76339L19.7545 7.51674C19.7545 7.92969 19.8996 8.28125 20.1897 8.57143C20.4799 8.86161 20.8315 9.0067 21.2444 9.0067C21.6574 9.0067 22.0117 8.85882 22.3075 8.56306C22.6032 8.2673 22.7511 7.91295 22.7511 7.5C22.7511 7.08705 22.6032 6.7327 22.3075 6.43694C22.0117 6.14118 21.6574 5.9933 21.2444 5.9933C20.6417 5.9933 20.1953 6.27232 19.9051 6.83036L16.2054 6.01004C15.9933 5.95424 15.8538 6.04353 15.7868 6.2779L14.6317 11.5011C12.6228 11.5792 10.8984 12.1205 9.45871 13.125C9.06808 12.7121 8.58259 12.5056 8.00223 12.5056C7.4442 12.5056 6.96987 12.7009 6.57924 13.0915C6.18862 13.4821 5.9933 13.9509 5.9933 14.4978C5.9933 14.8884 6.09654 15.2455 6.30301 15.5692C6.50949 15.8929 6.78571 16.1384 7.1317 16.3058C7.06473 16.6071 7.03125 16.9196 7.03125 17.2433C7.03125 18.8281 7.8125 20.1842 9.375 21.3114C10.9375 22.4386 12.8181 23.0022 15.0167 23.0022C17.2266 23.0022 19.1127 22.4386 20.6752 21.3114C22.2377 20.1842 23.019 18.8281 23.019 17.2433C23.019 16.8862 22.9799 16.5681 22.9018 16.2891C23.2366 16.1217 23.5045 15.8789 23.7054 15.5608C23.9062 15.2427 24.0067 14.8884 24.0067 14.4978ZM30 15C30 17.0312 29.6038 18.9732 28.8114 20.8259C28.019 22.6786 26.9531 24.2746 25.6138 25.6138C24.2746 26.9531 22.6786 28.019 20.8259 28.8114C18.9732 29.6038 17.0312 30 15 30C12.9688 30 11.0268 29.6038 9.17411 28.8114C7.32143 28.019 5.72545 26.9531 4.38616 25.6138C3.04687 24.2746 1.98103 22.6786 1.18862 20.8259C0.396205 18.9732 0 17.0312 0 15C0 12.9688 0.396205 11.0268 1.18862 9.17411C1.98103 7.32143 3.04687 5.72545 4.38616 4.38616C5.72545 3.04687 7.32143 1.98103 9.17411 1.18862C11.0268 0.396205 12.9688 0 15 0C17.0312 0 18.9732 0.396205 20.8259 1.18862C22.6786 1.98103 24.2746 3.04687 25.6138 4.38616C26.9531 5.72545 28.019 7.32143 28.8114 9.17411C29.6038 11.0268 30 12.9688 30 15Z" fill="#A0A7AF"/>
</g>
<defs>
<clipPath id="clip0_3_26351">
<rect width="30" height="30" fill="white"/>
</clipPath>
</defs>
</svg>
