<svg width="30" height="30" viewBox="0 0 30 30" fill="none" xmlns="http://www.w3.org/2000/svg">
<rect width="30" height="30" rx="15" fill="#111111"/>
<path d="M9.15503 18.5811C9.15663 17.1557 9.72358 15.7891 10.7315 14.7812C11.7394 13.7733 13.106 13.2063 14.5314 13.2047V16.4304C13.9613 16.4311 13.4147 16.6578 13.0115 17.061C12.6084 17.4641 12.3816 18.0107 12.3809 18.5809C12.3809 19.6375 12.9523 20.7743 14.2071 20.7743C14.2906 20.7743 16.2519 20.7551 16.2519 19.0869V6.86035H19.6893C19.6911 7.63123 19.9984 8.36997 20.5437 8.91481C21.0891 9.45965 21.8281 9.7662 22.599 9.76732L22.5961 12.9872C21.4985 12.9956 20.4199 12.7013 19.4787 12.1367L19.4774 19.0869C19.4774 22.2782 16.7618 24 14.2066 24C11.327 24.0007 9.15503 21.6707 9.15503 18.5811Z" fill="#FF4040"/>
<path d="M8.29468 17.7208C8.29628 16.2953 8.86323 14.9288 9.87115 13.9209C10.8791 12.9129 12.2456 12.346 13.671 12.3444V15.5701C13.1009 15.5707 12.5543 15.7975 12.1512 16.2006C11.748 16.6038 11.5212 17.1504 11.5206 17.7205C11.5206 18.7772 12.092 19.914 13.3467 19.914C13.4302 19.914 15.3915 19.8947 15.3915 18.2266V6H18.829C18.8308 6.77088 19.138 7.50962 19.6834 8.05446C20.2287 8.5993 20.9677 8.90584 21.7386 8.90697L21.7357 12.1268C20.6382 12.1353 19.5595 11.841 18.6183 11.2763L18.617 18.2266C18.617 21.4178 15.9014 23.1396 13.3463 23.1396C10.4666 23.1403 8.29468 20.8104 8.29468 17.7208Z" fill="#00F5FF"/>
<path d="M13.6714 13.2698C10.1999 13.7103 7.45411 18.1379 10.3029 22.1221C12.9346 24.2746 18.4707 23.0227 18.624 18.3657L18.6202 11.2807C19.567 11.8365 20.6456 12.128 21.7434 12.125V9.63364C21.0979 9.41564 20.5399 8.99542 20.1521 8.43531C19.5829 8.06094 19.1606 7.50148 18.9564 6.85156H16.2533L16.2516 19.1227C16.2491 20.8378 13.3889 21.4486 12.6628 19.7841C10.8445 18.9148 11.2557 15.611 13.6752 15.5749L13.6714 13.2698Z" fill="white"/>
</svg>
