<svg width="30" height="30" viewBox="0 0 30 30" fill="none" xmlns="http://www.w3.org/2000/svg">
<rect width="30" height="30" rx="15" fill="#1B90EE"/>
<path d="M21.371 11.9849C21.371 11.8318 21.3681 11.6803 21.3615 11.5299C22.0031 11.0419 22.5597 10.4311 23 9.73214C22.4021 10.0067 21.7659 10.1844 21.1143 10.2587C21.7925 9.83276 22.3125 9.15152 22.5583 8.33399C21.9233 8.72706 21.221 9.00806 20.4742 9.15449C19.8758 8.45953 19.0219 8.01689 18.0779 8.00044C16.265 7.96985 14.7953 9.53361 14.7953 11.4927C14.7953 11.7712 14.8239 12.0413 14.8805 12.3021C12.1505 12.1227 9.73127 10.6723 8.11303 8.48569C7.83067 9.00956 7.66867 9.62181 7.66867 10.2779C7.66867 11.5189 8.24821 12.6219 9.12878 13.2727C8.5897 13.2479 8.08472 13.0812 7.6418 12.808V12.8535C7.6418 14.588 8.77369 16.0412 10.2756 16.3802C10.0002 16.4602 9.70982 16.5018 9.41114 16.5003C9.20362 16.4992 8.99678 16.4761 8.79395 16.4313C9.21127 17.8526 10.4242 18.891 11.8601 18.9256C10.7363 19.8767 9.32061 20.4449 7.78362 20.4409C7.51861 20.4409 7.25674 20.4227 7 20.3898C8.45331 21.4074 10.1784 22 12.0329 22C18.0697 22.0015 21.371 16.6383 21.371 11.9849Z" fill="white"/>
</svg>
