<svg width="30" height="30" viewBox="0 0 30 30" fill="none" xmlns="http://www.w3.org/2000/svg">
<rect width="30" height="30" rx="15" fill="#FF0000"/>
<path d="M13.5625 17.4706V12.5294L17.875 15.0085L13.5625 17.4706ZM23.4525 11.5885C23.4525 11.5885 23.2836 10.4132 22.7668 9.89506C22.1106 9.21529 21.3753 9.21247 21.0382 9.17294C18.6247 9 15.0036 9 15.0036 9H14.9964C14.9964 9 11.3753 9 8.96178 9.17294C8.62397 9.21247 7.88941 9.21529 7.23247 9.89506C6.71569 10.4132 6.5475 11.5892 6.5475 11.5892C6.5475 11.5892 6.375 12.9685 6.375 14.3485V15.6438C6.375 17.0245 6.5475 18.4052 6.5475 18.4052C6.5475 18.4052 6.71569 19.5805 7.23247 20.0986C7.88941 20.7784 8.75119 20.7565 9.135 20.8278C10.515 20.9598 15 21 15 21C15 21 18.6247 20.9944 21.0382 20.8221C21.376 20.7819 22.1106 20.7791 22.7668 20.0993C23.2843 19.5812 23.4525 18.4052 23.4525 18.4052C23.4525 18.4052 23.625 17.0252 23.625 15.6445V14.3499C23.625 12.9692 23.4525 11.5885 23.4525 11.5885Z" fill="white"/>
</svg>
