<svg width="816" height="160" viewBox="0 0 816 160" fill="none" xmlns="http://www.w3.org/2000/svg">
<rect width="816" height="160" fill="#112438"/>
<mask id="mask0_2_1668" style="mask-type:alpha" maskUnits="userSpaceOnUse" x="0" y="0" width="816" height="160">
<rect width="816" height="160" fill="#112438"/>
</mask>
<g mask="url(#mask0_2_1668)">
<circle opacity="0.08" cx="732" cy="165" r="113" fill="white"/>
<circle cx="93" cy="9" r="103" fill="#243648"/>
<circle cx="489" cy="149" r="24" stroke="#415060" stroke-width="16"/>
<path d="M467.256 133.957C467.691 132.087 471.245 127.072 475.581 125.694" stroke="#112438" stroke-width="2" stroke-linecap="round"/>
<circle cx="478.816" cy="124.386" r="1.10345" transform="rotate(-3.59729 478.816 124.386)" fill="#112438"/>
<path d="M78 89.1364L98 53L78 65.8485L72.4 53L54.8 71.4697L48.4 62.6364L10 79.5L30 106L44.4 89.1364L54.8 97.9697L68.4 79.5L78 89.1364Z" fill="#112438"/>
<path d="M754.864 121.955L731 79L754.864 94.2727L761.545 79L782.545 100.955L790.182 90.4545L836 110.5L812.136 142L794.955 121.955L782.545 132.455L766.318 110.5L754.864 121.955Z" fill="#112438"/>
<circle cx="643.5" cy="-1.5" r="2.5" fill="#5D6A78"/>
<circle cx="643.5" cy="13.5" r="2.5" fill="#5D6A78"/>
<circle cx="643.5" cy="28.5" r="2.5" fill="#5D6A78"/>
<circle cx="688.5" cy="-1.5" r="2.5" fill="#5D6A78"/>
<circle cx="688.5" cy="13.5" r="2.5" fill="#5D6A78"/>
<circle cx="688.5" cy="28.5" r="2.5" fill="#5D6A78"/>
<circle cx="658.5" cy="-1.5" r="2.5" fill="#5D6A78"/>
<circle cx="658.5" cy="13.5" r="2.5" fill="#5D6A78"/>
<circle cx="658.5" cy="28.5" r="2.5" fill="#5D6A78"/>
<circle cx="703.5" cy="-1.5" r="2.5" fill="#5D6A78"/>
<circle cx="703.5" cy="13.5" r="2.5" fill="#5D6A78"/>
<circle cx="703.5" cy="28.5" r="2.5" fill="#5D6A78"/>
<circle cx="673.5" cy="-1.5" r="2.5" fill="#5D6A78"/>
<circle cx="673.5" cy="13.5" r="2.5" fill="#5D6A78"/>
<circle cx="673.5" cy="28.5" r="2.5" fill="#5D6A78"/>
<circle cx="718.5" cy="-1.5" r="2.5" fill="#5D6A78"/>
<circle cx="718.5" cy="13.5" r="2.5" fill="#5D6A78"/>
<circle cx="718.5" cy="28.5" r="2.5" fill="#5D6A78"/>
</g>
<path fill-rule="evenodd" clip-rule="evenodd" d="M608.6 46C603.298 46 599 50.2981 599 55.6V113.2C599 118.502 603.298 122.8 608.6 122.8H629.086L634.282 131.8C635.668 134.2 639.132 134.2 640.518 131.8L645.714 122.8H666.2C671.502 122.8 675.8 118.502 675.8 113.2V55.6C675.8 50.2981 671.502 46 666.2 46H608.6Z" fill="#415060"/>
<path fill-rule="evenodd" clip-rule="evenodd" d="M603.6 41C598.298 41 594 45.2981 594 50.6V108.2C594 113.502 598.298 117.8 603.6 117.8H624.086L629.282 126.8C630.668 129.2 634.132 129.2 635.518 126.8L640.714 117.8H661.2C666.502 117.8 670.8 113.502 670.8 108.2V50.6C670.8 45.2981 666.502 41 661.2 41H603.6Z" fill="#5D6A78"/>
<rect x="608.4" y="62.6003" width="48" height="12" fill="#112438"/>
<path d="M612 103.4L620.4 55.4004L632.4 55.4004L624 103.4L612 103.4Z" fill="#112438"/>
<path d="M632.4 103.4L640.8 55.4004L652.8 55.4004L644.4 103.4L632.4 103.4Z" fill="#112438"/>
<rect x="608.4" y="84.2004" width="48" height="12" fill="#112438"/>
<path d="M609 46H604C601.239 46 599 48.2386 599 51V56" stroke="#112438" stroke-width="2.4" stroke-linecap="round"/>
<path fill-rule="evenodd" clip-rule="evenodd" d="M321.386 114.546C317.557 116.757 316.244 121.654 318.455 125.483C320.666 129.313 325.563 130.625 329.393 128.414L337.098 123.966L341.546 131.67C343.757 135.5 348.654 136.812 352.483 134.601C356.313 132.39 357.625 127.493 355.414 123.663L350.966 115.959L358.671 111.511C362.5 109.3 363.812 104.403 361.601 100.573C359.39 96.7436 354.493 95.4314 350.664 97.6425L342.959 102.091L338.511 94.3858C336.3 90.5562 331.403 89.2441 327.573 91.4551C323.744 93.6661 322.431 98.563 324.642 102.393L329.091 110.098L321.386 114.546Z" fill="#415060"/>
<path d="M350.998 123.131L344.993 112.73" stroke="#112438" stroke-width="2" stroke-linecap="round"/>
<path d="M352.777 126.214L352.332 125.443" stroke="#112438" stroke-width="2" stroke-linecap="round"/>
<path d="M460.454 53.4282C460.454 50.349 463.788 48.4245 466.454 49.9641L482.954 59.4904C485.621 61.03 485.621 64.879 482.954 66.4186L466.454 75.9449C463.788 77.4845 460.454 75.56 460.454 72.4808L460.454 53.4282Z" fill="#415060"/>
<path d="M466.646 55.1136L477.409 61.0884" stroke="#112438" stroke-width="2" stroke-linecap="round"/>
<path d="M246.5 31.7942L246.879 35.7886C247.204 39.2129 250.809 41.2943 253.937 39.8634L261.234 36.5251C264.362 35.0941 267.967 37.1755 268.291 40.5998L269.049 48.5886C269.374 52.0129 272.979 54.0943 276.107 52.6634L283.404 49.3251C286.532 47.8941 290.137 49.9755 290.462 53.3998L290.84 57.3942" stroke="#415060" stroke-width="4" stroke-linecap="round"/>
<circle cx="400.349" cy="46.3485" r="5" transform="rotate(15 400.349 46.3485)" stroke="#415060" stroke-width="2"/>
<circle cx="252.349" cy="108.348" r="5" transform="rotate(15 252.349 108.348)" stroke="#415060" stroke-width="2"/>
</svg>
