<svg width="24" height="24" viewBox="0 0 24 24" fill="none" xmlns="http://www.w3.org/2000/svg">
<path opacity="0.04" d="M24 12C24 18.6274 18.6274 24 12 24C5.37258 24 0 18.6274 0 12C0 5.37258 5.37258 0 12 0C18.6274 0 24 5.37258 24 12Z" fill="#112438"/>
<g opacity="0.6">
<path d="M11.2 9.00039C11.2 10.5468 9.94645 11.8004 8.40005 11.8004C6.85365 11.8004 5.60005 10.5468 5.60005 9.00039C5.60005 7.45399 6.85365 6.20039 8.40005 6.20039C9.94645 6.20039 11.2 7.45399 11.2 9.00039Z" stroke="#112438" stroke-width="1.6"/>
<path d="M7.70068 18.6006L7.70068 12.0006L9.30068 12.0006L9.30068 18.6006L7.70068 18.6006Z" fill="#112438"/>
</g>
<g opacity="0.6">
<path d="M14.7217 12L14.7217 6.6L16.3217 6.6L16.3217 12L14.7217 12Z" fill="#112438"/>
<path d="M18.4 14.9994C18.4 16.5458 17.1464 17.7994 15.6 17.7994C14.0536 17.7994 12.8 16.5458 12.8 14.9994C12.8 13.453 14.0536 12.1994 15.6 12.1994C17.1464 12.1994 18.4 13.453 18.4 14.9994Z" stroke="#112438" stroke-width="1.6"/>
</g>
<path d="M12.3687 8.59084L15.5241 5.43545L16.6554 6.56682L13.5 9.72221L12.3687 8.59084Z" fill="#FF5C64"/>
<path d="M17.5535 9.71482L14.3981 6.55943L15.5294 5.42805L18.6848 8.58345L17.5535 9.71482Z" fill="#FF5C64"/>
<path d="M11.696 16.3096L5.09605 16.3096L5.09604 14.7096L11.696 14.7096L11.696 16.3096Z" fill="#1685EC"/>
</svg>
