<svg width="24" height="24" viewBox="0 0 24 24" fill="none" xmlns="http://www.w3.org/2000/svg">
<path opacity="0.04" d="M24 12C24 18.6274 18.6274 24 12 24C5.37258 24 0 18.6274 0 12C0 5.37258 5.37258 0 12 0C18.6274 0 24 5.37258 24 12Z" fill="#112438"/>
<g opacity="0.6">
<path d="M11.2048 19.7998L11.2048 15.5998L12.8048 15.5998L12.8048 19.7998L11.2048 19.7998Z" fill="#112438"/>
<path d="M11.2087 7.7998L11.2087 2.99981L12.8087 2.9998L12.8087 7.7998L11.2087 7.7998Z" fill="#112438"/>
<path d="M16.2 12C16.2 14.3196 14.3196 16.2 12 16.2C9.6804 16.2 7.8 14.3196 7.8 12C7.8 9.6804 9.6804 7.8 12 7.8C14.3196 7.8 16.2 9.6804 16.2 12Z" stroke="#112438" stroke-width="1.6"/>
</g>
<path d="M11.0823 19.6894L14.5227 17.2804L15.4404 18.591L12 21.0001L11.0823 19.6894Z" fill="#1685EC"/>
<path d="M12 21L8.55956 18.591L9.47728 17.2803L12.9177 19.6894L12 21Z" fill="#1685EC"/>
<path d="M14.4248 5.81836L9.62481 5.81836L9.6248 4.21836L14.4248 4.21836L14.4248 5.81836Z" fill="#FF5C64"/>
</svg>
